G04 #@! TF.GenerationSoftware,KiCad,Pcbnew,(5.1.4-7-g8dd734fbd)*
G04 #@! TF.CreationDate,2019-09-01T10:21:26+03:00*
G04 #@! TF.ProjectId,usb1wireadapter,75736231-7769-4726-9561-646170746572,rev?*
G04 #@! TF.SameCoordinates,Original*
G04 #@! TF.FileFunction,Legend,Top*
G04 #@! TF.FilePolarity,Positive*
%FSLAX46Y46*%
G04 Gerber Fmt 4.6, Leading zero omitted, Abs format (unit mm)*
G04 Created by KiCad (PCBNEW (5.1.4-7-g8dd734fbd)) date 2019-09-01 10:21:26*
%MOMM*%
%LPD*%
G04 APERTURE LIST*
%ADD10C,0.150000*%
%ADD11C,0.120000*%
G04 APERTURE END LIST*
D10*
X120170000Y-73620000D02*
X120170000Y-76700000D01*
X116230000Y-74300000D02*
X116230000Y-76700000D01*
D11*
X96100000Y-66450000D02*
X98500000Y-66450000D01*
X98500000Y-63350000D02*
X95550000Y-63350000D01*
X103960000Y-75500000D02*
X103960000Y-73230000D01*
X103960000Y-73230000D02*
X102440000Y-73230000D01*
X102440000Y-73230000D02*
X102440000Y-75500000D01*
X107160000Y-75500000D02*
X107160000Y-73230000D01*
X107160000Y-73230000D02*
X105640000Y-73230000D01*
X105640000Y-73230000D02*
X105640000Y-75500000D01*
X104040000Y-73230000D02*
X104040000Y-75500000D01*
X105560000Y-73230000D02*
X104040000Y-73230000D01*
X105560000Y-75500000D02*
X105560000Y-73230000D01*
X98662500Y-67200000D02*
X98662500Y-67650000D01*
X96812500Y-67200000D02*
X98662500Y-67200000D01*
X94262500Y-75000000D02*
X94512500Y-75000000D01*
X94262500Y-67200000D02*
X94512500Y-67200000D01*
X96812500Y-75000000D02*
X98662500Y-75000000D01*
X98662500Y-75000000D02*
X98662500Y-74550000D01*
X99212500Y-69400000D02*
X99212500Y-69850000D01*
X99212500Y-69400000D02*
X98762500Y-69400000D01*
D10*
X109650000Y-72350000D02*
X109125000Y-72350000D01*
X105350000Y-68050000D02*
X105875000Y-68050000D01*
X105350000Y-72350000D02*
X105875000Y-72350000D01*
X109650000Y-68050000D02*
X109650000Y-68575000D01*
X105350000Y-68050000D02*
X105350000Y-68575000D01*
X105350000Y-72350000D02*
X105350000Y-71825000D01*
X109650000Y-72350000D02*
X109650000Y-71825000D01*
X118350000Y-72705000D02*
X118350000Y-72050000D01*
X112850000Y-72705000D02*
X112850000Y-71955000D01*
X112850000Y-66295000D02*
X112850000Y-67045000D01*
X118350000Y-66295000D02*
X118350000Y-67045000D01*
X118350000Y-72705000D02*
X112850000Y-72705000D01*
X118350000Y-66295000D02*
X112850000Y-66295000D01*
X118350000Y-72050000D02*
X120100000Y-72050000D01*
D11*
X118300000Y-65610000D02*
X117300000Y-65610000D01*
X118300000Y-63790000D02*
X117300000Y-63790000D01*
X130360000Y-66040000D02*
X124390000Y-66040000D01*
X124390000Y-66040000D02*
X124390000Y-76160000D01*
X124390000Y-76160000D02*
X130360000Y-76160000D01*
X130360000Y-76160000D02*
X130360000Y-66040000D01*
X130350000Y-69350000D02*
X129600000Y-69350000D01*
X129600000Y-69350000D02*
X129600000Y-72850000D01*
X129600000Y-72850000D02*
X130350000Y-72850000D01*
X130350000Y-72850000D02*
X130350000Y-69350000D01*
X130350000Y-66050000D02*
X129600000Y-66050000D01*
X129600000Y-66050000D02*
X129600000Y-67850000D01*
X129600000Y-67850000D02*
X130350000Y-67850000D01*
X130350000Y-67850000D02*
X130350000Y-66050000D01*
X130350000Y-74350000D02*
X129600000Y-74350000D01*
X129600000Y-74350000D02*
X129600000Y-76150000D01*
X129600000Y-76150000D02*
X130350000Y-76150000D01*
X130350000Y-76150000D02*
X130350000Y-74350000D01*
X128100000Y-66050000D02*
X128100000Y-66800000D01*
X128100000Y-66800000D02*
X125150000Y-66800000D01*
X125150000Y-66800000D02*
X125150000Y-71100000D01*
X128100000Y-76150000D02*
X128100000Y-75400000D01*
X128100000Y-75400000D02*
X125150000Y-75400000D01*
X125150000Y-75400000D02*
X125150000Y-71100000D01*
X130650000Y-67000000D02*
X130650000Y-65750000D01*
X130650000Y-65750000D02*
X129400000Y-65750000D01*
M02*
