M48
; DRILL file {KiCad (5.1.4-7-g8dd734fbd)} date Paz 01 Eyl 2019 10:21:28 +03
; FORMAT={-:-/ absolute / inch / decimal}
; #@! TF.CreationDate,2019-09-01T10:21:28+03:00
; #@! TF.GenerationSoftware,Kicad,Pcbnew,(5.1.4-7-g8dd734fbd)
; #@! TF.FileFunction,Plated,1,2,PTH
FMAT,2
INCH
T1C0.0157
T2C0.0236
T3C0.0335
T4C0.0374
%
G90
G05
T1
X3.7244Y-2.5276
X3.7244Y-2.5906
X3.9421Y-2.8256
X3.946Y-2.5208
X3.9713Y-2.7964
X3.9752Y-2.55
X4.0236Y-2.8307
X4.0394Y-2.7146
X4.0906Y-2.8425
X4.1102Y-2.6811
X4.1811Y-2.5236
X4.2795Y-2.626
X4.5118Y-2.5472
X4.8425Y-2.5906
T3
X3.8725Y-2.7008
X3.8725Y-2.8976
T4
X5.0354Y-2.7008
X5.0354Y-2.7992
X5.0354Y-2.8976
T2
G00X3.7525Y-2.6614
M15
G01X3.78Y-2.6614
M16
G05
G00X3.78Y-2.937
M15
G01X3.7525Y-2.937
M16
G05
T0
M30
