G04 #@! TF.GenerationSoftware,KiCad,Pcbnew,(5.1.4-7-g8dd734fbd)*
G04 #@! TF.CreationDate,2019-09-01T10:21:26+03:00*
G04 #@! TF.ProjectId,usb1wireadapter,75736231-7769-4726-9561-646170746572,rev?*
G04 #@! TF.SameCoordinates,Original*
G04 #@! TF.FileFunction,Legend,Bot*
G04 #@! TF.FilePolarity,Positive*
%FSLAX46Y46*%
G04 Gerber Fmt 4.6, Leading zero omitted, Abs format (unit mm)*
G04 Created by KiCad (PCBNEW (5.1.4-7-g8dd734fbd)) date 2019-09-01 10:21:26*
%MOMM*%
%LPD*%
G04 APERTURE LIST*
%ADD10C,0.300000*%
G04 APERTURE END LIST*
D10*
X120971428Y-70342857D02*
X120971428Y-71314285D01*
X120914285Y-71428571D01*
X120857142Y-71485714D01*
X120742857Y-71542857D01*
X120514285Y-71542857D01*
X120400000Y-71485714D01*
X120342857Y-71428571D01*
X120285714Y-71314285D01*
X120285714Y-70342857D01*
X119771428Y-71485714D02*
X119600000Y-71542857D01*
X119314285Y-71542857D01*
X119200000Y-71485714D01*
X119142857Y-71428571D01*
X119085714Y-71314285D01*
X119085714Y-71200000D01*
X119142857Y-71085714D01*
X119200000Y-71028571D01*
X119314285Y-70971428D01*
X119542857Y-70914285D01*
X119657142Y-70857142D01*
X119714285Y-70800000D01*
X119771428Y-70685714D01*
X119771428Y-70571428D01*
X119714285Y-70457142D01*
X119657142Y-70400000D01*
X119542857Y-70342857D01*
X119257142Y-70342857D01*
X119085714Y-70400000D01*
X118171428Y-70914285D02*
X118000000Y-70971428D01*
X117942857Y-71028571D01*
X117885714Y-71142857D01*
X117885714Y-71314285D01*
X117942857Y-71428571D01*
X118000000Y-71485714D01*
X118114285Y-71542857D01*
X118571428Y-71542857D01*
X118571428Y-70342857D01*
X118171428Y-70342857D01*
X118057142Y-70400000D01*
X118000000Y-70457142D01*
X117942857Y-70571428D01*
X117942857Y-70685714D01*
X118000000Y-70800000D01*
X118057142Y-70857142D01*
X118171428Y-70914285D01*
X118571428Y-70914285D01*
X115828571Y-71542857D02*
X116514285Y-71542857D01*
X116171428Y-71542857D02*
X116171428Y-70342857D01*
X116285714Y-70514285D01*
X116400000Y-70628571D01*
X116514285Y-70685714D01*
X115314285Y-71085714D02*
X114400000Y-71085714D01*
X113942857Y-70342857D02*
X113657142Y-71542857D01*
X113428571Y-70685714D01*
X113200000Y-71542857D01*
X112914285Y-70342857D01*
X112457142Y-71542857D02*
X112457142Y-70742857D01*
X112457142Y-70342857D02*
X112514285Y-70400000D01*
X112457142Y-70457142D01*
X112400000Y-70400000D01*
X112457142Y-70342857D01*
X112457142Y-70457142D01*
X111885714Y-71542857D02*
X111885714Y-70742857D01*
X111885714Y-70971428D02*
X111828571Y-70857142D01*
X111771428Y-70800000D01*
X111657142Y-70742857D01*
X111542857Y-70742857D01*
X110685714Y-71485714D02*
X110800000Y-71542857D01*
X111028571Y-71542857D01*
X111142857Y-71485714D01*
X111200000Y-71371428D01*
X111200000Y-70914285D01*
X111142857Y-70800000D01*
X111028571Y-70742857D01*
X110800000Y-70742857D01*
X110685714Y-70800000D01*
X110628571Y-70914285D01*
X110628571Y-71028571D01*
X111200000Y-71142857D01*
X109257142Y-71200000D02*
X108685714Y-71200000D01*
X109371428Y-71542857D02*
X108971428Y-70342857D01*
X108571428Y-71542857D01*
X107657142Y-71542857D02*
X107657142Y-70342857D01*
X107657142Y-71485714D02*
X107771428Y-71542857D01*
X108000000Y-71542857D01*
X108114285Y-71485714D01*
X108171428Y-71428571D01*
X108228571Y-71314285D01*
X108228571Y-70971428D01*
X108171428Y-70857142D01*
X108114285Y-70800000D01*
X108000000Y-70742857D01*
X107771428Y-70742857D01*
X107657142Y-70800000D01*
X106571428Y-71542857D02*
X106571428Y-70914285D01*
X106628571Y-70800000D01*
X106742857Y-70742857D01*
X106971428Y-70742857D01*
X107085714Y-70800000D01*
X106571428Y-71485714D02*
X106685714Y-71542857D01*
X106971428Y-71542857D01*
X107085714Y-71485714D01*
X107142857Y-71371428D01*
X107142857Y-71257142D01*
X107085714Y-71142857D01*
X106971428Y-71085714D01*
X106685714Y-71085714D01*
X106571428Y-71028571D01*
X106000000Y-70742857D02*
X106000000Y-71942857D01*
X106000000Y-70800000D02*
X105885714Y-70742857D01*
X105657142Y-70742857D01*
X105542857Y-70800000D01*
X105485714Y-70857142D01*
X105428571Y-70971428D01*
X105428571Y-71314285D01*
X105485714Y-71428571D01*
X105542857Y-71485714D01*
X105657142Y-71542857D01*
X105885714Y-71542857D01*
X106000000Y-71485714D01*
X105085714Y-70742857D02*
X104628571Y-70742857D01*
X104914285Y-70342857D02*
X104914285Y-71371428D01*
X104857142Y-71485714D01*
X104742857Y-71542857D01*
X104628571Y-71542857D01*
X103771428Y-71485714D02*
X103885714Y-71542857D01*
X104114285Y-71542857D01*
X104228571Y-71485714D01*
X104285714Y-71371428D01*
X104285714Y-70914285D01*
X104228571Y-70800000D01*
X104114285Y-70742857D01*
X103885714Y-70742857D01*
X103771428Y-70800000D01*
X103714285Y-70914285D01*
X103714285Y-71028571D01*
X104285714Y-71142857D01*
X103200000Y-71542857D02*
X103200000Y-70742857D01*
X103200000Y-70971428D02*
X103142857Y-70857142D01*
X103085714Y-70800000D01*
X102971428Y-70742857D01*
X102857142Y-70742857D01*
M02*
