G04 #@! TF.GenerationSoftware,KiCad,Pcbnew,(5.1.4-7-g8dd734fbd)*
G04 #@! TF.CreationDate,2019-09-01T10:21:26+03:00*
G04 #@! TF.ProjectId,usb1wireadapter,75736231-7769-4726-9561-646170746572,rev?*
G04 #@! TF.SameCoordinates,Original*
G04 #@! TF.FileFunction,Soldermask,Top*
G04 #@! TF.FilePolarity,Negative*
%FSLAX46Y46*%
G04 Gerber Fmt 4.6, Leading zero omitted, Abs format (unit mm)*
G04 Created by KiCad (PCBNEW (5.1.4-7-g8dd734fbd)) date 2019-09-01 10:21:26*
%MOMM*%
%LPD*%
G04 APERTURE LIST*
%ADD10C,0.100000*%
G04 APERTURE END LIST*
D10*
G36*
X103800000Y-79110000D02*
G01*
X102600000Y-79110000D01*
X102600000Y-78090000D01*
X103800000Y-78090000D01*
X103800000Y-79110000D01*
X103800000Y-79110000D01*
G37*
G36*
X105400000Y-79110000D02*
G01*
X104200000Y-79110000D01*
X104200000Y-78090000D01*
X105400000Y-78090000D01*
X105400000Y-79110000D01*
X105400000Y-79110000D01*
G37*
G36*
X107000000Y-79110000D02*
G01*
X105800000Y-79110000D01*
X105800000Y-78090000D01*
X107000000Y-78090000D01*
X107000000Y-79110000D01*
X107000000Y-79110000D01*
G37*
G36*
X117295000Y-77790000D02*
G01*
X116565000Y-77790000D01*
X116565000Y-76260000D01*
X117295000Y-76260000D01*
X117295000Y-77790000D01*
X117295000Y-77790000D01*
G37*
G36*
X118565000Y-77790000D02*
G01*
X117835000Y-77790000D01*
X117835000Y-76260000D01*
X118565000Y-76260000D01*
X118565000Y-77790000D01*
X118565000Y-77790000D01*
G37*
G36*
X119835000Y-77790000D02*
G01*
X119105000Y-77790000D01*
X119105000Y-76260000D01*
X119835000Y-76260000D01*
X119835000Y-77790000D01*
X119835000Y-77790000D01*
G37*
G36*
X123310000Y-77600000D02*
G01*
X122290000Y-77600000D01*
X122290000Y-76400000D01*
X123310000Y-76400000D01*
X123310000Y-77600000D01*
X123310000Y-77600000D01*
G37*
G36*
X121710000Y-77600000D02*
G01*
X120690000Y-77600000D01*
X120690000Y-76400000D01*
X121710000Y-76400000D01*
X121710000Y-77600000D01*
X121710000Y-77600000D01*
G37*
G36*
X103800000Y-77510000D02*
G01*
X102600000Y-77510000D01*
X102600000Y-76490000D01*
X103800000Y-76490000D01*
X103800000Y-77510000D01*
X103800000Y-77510000D01*
G37*
G36*
X107000000Y-77510000D02*
G01*
X105800000Y-77510000D01*
X105800000Y-76490000D01*
X107000000Y-76490000D01*
X107000000Y-77510000D01*
X107000000Y-77510000D01*
G37*
G36*
X105400000Y-77510000D02*
G01*
X104200000Y-77510000D01*
X104200000Y-76490000D01*
X105400000Y-76490000D01*
X105400000Y-77510000D01*
X105400000Y-77510000D01*
G37*
G36*
X109000000Y-76240000D02*
G01*
X107400000Y-76240000D01*
X107400000Y-74920000D01*
X109000000Y-74920000D01*
X109000000Y-76240000D01*
X109000000Y-76240000D01*
G37*
G36*
X103800000Y-76010000D02*
G01*
X102600000Y-76010000D01*
X102600000Y-74990000D01*
X103800000Y-74990000D01*
X103800000Y-76010000D01*
X103800000Y-76010000D01*
G37*
G36*
X105400000Y-76010000D02*
G01*
X104200000Y-76010000D01*
X104200000Y-74990000D01*
X105400000Y-74990000D01*
X105400000Y-76010000D01*
X105400000Y-76010000D01*
G37*
G36*
X107000000Y-76010000D02*
G01*
X105800000Y-76010000D01*
X105800000Y-74990000D01*
X107000000Y-74990000D01*
X107000000Y-76010000D01*
X107000000Y-76010000D01*
G37*
G36*
X96712500Y-74559479D02*
G01*
X96713101Y-74571714D01*
X96715887Y-74600000D01*
X96713101Y-74628286D01*
X96712500Y-74640521D01*
X96712500Y-74743289D01*
X96702435Y-74755553D01*
X96690884Y-74777164D01*
X96686762Y-74788684D01*
X96662345Y-74869175D01*
X96597345Y-74990781D01*
X96509870Y-75097370D01*
X96403281Y-75184845D01*
X96281675Y-75249845D01*
X96149724Y-75289872D01*
X96046890Y-75300000D01*
X95278110Y-75300000D01*
X95175276Y-75289872D01*
X95043325Y-75249845D01*
X94921719Y-75184845D01*
X94815130Y-75097370D01*
X94727655Y-74990781D01*
X94662655Y-74869175D01*
X94638243Y-74788699D01*
X94628871Y-74766075D01*
X94615258Y-74745701D01*
X94612500Y-74742943D01*
X94612500Y-74640521D01*
X94611899Y-74628286D01*
X94609113Y-74600000D01*
X94611899Y-74571714D01*
X94612500Y-74559479D01*
X94612500Y-73300000D01*
X96712500Y-73300000D01*
X96712500Y-74559479D01*
X96712500Y-74559479D01*
G37*
G36*
X117295000Y-74740000D02*
G01*
X116565000Y-74740000D01*
X116565000Y-73210000D01*
X117295000Y-73210000D01*
X117295000Y-74740000D01*
X117295000Y-74740000D01*
G37*
G36*
X119835000Y-74740000D02*
G01*
X119105000Y-74740000D01*
X119105000Y-73210000D01*
X119835000Y-73210000D01*
X119835000Y-74740000D01*
X119835000Y-74740000D01*
G37*
G36*
X118565000Y-74740000D02*
G01*
X117835000Y-74740000D01*
X117835000Y-73210000D01*
X118565000Y-73210000D01*
X118565000Y-74740000D01*
X118565000Y-74740000D01*
G37*
G36*
X128211232Y-72663746D02*
G01*
X128300770Y-72690907D01*
X128390309Y-72718068D01*
X128425000Y-72736611D01*
X128555345Y-72806282D01*
X128555347Y-72806283D01*
X128555346Y-72806283D01*
X128700002Y-72924998D01*
X128808073Y-73056684D01*
X128818718Y-73069655D01*
X128859780Y-73146477D01*
X128906932Y-73234691D01*
X128961254Y-73413769D01*
X128979596Y-73600000D01*
X128961254Y-73786231D01*
X128906932Y-73965309D01*
X128893315Y-73990784D01*
X128821091Y-74125906D01*
X128818717Y-74130346D01*
X128700002Y-74275002D01*
X128568316Y-74383073D01*
X128555345Y-74393718D01*
X128524883Y-74410000D01*
X128390309Y-74481932D01*
X128300770Y-74509093D01*
X128211232Y-74536254D01*
X128141448Y-74543127D01*
X128071666Y-74550000D01*
X127728334Y-74550000D01*
X127658552Y-74543127D01*
X127588768Y-74536254D01*
X127499230Y-74509093D01*
X127409691Y-74481932D01*
X127275117Y-74410000D01*
X127244655Y-74393718D01*
X127231685Y-74383073D01*
X127099998Y-74275002D01*
X126981283Y-74130346D01*
X126978910Y-74125906D01*
X126906685Y-73990784D01*
X126893068Y-73965309D01*
X126838746Y-73786231D01*
X126820404Y-73600000D01*
X126838746Y-73413769D01*
X126893068Y-73234691D01*
X126940220Y-73146477D01*
X126981282Y-73069655D01*
X126991927Y-73056684D01*
X127099998Y-72924998D01*
X127244654Y-72806283D01*
X127244653Y-72806283D01*
X127244655Y-72806282D01*
X127375000Y-72736611D01*
X127409691Y-72718068D01*
X127499230Y-72690907D01*
X127588768Y-72663746D01*
X127728334Y-72650000D01*
X128071666Y-72650000D01*
X128211232Y-72663746D01*
X128211232Y-72663746D01*
G37*
G36*
X122000000Y-74510000D02*
G01*
X120800000Y-74510000D01*
X120800000Y-73490000D01*
X122000000Y-73490000D01*
X122000000Y-74510000D01*
X122000000Y-74510000D01*
G37*
G36*
X109000000Y-74480000D02*
G01*
X107400000Y-74480000D01*
X107400000Y-73160000D01*
X109000000Y-73160000D01*
X109000000Y-74480000D01*
X109000000Y-74480000D01*
G37*
G36*
X98603144Y-67806704D02*
G01*
X98753283Y-67868893D01*
X98888406Y-67959180D01*
X99003320Y-68074094D01*
X99093607Y-68209217D01*
X99155796Y-68359356D01*
X99187500Y-68518743D01*
X99187500Y-68681257D01*
X99155796Y-68840644D01*
X99093607Y-68990783D01*
X99003320Y-69125906D01*
X98888406Y-69240820D01*
X98843137Y-69271068D01*
X98824195Y-69286613D01*
X98808650Y-69305555D01*
X98797099Y-69327166D01*
X98789986Y-69350615D01*
X98787584Y-69375001D01*
X98789986Y-69399387D01*
X98797099Y-69422836D01*
X98808650Y-69444447D01*
X98824195Y-69463389D01*
X98843137Y-69478934D01*
X98864748Y-69490485D01*
X98888197Y-69497598D01*
X98912583Y-69500000D01*
X99137500Y-69500000D01*
X99137500Y-72700000D01*
X98912583Y-72700000D01*
X98888197Y-72702402D01*
X98864748Y-72709515D01*
X98843137Y-72721066D01*
X98824195Y-72736611D01*
X98808650Y-72755553D01*
X98797099Y-72777164D01*
X98789986Y-72800613D01*
X98787584Y-72824999D01*
X98789986Y-72849385D01*
X98797099Y-72872834D01*
X98808650Y-72894445D01*
X98824195Y-72913387D01*
X98843137Y-72928932D01*
X98888406Y-72959180D01*
X99003320Y-73074094D01*
X99093607Y-73209217D01*
X99155796Y-73359356D01*
X99187500Y-73518743D01*
X99187500Y-73681257D01*
X99155796Y-73840644D01*
X99093607Y-73990783D01*
X99003320Y-74125906D01*
X98888406Y-74240820D01*
X98753283Y-74331107D01*
X98603144Y-74393296D01*
X98443757Y-74425000D01*
X98281243Y-74425000D01*
X98121856Y-74393296D01*
X97971717Y-74331107D01*
X97836594Y-74240820D01*
X97721680Y-74125906D01*
X97631393Y-73990783D01*
X97569204Y-73840644D01*
X97537500Y-73681257D01*
X97537500Y-73518743D01*
X97569204Y-73359356D01*
X97631393Y-73209217D01*
X97721680Y-73074094D01*
X97836594Y-72959180D01*
X97881863Y-72928932D01*
X97900805Y-72913387D01*
X97916350Y-72894445D01*
X97927901Y-72872834D01*
X97935014Y-72849385D01*
X97937416Y-72824999D01*
X97935014Y-72800613D01*
X97927901Y-72777164D01*
X97916350Y-72755553D01*
X97900805Y-72736611D01*
X97881863Y-72721066D01*
X97860252Y-72709515D01*
X97836803Y-72702402D01*
X97812417Y-72700000D01*
X97587500Y-72700000D01*
X97587500Y-69500000D01*
X97812417Y-69500000D01*
X97836803Y-69497598D01*
X97860252Y-69490485D01*
X97881863Y-69478934D01*
X97900805Y-69463389D01*
X97916350Y-69444447D01*
X97927901Y-69422836D01*
X97935014Y-69399387D01*
X97937416Y-69375001D01*
X97935014Y-69350615D01*
X97927901Y-69327166D01*
X97916350Y-69305555D01*
X97900805Y-69286613D01*
X97881863Y-69271068D01*
X97836594Y-69240820D01*
X97721680Y-69125906D01*
X97631393Y-68990783D01*
X97569204Y-68840644D01*
X97537500Y-68681257D01*
X97537500Y-68518743D01*
X97569204Y-68359356D01*
X97631393Y-68209217D01*
X97721680Y-68074094D01*
X97836594Y-67959180D01*
X97971717Y-67868893D01*
X98121856Y-67806704D01*
X98281243Y-67775000D01*
X98443757Y-67775000D01*
X98603144Y-67806704D01*
X98603144Y-67806704D01*
G37*
G36*
X103800000Y-74410000D02*
G01*
X102600000Y-74410000D01*
X102600000Y-73390000D01*
X103800000Y-73390000D01*
X103800000Y-74410000D01*
X103800000Y-74410000D01*
G37*
G36*
X107000000Y-74410000D02*
G01*
X105800000Y-74410000D01*
X105800000Y-73390000D01*
X107000000Y-73390000D01*
X107000000Y-74410000D01*
X107000000Y-74410000D01*
G37*
G36*
X105400000Y-74410000D02*
G01*
X104200000Y-74410000D01*
X104200000Y-73390000D01*
X105400000Y-73390000D01*
X105400000Y-74410000D01*
X105400000Y-74410000D01*
G37*
G36*
X96712500Y-72950000D02*
G01*
X94612500Y-72950000D01*
X94612500Y-71250000D01*
X96712500Y-71250000D01*
X96712500Y-72950000D01*
X96712500Y-72950000D01*
G37*
G36*
X122000000Y-72910000D02*
G01*
X120800000Y-72910000D01*
X120800000Y-71890000D01*
X122000000Y-71890000D01*
X122000000Y-72910000D01*
X122000000Y-72910000D01*
G37*
G36*
X109000000Y-68575001D02*
G01*
X109002402Y-68599387D01*
X109009515Y-68622836D01*
X109021066Y-68644447D01*
X109036611Y-68663389D01*
X109055553Y-68678934D01*
X109077164Y-68690485D01*
X109100613Y-68697598D01*
X109124999Y-68700000D01*
X109975000Y-68700000D01*
X109975000Y-71700000D01*
X109124999Y-71700000D01*
X109100613Y-71702402D01*
X109077164Y-71709515D01*
X109055553Y-71721066D01*
X109036611Y-71736611D01*
X109021066Y-71755553D01*
X109009515Y-71777164D01*
X109002402Y-71800613D01*
X109000000Y-71824999D01*
X109000000Y-72675000D01*
X106000000Y-72675000D01*
X106000000Y-71824999D01*
X105997598Y-71800613D01*
X105990485Y-71777164D01*
X105978934Y-71755553D01*
X105963389Y-71736611D01*
X105944447Y-71721066D01*
X105922836Y-71709515D01*
X105899387Y-71702402D01*
X105875001Y-71700000D01*
X105025000Y-71700000D01*
X105025000Y-68700000D01*
X105875001Y-68700000D01*
X105899387Y-68697598D01*
X105922836Y-68690485D01*
X105944447Y-68678934D01*
X105963389Y-68663389D01*
X105978934Y-68644447D01*
X105990485Y-68622836D01*
X105997598Y-68599387D01*
X106000000Y-68575001D01*
X106000000Y-67725000D01*
X109000000Y-67725000D01*
X109000000Y-68575001D01*
X109000000Y-68575001D01*
G37*
G36*
X128211232Y-70163746D02*
G01*
X128300770Y-70190907D01*
X128390309Y-70218068D01*
X128478523Y-70265220D01*
X128555345Y-70306282D01*
X128555347Y-70306283D01*
X128555346Y-70306283D01*
X128700002Y-70424998D01*
X128818717Y-70569654D01*
X128906932Y-70734691D01*
X128961254Y-70913769D01*
X128979596Y-71100000D01*
X128961254Y-71286231D01*
X128906932Y-71465309D01*
X128859780Y-71553523D01*
X128834938Y-71600000D01*
X128818717Y-71630346D01*
X128700002Y-71775002D01*
X128568316Y-71883073D01*
X128555345Y-71893718D01*
X128478523Y-71934780D01*
X128390309Y-71981932D01*
X128300770Y-72009093D01*
X128211232Y-72036254D01*
X128141448Y-72043127D01*
X128071666Y-72050000D01*
X127728334Y-72050000D01*
X127658552Y-72043127D01*
X127588768Y-72036254D01*
X127499230Y-72009093D01*
X127409691Y-71981932D01*
X127321477Y-71934780D01*
X127244655Y-71893718D01*
X127231684Y-71883073D01*
X127099998Y-71775002D01*
X126981283Y-71630346D01*
X126965063Y-71600000D01*
X126940220Y-71553523D01*
X126893068Y-71465309D01*
X126838746Y-71286231D01*
X126820404Y-71100000D01*
X126838746Y-70913769D01*
X126893068Y-70734691D01*
X126981283Y-70569654D01*
X127099998Y-70424998D01*
X127244654Y-70306283D01*
X127244653Y-70306283D01*
X127244655Y-70306282D01*
X127321477Y-70265220D01*
X127409691Y-70218068D01*
X127499230Y-70190907D01*
X127588768Y-70163746D01*
X127728334Y-70150000D01*
X128071666Y-70150000D01*
X128211232Y-70163746D01*
X128211232Y-70163746D01*
G37*
G36*
X112875000Y-71780000D02*
G01*
X110925000Y-71780000D01*
X110925000Y-71030000D01*
X112875000Y-71030000D01*
X112875000Y-71780000D01*
X112875000Y-71780000D01*
G37*
G36*
X120275000Y-71780000D02*
G01*
X118325000Y-71780000D01*
X118325000Y-71030000D01*
X120275000Y-71030000D01*
X120275000Y-71780000D01*
X120275000Y-71780000D01*
G37*
G36*
X102710000Y-71000000D02*
G01*
X101690000Y-71000000D01*
X101690000Y-69800000D01*
X102710000Y-69800000D01*
X102710000Y-71000000D01*
X102710000Y-71000000D01*
G37*
G36*
X104310000Y-71000000D02*
G01*
X103290000Y-71000000D01*
X103290000Y-69800000D01*
X104310000Y-69800000D01*
X104310000Y-71000000D01*
X104310000Y-71000000D01*
G37*
G36*
X96712500Y-70950000D02*
G01*
X94612500Y-70950000D01*
X94612500Y-69250000D01*
X96712500Y-69250000D01*
X96712500Y-70950000D01*
X96712500Y-70950000D01*
G37*
G36*
X121910000Y-70700000D02*
G01*
X120890000Y-70700000D01*
X120890000Y-69500000D01*
X121910000Y-69500000D01*
X121910000Y-70700000D01*
X121910000Y-70700000D01*
G37*
G36*
X123510000Y-70700000D02*
G01*
X122490000Y-70700000D01*
X122490000Y-69500000D01*
X123510000Y-69500000D01*
X123510000Y-70700000D01*
X123510000Y-70700000D01*
G37*
G36*
X120275000Y-70510000D02*
G01*
X118325000Y-70510000D01*
X118325000Y-69760000D01*
X120275000Y-69760000D01*
X120275000Y-70510000D01*
X120275000Y-70510000D01*
G37*
G36*
X112875000Y-70510000D02*
G01*
X110925000Y-70510000D01*
X110925000Y-69760000D01*
X112875000Y-69760000D01*
X112875000Y-70510000D01*
X112875000Y-70510000D01*
G37*
G36*
X128975000Y-69550000D02*
G01*
X126825000Y-69550000D01*
X126825000Y-67650000D01*
X128975000Y-67650000D01*
X128975000Y-69550000D01*
X128975000Y-69550000D01*
G37*
G36*
X112875000Y-69240000D02*
G01*
X110925000Y-69240000D01*
X110925000Y-68490000D01*
X112875000Y-68490000D01*
X112875000Y-69240000D01*
X112875000Y-69240000D01*
G37*
G36*
X120275000Y-69240000D02*
G01*
X118325000Y-69240000D01*
X118325000Y-68490000D01*
X120275000Y-68490000D01*
X120275000Y-69240000D01*
X120275000Y-69240000D01*
G37*
G36*
X96149724Y-66910128D02*
G01*
X96281675Y-66950155D01*
X96403281Y-67015155D01*
X96509870Y-67102630D01*
X96597345Y-67209219D01*
X96662345Y-67330825D01*
X96686757Y-67411301D01*
X96696129Y-67433925D01*
X96709742Y-67454299D01*
X96712500Y-67457057D01*
X96712500Y-67559479D01*
X96713101Y-67571714D01*
X96715887Y-67600000D01*
X96713101Y-67628286D01*
X96712500Y-67640521D01*
X96712500Y-68900000D01*
X94612500Y-68900000D01*
X94612500Y-67640521D01*
X94611899Y-67628286D01*
X94609113Y-67600000D01*
X94611899Y-67571714D01*
X94612500Y-67559479D01*
X94612500Y-67456711D01*
X94622565Y-67444447D01*
X94634116Y-67422836D01*
X94638238Y-67411316D01*
X94662655Y-67330825D01*
X94727655Y-67209219D01*
X94815130Y-67102630D01*
X94921719Y-67015155D01*
X95043325Y-66950155D01*
X95175276Y-66910128D01*
X95278110Y-66900000D01*
X96046890Y-66900000D01*
X96149724Y-66910128D01*
X96149724Y-66910128D01*
G37*
G36*
X121910000Y-68200000D02*
G01*
X120890000Y-68200000D01*
X120890000Y-67000000D01*
X121910000Y-67000000D01*
X121910000Y-68200000D01*
X121910000Y-68200000D01*
G37*
G36*
X123510000Y-68200000D02*
G01*
X122490000Y-68200000D01*
X122490000Y-67000000D01*
X123510000Y-67000000D01*
X123510000Y-68200000D01*
X123510000Y-68200000D01*
G37*
G36*
X120275000Y-67970000D02*
G01*
X118325000Y-67970000D01*
X118325000Y-67220000D01*
X120275000Y-67220000D01*
X120275000Y-67970000D01*
X120275000Y-67970000D01*
G37*
G36*
X112875000Y-67970000D02*
G01*
X110925000Y-67970000D01*
X110925000Y-67220000D01*
X112875000Y-67220000D01*
X112875000Y-67970000D01*
X112875000Y-67970000D01*
G37*
G36*
X105200000Y-67340000D02*
G01*
X103600000Y-67340000D01*
X103600000Y-66020000D01*
X105200000Y-66020000D01*
X105200000Y-67340000D01*
X105200000Y-67340000D01*
G37*
G36*
X103200000Y-67310000D02*
G01*
X102000000Y-67310000D01*
X102000000Y-66290000D01*
X103200000Y-66290000D01*
X103200000Y-67310000D01*
X103200000Y-67310000D01*
G37*
G36*
X106800000Y-67310000D02*
G01*
X105600000Y-67310000D01*
X105600000Y-66290000D01*
X106800000Y-66290000D01*
X106800000Y-67310000D01*
X106800000Y-67310000D01*
G37*
G36*
X99200000Y-66450000D02*
G01*
X97600000Y-66450000D01*
X97600000Y-65250000D01*
X99200000Y-65250000D01*
X99200000Y-66450000D01*
X99200000Y-66450000D01*
G37*
G36*
X97000000Y-66450000D02*
G01*
X95400000Y-66450000D01*
X95400000Y-65250000D01*
X97000000Y-65250000D01*
X97000000Y-66450000D01*
X97000000Y-66450000D01*
G37*
G36*
X106800000Y-65710000D02*
G01*
X105600000Y-65710000D01*
X105600000Y-64690000D01*
X106800000Y-64690000D01*
X106800000Y-65710000D01*
X106800000Y-65710000D01*
G37*
G36*
X103200000Y-65710000D02*
G01*
X102000000Y-65710000D01*
X102000000Y-64690000D01*
X103200000Y-64690000D01*
X103200000Y-65710000D01*
X103200000Y-65710000D01*
G37*
G36*
X119940000Y-65700000D02*
G01*
X118520000Y-65700000D01*
X118520000Y-63700000D01*
X119940000Y-63700000D01*
X119940000Y-65700000D01*
X119940000Y-65700000D01*
G37*
G36*
X117080000Y-65700000D02*
G01*
X115660000Y-65700000D01*
X115660000Y-63700000D01*
X117080000Y-63700000D01*
X117080000Y-65700000D01*
X117080000Y-65700000D01*
G37*
G36*
X105200000Y-65580000D02*
G01*
X103600000Y-65580000D01*
X103600000Y-64260000D01*
X105200000Y-64260000D01*
X105200000Y-65580000D01*
X105200000Y-65580000D01*
G37*
G36*
X97000000Y-64830000D02*
G01*
X95400000Y-64830000D01*
X95400000Y-63430000D01*
X97000000Y-63430000D01*
X97000000Y-64830000D01*
X97000000Y-64830000D01*
G37*
G36*
X99200000Y-64550000D02*
G01*
X97600000Y-64550000D01*
X97600000Y-63350000D01*
X99200000Y-63350000D01*
X99200000Y-64550000D01*
X99200000Y-64550000D01*
G37*
M02*
