G04 #@! TF.GenerationSoftware,KiCad,Pcbnew,(5.1.4-7-g8dd734fbd)*
G04 #@! TF.CreationDate,2019-09-01T10:21:26+03:00*
G04 #@! TF.ProjectId,usb1wireadapter,75736231-7769-4726-9561-646170746572,rev?*
G04 #@! TF.SameCoordinates,Original*
G04 #@! TF.FileFunction,Copper,L1,Top*
G04 #@! TF.FilePolarity,Positive*
%FSLAX46Y46*%
G04 Gerber Fmt 4.6, Leading zero omitted, Abs format (unit mm)*
G04 Created by KiCad (PCBNEW (5.1.4-7-g8dd734fbd)) date 2019-09-01 10:21:26*
%MOMM*%
%LPD*%
G04 APERTURE LIST*
%ADD10R,0.530000X1.330000*%
%ADD11R,1.400000X1.120000*%
%ADD12R,1.000000X0.820000*%
%ADD13R,0.820000X1.000000*%
%ADD14R,1.400000X1.200000*%
%ADD15R,1.400000X1.000000*%
%ADD16R,1.900000X1.500000*%
%ADD17C,1.450000*%
%ADD18R,1.350000X0.400000*%
%ADD19O,1.900000X1.200000*%
%ADD20R,1.900000X1.200000*%
%ADD21R,0.300000X0.850000*%
%ADD22R,0.850000X0.300000*%
%ADD23R,2.600000X2.600000*%
%ADD24R,1.750000X0.550000*%
%ADD25R,1.220000X1.800000*%
%ADD26R,1.950000X1.700000*%
%ADD27O,1.950000X1.700000*%
%ADD28C,0.800000*%
%ADD29C,0.250000*%
%ADD30C,0.400000*%
%ADD31C,0.550000*%
%ADD32C,0.200000*%
%ADD33C,0.254000*%
G04 APERTURE END LIST*
D10*
X116930000Y-77025000D03*
X118200000Y-77025000D03*
X119470000Y-77025000D03*
X116930000Y-73975000D03*
X118200000Y-73975000D03*
X119470000Y-73975000D03*
D11*
X108200000Y-73820000D03*
X108200000Y-75580000D03*
X104400000Y-66680000D03*
X104400000Y-64920000D03*
D12*
X106200000Y-65200000D03*
X106200000Y-66800000D03*
D13*
X123000000Y-67600000D03*
X121400000Y-67600000D03*
X123000000Y-70100000D03*
X121400000Y-70100000D03*
D14*
X96200000Y-64130000D03*
D15*
X96200000Y-65850000D03*
X98400000Y-65850000D03*
X98400000Y-63950000D03*
D12*
X103200000Y-73900000D03*
X103200000Y-75500000D03*
X106400000Y-73900000D03*
X106400000Y-75500000D03*
X104800000Y-75500000D03*
X104800000Y-73900000D03*
D16*
X95662500Y-72100000D03*
D17*
X98362500Y-68600000D03*
D18*
X98362500Y-70450000D03*
X98362500Y-69800000D03*
X98362500Y-72400000D03*
X98362500Y-71750000D03*
X98362500Y-71100000D03*
D17*
X98362500Y-73600000D03*
D16*
X95662500Y-70100000D03*
D19*
X95662500Y-67600000D03*
X95662500Y-74600000D03*
D20*
X95662500Y-74000000D03*
X95662500Y-68200000D03*
D13*
X103800000Y-70400000D03*
X102200000Y-70400000D03*
D12*
X103200000Y-77000000D03*
X103200000Y-78600000D03*
X106400000Y-78600000D03*
X106400000Y-77000000D03*
X104800000Y-77000000D03*
X104800000Y-78600000D03*
X121400000Y-74000000D03*
X121400000Y-72400000D03*
D13*
X122800000Y-77000000D03*
X121200000Y-77000000D03*
D21*
X108750000Y-68250000D03*
X108250000Y-68250000D03*
X107750000Y-68250000D03*
X107250000Y-68250000D03*
X106750000Y-68250000D03*
X106250000Y-68250000D03*
D22*
X105550000Y-68950000D03*
X105550000Y-69450000D03*
X105550000Y-69950000D03*
X105550000Y-70450000D03*
X105550000Y-70950000D03*
X105550000Y-71450000D03*
D21*
X106250000Y-72150000D03*
X106750000Y-72150000D03*
X107250000Y-72150000D03*
X107750000Y-72150000D03*
X108250000Y-72150000D03*
X108750000Y-72150000D03*
D22*
X109450000Y-71450000D03*
X109450000Y-70950000D03*
X109450000Y-70450000D03*
X109450000Y-69950000D03*
X109450000Y-69450000D03*
X109450000Y-68950000D03*
D23*
X107500000Y-70200000D03*
D24*
X119300000Y-71405000D03*
X119300000Y-70135000D03*
X119300000Y-68865000D03*
X119300000Y-67595000D03*
X111900000Y-67595000D03*
X111900000Y-68865000D03*
X111900000Y-70135000D03*
X111900000Y-71405000D03*
D12*
X102600000Y-66800000D03*
X102600000Y-65200000D03*
D25*
X119230000Y-64700000D03*
X116370000Y-64700000D03*
D26*
X127900000Y-68600000D03*
D27*
X127900000Y-71100000D03*
X127900000Y-73600000D03*
D28*
X102600000Y-68950000D03*
X114599992Y-64700000D03*
X94600000Y-65800000D03*
X103900000Y-72200000D03*
X108700000Y-66700000D03*
X123000000Y-65800000D03*
X94600000Y-64200000D03*
X106200000Y-64100000D03*
X104400000Y-68100000D03*
X102200000Y-71900000D03*
X100228768Y-64028768D03*
X100128768Y-71771232D03*
X100971232Y-64771232D03*
X100871232Y-71028768D03*
D29*
X105550000Y-68950000D02*
X105550000Y-69450000D01*
D30*
X102600000Y-68950000D02*
X104800000Y-68950000D01*
X102600000Y-68950000D02*
X102600000Y-66800000D01*
D29*
X104800000Y-68950000D02*
X105550000Y-68950000D01*
D30*
X116370000Y-64700000D02*
X114599992Y-64700000D01*
X96150000Y-65800000D02*
X96200000Y-65850000D01*
X94600000Y-65800000D02*
X96150000Y-65800000D01*
X100300000Y-69800000D02*
X98362500Y-69800000D01*
X102600000Y-68950000D02*
X101150000Y-68950000D01*
X101150000Y-68950000D02*
X100300000Y-69800000D01*
D29*
X108250000Y-69450000D02*
X107500000Y-70200000D01*
X108250000Y-68250000D02*
X108250000Y-69450000D01*
X118200000Y-73100000D02*
X118200000Y-73975000D01*
X119300000Y-72000000D02*
X118200000Y-73100000D01*
X119300000Y-71405000D02*
X119300000Y-72000000D01*
X105220000Y-64920000D02*
X104400000Y-64920000D01*
X105500000Y-65200000D02*
X105220000Y-64920000D01*
X106200000Y-65200000D02*
X105500000Y-65200000D01*
X103580000Y-64920000D02*
X104400000Y-64920000D01*
X103300000Y-65200000D02*
X103580000Y-64920000D01*
X102600000Y-65200000D02*
X103300000Y-65200000D01*
X97300000Y-73600000D02*
X98362500Y-73600000D01*
X96900000Y-74000000D02*
X97300000Y-73600000D01*
X95662500Y-74000000D02*
X96900000Y-74000000D01*
X103200000Y-72900000D02*
X103900000Y-72200000D01*
X108250000Y-67150000D02*
X108700000Y-66700000D01*
X108250000Y-68250000D02*
X108250000Y-67150000D01*
X123000000Y-67600000D02*
X123000000Y-65800000D01*
X123000000Y-67600000D02*
X123000000Y-70100000D01*
X98362500Y-72400000D02*
X98362500Y-73600000D01*
X95662500Y-74000000D02*
X95662500Y-74600000D01*
X103200000Y-72900000D02*
X103200000Y-73900000D01*
X95662500Y-68200000D02*
X95662500Y-67600000D01*
X95662500Y-68200000D02*
X95662500Y-70100000D01*
X95662500Y-70100000D02*
X95662500Y-72100000D01*
X95662500Y-72100000D02*
X95662500Y-74000000D01*
X97300000Y-68600000D02*
X98362500Y-68600000D01*
X96900000Y-68200000D02*
X97300000Y-68600000D01*
X95662500Y-68200000D02*
X96900000Y-68200000D01*
X117510000Y-75580000D02*
X108200000Y-75580000D01*
X118200000Y-74890000D02*
X117510000Y-75580000D01*
X118200000Y-73975000D02*
X118200000Y-74890000D01*
X95662500Y-77862500D02*
X95662500Y-74600000D01*
X108200000Y-75580000D02*
X108200000Y-79000000D01*
X108200000Y-79000000D02*
X107600000Y-79600000D01*
X107600000Y-79600000D02*
X97400000Y-79600000D01*
X97400000Y-79600000D02*
X95662500Y-77862500D01*
X96200000Y-64130000D02*
X94670000Y-64130000D01*
X94670000Y-64130000D02*
X94600000Y-64200000D01*
X93874999Y-64925001D02*
X93874999Y-67274999D01*
X94600000Y-64200000D02*
X93874999Y-64925001D01*
X94200000Y-67600000D02*
X95662500Y-67600000D01*
X93874999Y-67274999D02*
X94200000Y-67600000D01*
X101850000Y-65200000D02*
X102600000Y-65200000D01*
X101305000Y-66995000D02*
X101305000Y-65745000D01*
X98362500Y-68600000D02*
X99700000Y-68600000D01*
X101305000Y-65745000D02*
X101850000Y-65200000D01*
X99700000Y-68600000D02*
X101305000Y-66995000D01*
X106200000Y-65200000D02*
X106200000Y-64100000D01*
X106250000Y-68250000D02*
X106750000Y-68250000D01*
D30*
X106250000Y-66850000D02*
X106200000Y-66800000D01*
X104520000Y-66800000D02*
X104400000Y-66680000D01*
X106200000Y-66800000D02*
X104520000Y-66800000D01*
D29*
X106250000Y-68250000D02*
X106250000Y-67500000D01*
D30*
X106250000Y-67500000D02*
X106250000Y-66850000D01*
X104400000Y-66680000D02*
X104400000Y-68100000D01*
X106400000Y-78600000D02*
X104800000Y-78600000D01*
X104800000Y-78600000D02*
X103200000Y-78600000D01*
X102200000Y-70400000D02*
X102200000Y-71900000D01*
X102200000Y-72600000D02*
X102200000Y-71900000D01*
X103200000Y-78600000D02*
X102500000Y-78600000D01*
X102500000Y-78600000D02*
X102000000Y-78100000D01*
X102000000Y-78100000D02*
X102000000Y-72800000D01*
X102000000Y-72800000D02*
X102200000Y-72600000D01*
D31*
X111900000Y-67595000D02*
X111900000Y-68865000D01*
X119295000Y-67600000D02*
X119300000Y-67595000D01*
X111905000Y-67600000D02*
X119295000Y-67600000D01*
X111900000Y-67595000D02*
X111905000Y-67600000D01*
X119305000Y-67600000D02*
X121400000Y-67600000D01*
X119300000Y-67595000D02*
X119305000Y-67600000D01*
X119300000Y-64770000D02*
X119230000Y-64700000D01*
X119300000Y-67595000D02*
X119300000Y-64770000D01*
X127900000Y-67600000D02*
X127900000Y-68600000D01*
X125000000Y-64700000D02*
X127900000Y-67600000D01*
X119230000Y-64700000D02*
X125000000Y-64700000D01*
D29*
X107750000Y-72750000D02*
X107750000Y-72150000D01*
X108200000Y-73200000D02*
X107750000Y-72750000D01*
X108200000Y-73820000D02*
X108200000Y-73200000D01*
X106400000Y-73100000D02*
X106400000Y-73900000D01*
X106400000Y-73100000D02*
X106750000Y-72750000D01*
X106750000Y-72750000D02*
X106750000Y-72150000D01*
X104800000Y-72800000D02*
X104800000Y-73900000D01*
X105450000Y-72150000D02*
X104800000Y-72800000D01*
X106250000Y-72150000D02*
X105450000Y-72150000D01*
X110350000Y-70950000D02*
X109450000Y-70950000D01*
X110805000Y-71405000D02*
X110350000Y-70950000D01*
X111900000Y-71405000D02*
X110805000Y-71405000D01*
X110350000Y-70450000D02*
X109450000Y-70450000D01*
X110665000Y-70135000D02*
X110350000Y-70450000D01*
X111900000Y-70135000D02*
X110665000Y-70135000D01*
X103200000Y-75500000D02*
X103200000Y-77000000D01*
X104800000Y-75500000D02*
X104800000Y-77000000D01*
X106400000Y-75500000D02*
X106400000Y-77000000D01*
X121365000Y-70135000D02*
X121400000Y-70100000D01*
X119300000Y-70135000D02*
X121365000Y-70135000D01*
X121400000Y-70100000D02*
X121400000Y-72400000D01*
D31*
X126500000Y-71100000D02*
X127900000Y-71100000D01*
X124400000Y-77000000D02*
X125400000Y-76000000D01*
X122800000Y-77000000D02*
X124400000Y-77000000D01*
X125400000Y-76000000D02*
X125400000Y-72200000D01*
X125400000Y-72200000D02*
X126500000Y-71100000D01*
X127900000Y-76500000D02*
X127900000Y-73600000D01*
X118200000Y-77025000D02*
X118200000Y-78000000D01*
X118200000Y-78000000D02*
X118900000Y-78700000D01*
X118900000Y-78700000D02*
X125700000Y-78700000D01*
X125700000Y-78700000D02*
X127900000Y-76500000D01*
D29*
X104850000Y-69950000D02*
X105550000Y-69950000D01*
X104400000Y-70400000D02*
X104850000Y-69950000D01*
X103800000Y-70400000D02*
X104400000Y-70400000D01*
X119495000Y-74000000D02*
X119470000Y-73975000D01*
X121400000Y-74000000D02*
X119495000Y-74000000D01*
D31*
X121175000Y-77025000D02*
X121200000Y-77000000D01*
X119470000Y-77025000D02*
X121175000Y-77025000D01*
D29*
X108750000Y-72150000D02*
X109150000Y-72150000D01*
X109450000Y-71850000D02*
X109450000Y-71450000D01*
X109150000Y-72150000D02*
X109450000Y-71850000D01*
X109450000Y-68950000D02*
X109450000Y-69450000D01*
X109450000Y-69450000D02*
X109450000Y-69950000D01*
D32*
X100228768Y-64453033D02*
X100228768Y-64028768D01*
X99325000Y-64675000D02*
X100006801Y-64675000D01*
X98400000Y-63950000D02*
X98600000Y-63950000D01*
X98600000Y-63950000D02*
X99325000Y-64675000D01*
X100006801Y-64675000D02*
X100228768Y-64453033D01*
X100128768Y-71346967D02*
X100128768Y-71771232D01*
X98362500Y-71100000D02*
X99375001Y-71100000D01*
X99375001Y-71100000D02*
X99475001Y-71000000D01*
X99475001Y-71000000D02*
X99781801Y-71000000D01*
X99781801Y-71000000D02*
X100128768Y-71346967D01*
X107725000Y-67587499D02*
X107725000Y-63906800D01*
X107750000Y-68250000D02*
X107750000Y-67612499D01*
X107750000Y-67612499D02*
X107725000Y-67587499D01*
X107725000Y-63906800D02*
X106693200Y-62875000D01*
X100653033Y-64028768D02*
X100228768Y-64028768D01*
X106693200Y-62875000D02*
X101806801Y-62875000D01*
X101806801Y-62875000D02*
X100653033Y-64028768D01*
X98550000Y-65600000D02*
X98750000Y-65600000D01*
X100546967Y-64771232D02*
X100971232Y-64771232D01*
X100193199Y-65125000D02*
X100546967Y-64771232D01*
X99325000Y-65125000D02*
X100193199Y-65125000D01*
X98600000Y-65850000D02*
X99325000Y-65125000D01*
X98400000Y-65850000D02*
X98600000Y-65850000D01*
X99475001Y-70550000D02*
X99968199Y-70550000D01*
X99375001Y-70450000D02*
X99475001Y-70550000D01*
X99968199Y-70550000D02*
X100446967Y-71028768D01*
X98362500Y-70450000D02*
X99375001Y-70450000D01*
X100446967Y-71028768D02*
X100871232Y-71028768D01*
X107250000Y-67612499D02*
X107275000Y-67587499D01*
X107250000Y-68250000D02*
X107250000Y-67612499D01*
X107275000Y-67587499D02*
X107275000Y-64093200D01*
X107275000Y-64093200D02*
X106506800Y-63325000D01*
X101993199Y-63325000D02*
X100971232Y-64346967D01*
X106506800Y-63325000D02*
X101993199Y-63325000D01*
X100971232Y-64346967D02*
X100971232Y-64771232D01*
D33*
G36*
X130398001Y-79798000D02*
G01*
X93702000Y-79798000D01*
X93702000Y-73400000D01*
X94457271Y-73400000D01*
X94458500Y-73809500D01*
X94522000Y-73873000D01*
X94850313Y-73873000D01*
X94732447Y-73960483D01*
X94618829Y-74085934D01*
X94594235Y-74127000D01*
X94522000Y-74127000D01*
X94458500Y-74190500D01*
X94457271Y-74600000D01*
X94458500Y-74612479D01*
X94458500Y-74727002D01*
X94492376Y-74727002D01*
X94500285Y-74741798D01*
X94521636Y-74767814D01*
X94498260Y-74857546D01*
X94531868Y-74968860D01*
X94618829Y-75114066D01*
X94732447Y-75239517D01*
X94868356Y-75340392D01*
X95021333Y-75412814D01*
X95185500Y-75454000D01*
X95535500Y-75454000D01*
X95535500Y-73209500D01*
X95789500Y-73209500D01*
X95789500Y-75454000D01*
X96139500Y-75454000D01*
X96303667Y-75412814D01*
X96456644Y-75340392D01*
X96592553Y-75239517D01*
X96706171Y-75114066D01*
X96793132Y-74968860D01*
X96826740Y-74857546D01*
X96803364Y-74767814D01*
X96824715Y-74741798D01*
X96832624Y-74727002D01*
X96866500Y-74727002D01*
X96866500Y-74612479D01*
X96867729Y-74600000D01*
X96866932Y-74334282D01*
X97807824Y-74334282D01*
X97891858Y-74463849D01*
X98069429Y-74539068D01*
X98258263Y-74578200D01*
X98451103Y-74579739D01*
X98640538Y-74543628D01*
X98819288Y-74471253D01*
X98833142Y-74463849D01*
X98917176Y-74334282D01*
X98362500Y-73779605D01*
X97807824Y-74334282D01*
X96866932Y-74334282D01*
X96866500Y-74190500D01*
X96803000Y-74127000D01*
X96730765Y-74127000D01*
X96706171Y-74085934D01*
X96592553Y-73960483D01*
X96474687Y-73873000D01*
X96803000Y-73873000D01*
X96866500Y-73809500D01*
X96866862Y-73688603D01*
X97382761Y-73688603D01*
X97418872Y-73878038D01*
X97491247Y-74056788D01*
X97498651Y-74070642D01*
X97628218Y-74154676D01*
X98182895Y-73600000D01*
X98542105Y-73600000D01*
X99096782Y-74154676D01*
X99226349Y-74070642D01*
X99301568Y-73893071D01*
X99340700Y-73704237D01*
X99342239Y-73511397D01*
X99306128Y-73321962D01*
X99233753Y-73143212D01*
X99226349Y-73129358D01*
X99096782Y-73045324D01*
X98542105Y-73600000D01*
X98182895Y-73600000D01*
X97628218Y-73045324D01*
X97498651Y-73129358D01*
X97423432Y-73306929D01*
X97384300Y-73495763D01*
X97382761Y-73688603D01*
X96866862Y-73688603D01*
X96867729Y-73400000D01*
X96862825Y-73350207D01*
X96848301Y-73302328D01*
X96824715Y-73258202D01*
X96792974Y-73219526D01*
X96754298Y-73187785D01*
X96710172Y-73164199D01*
X96662293Y-73149675D01*
X96612500Y-73144771D01*
X95853000Y-73146000D01*
X95789500Y-73209500D01*
X95535500Y-73209500D01*
X95472000Y-73146000D01*
X94712500Y-73144771D01*
X94662707Y-73149675D01*
X94614828Y-73164199D01*
X94570702Y-73187785D01*
X94532026Y-73219526D01*
X94500285Y-73258202D01*
X94476699Y-73302328D01*
X94462175Y-73350207D01*
X94457271Y-73400000D01*
X93702000Y-73400000D01*
X93702000Y-72850000D01*
X94457271Y-72850000D01*
X94462175Y-72899793D01*
X94476699Y-72947672D01*
X94500285Y-72991798D01*
X94532026Y-73030474D01*
X94570702Y-73062215D01*
X94614828Y-73085801D01*
X94662707Y-73100325D01*
X94712500Y-73105229D01*
X95472000Y-73104000D01*
X95535500Y-73040500D01*
X95535500Y-72227000D01*
X95789500Y-72227000D01*
X95789500Y-73040500D01*
X95853000Y-73104000D01*
X96612500Y-73105229D01*
X96662293Y-73100325D01*
X96710172Y-73085801D01*
X96754298Y-73062215D01*
X96792974Y-73030474D01*
X96824715Y-72991798D01*
X96848301Y-72947672D01*
X96862825Y-72899793D01*
X96867729Y-72850000D01*
X96867180Y-72600000D01*
X97432271Y-72600000D01*
X97437175Y-72649793D01*
X97451699Y-72697672D01*
X97475285Y-72741798D01*
X97507026Y-72780474D01*
X97545702Y-72812215D01*
X97589828Y-72835801D01*
X97637707Y-72850325D01*
X97687500Y-72855229D01*
X97814836Y-72854906D01*
X97807824Y-72865718D01*
X98362500Y-73420395D01*
X98917176Y-72865718D01*
X98910164Y-72854906D01*
X99037500Y-72855229D01*
X99087293Y-72850325D01*
X99135172Y-72835801D01*
X99179298Y-72812215D01*
X99217974Y-72780474D01*
X99249715Y-72741798D01*
X99273301Y-72697672D01*
X99287825Y-72649793D01*
X99292729Y-72600000D01*
X99291500Y-72536500D01*
X99228000Y-72473000D01*
X98489500Y-72473000D01*
X98489500Y-72547000D01*
X98235500Y-72547000D01*
X98235500Y-72473000D01*
X97497000Y-72473000D01*
X97433500Y-72536500D01*
X97432271Y-72600000D01*
X96867180Y-72600000D01*
X96866500Y-72290500D01*
X96803000Y-72227000D01*
X95789500Y-72227000D01*
X95535500Y-72227000D01*
X94522000Y-72227000D01*
X94458500Y-72290500D01*
X94457271Y-72850000D01*
X93702000Y-72850000D01*
X93702000Y-70850000D01*
X94457271Y-70850000D01*
X94462175Y-70899793D01*
X94476699Y-70947672D01*
X94500285Y-70991798D01*
X94532026Y-71030474D01*
X94570702Y-71062215D01*
X94614828Y-71085801D01*
X94661636Y-71100000D01*
X94614828Y-71114199D01*
X94570702Y-71137785D01*
X94532026Y-71169526D01*
X94500285Y-71208202D01*
X94476699Y-71252328D01*
X94462175Y-71300207D01*
X94457271Y-71350000D01*
X94458500Y-71909500D01*
X94522000Y-71973000D01*
X95535500Y-71973000D01*
X95535500Y-71159500D01*
X95476000Y-71100000D01*
X95535500Y-71040500D01*
X95535500Y-70227000D01*
X95789500Y-70227000D01*
X95789500Y-71040500D01*
X95849000Y-71100000D01*
X95789500Y-71159500D01*
X95789500Y-71973000D01*
X96803000Y-71973000D01*
X96866500Y-71909500D01*
X96867729Y-71350000D01*
X96862825Y-71300207D01*
X96848301Y-71252328D01*
X96824715Y-71208202D01*
X96792974Y-71169526D01*
X96754298Y-71137785D01*
X96710172Y-71114199D01*
X96663364Y-71100000D01*
X96710172Y-71085801D01*
X96754298Y-71062215D01*
X96792974Y-71030474D01*
X96824715Y-70991798D01*
X96848301Y-70947672D01*
X96862825Y-70899793D01*
X96867729Y-70850000D01*
X96866500Y-70290500D01*
X96803000Y-70227000D01*
X95789500Y-70227000D01*
X95535500Y-70227000D01*
X94522000Y-70227000D01*
X94458500Y-70290500D01*
X94457271Y-70850000D01*
X93702000Y-70850000D01*
X93702000Y-69350000D01*
X94457271Y-69350000D01*
X94458500Y-69909500D01*
X94522000Y-69973000D01*
X95535500Y-69973000D01*
X95535500Y-69159500D01*
X95789500Y-69159500D01*
X95789500Y-69973000D01*
X96803000Y-69973000D01*
X96866500Y-69909500D01*
X96867179Y-69600000D01*
X97358918Y-69600000D01*
X97358918Y-70000000D01*
X97365232Y-70064103D01*
X97383705Y-70125000D01*
X97365232Y-70185897D01*
X97358918Y-70250000D01*
X97358918Y-70650000D01*
X97365232Y-70714103D01*
X97383705Y-70775000D01*
X97365232Y-70835897D01*
X97358918Y-70900000D01*
X97358918Y-71300000D01*
X97365232Y-71364103D01*
X97383705Y-71425000D01*
X97365232Y-71485897D01*
X97358918Y-71550000D01*
X97358918Y-71950000D01*
X97365232Y-72014103D01*
X97383930Y-72075743D01*
X97414294Y-72132550D01*
X97436276Y-72159336D01*
X97432271Y-72200000D01*
X97433500Y-72263500D01*
X97497000Y-72327000D01*
X98235500Y-72327000D01*
X98235500Y-72278582D01*
X98489500Y-72278582D01*
X98489500Y-72327000D01*
X99228000Y-72327000D01*
X99291500Y-72263500D01*
X99292729Y-72200000D01*
X99288724Y-72159336D01*
X99310706Y-72132550D01*
X99341070Y-72075743D01*
X99359768Y-72014103D01*
X99366082Y-71950000D01*
X99366082Y-71550000D01*
X99363912Y-71527973D01*
X99375001Y-71529065D01*
X99395968Y-71527000D01*
X99395979Y-71527000D01*
X99445034Y-71522169D01*
X99429706Y-71559174D01*
X99401768Y-71699629D01*
X99401768Y-71842835D01*
X99429706Y-71983290D01*
X99484509Y-72115596D01*
X99564070Y-72234668D01*
X99665332Y-72335930D01*
X99784404Y-72415491D01*
X99916710Y-72470294D01*
X100057165Y-72498232D01*
X100200371Y-72498232D01*
X100340826Y-72470294D01*
X100473132Y-72415491D01*
X100592204Y-72335930D01*
X100693466Y-72234668D01*
X100773027Y-72115596D01*
X100827830Y-71983290D01*
X100855768Y-71842835D01*
X100855768Y-71755768D01*
X100942835Y-71755768D01*
X101083290Y-71727830D01*
X101215596Y-71673027D01*
X101334668Y-71593466D01*
X101435930Y-71492204D01*
X101515491Y-71373132D01*
X101570294Y-71240826D01*
X101587071Y-71156482D01*
X101607450Y-71173206D01*
X101664257Y-71203570D01*
X101673001Y-71206222D01*
X101673001Y-71398865D01*
X101635302Y-71436564D01*
X101555741Y-71555636D01*
X101500938Y-71687942D01*
X101473000Y-71828397D01*
X101473000Y-71971603D01*
X101500938Y-72112058D01*
X101555741Y-72244364D01*
X101635302Y-72363436D01*
X101663288Y-72391422D01*
X101645661Y-72409050D01*
X101625553Y-72425552D01*
X101586614Y-72473000D01*
X101559696Y-72505799D01*
X101510761Y-72597351D01*
X101480626Y-72696691D01*
X101470451Y-72800000D01*
X101473001Y-72825891D01*
X101473000Y-78074119D01*
X101470451Y-78100000D01*
X101473000Y-78125880D01*
X101480626Y-78203309D01*
X101510761Y-78302649D01*
X101559696Y-78394202D01*
X101625552Y-78474448D01*
X101645666Y-78490955D01*
X102109053Y-78954344D01*
X102125552Y-78974448D01*
X102205798Y-79040304D01*
X102297350Y-79089239D01*
X102390935Y-79117628D01*
X102396430Y-79135743D01*
X102426794Y-79192550D01*
X102467657Y-79242343D01*
X102517450Y-79283206D01*
X102574257Y-79313570D01*
X102635897Y-79332268D01*
X102700000Y-79338582D01*
X103700000Y-79338582D01*
X103764103Y-79332268D01*
X103825743Y-79313570D01*
X103882550Y-79283206D01*
X103932343Y-79242343D01*
X103973206Y-79192550D01*
X104000000Y-79142422D01*
X104026794Y-79192550D01*
X104067657Y-79242343D01*
X104117450Y-79283206D01*
X104174257Y-79313570D01*
X104235897Y-79332268D01*
X104300000Y-79338582D01*
X105300000Y-79338582D01*
X105364103Y-79332268D01*
X105425743Y-79313570D01*
X105482550Y-79283206D01*
X105532343Y-79242343D01*
X105573206Y-79192550D01*
X105600000Y-79142422D01*
X105626794Y-79192550D01*
X105667657Y-79242343D01*
X105717450Y-79283206D01*
X105774257Y-79313570D01*
X105835897Y-79332268D01*
X105900000Y-79338582D01*
X106900000Y-79338582D01*
X106964103Y-79332268D01*
X107025743Y-79313570D01*
X107082550Y-79283206D01*
X107132343Y-79242343D01*
X107173206Y-79192550D01*
X107203570Y-79135743D01*
X107222268Y-79074103D01*
X107228582Y-79010000D01*
X107228582Y-78190000D01*
X107222268Y-78125897D01*
X107203570Y-78064257D01*
X107173206Y-78007450D01*
X107132343Y-77957657D01*
X107082550Y-77916794D01*
X107025743Y-77886430D01*
X106964103Y-77867732D01*
X106900000Y-77861418D01*
X105900000Y-77861418D01*
X105835897Y-77867732D01*
X105774257Y-77886430D01*
X105717450Y-77916794D01*
X105667657Y-77957657D01*
X105626794Y-78007450D01*
X105600000Y-78057578D01*
X105573206Y-78007450D01*
X105532343Y-77957657D01*
X105482550Y-77916794D01*
X105425743Y-77886430D01*
X105364103Y-77867732D01*
X105300000Y-77861418D01*
X104300000Y-77861418D01*
X104235897Y-77867732D01*
X104174257Y-77886430D01*
X104117450Y-77916794D01*
X104067657Y-77957657D01*
X104026794Y-78007450D01*
X104000000Y-78057578D01*
X103973206Y-78007450D01*
X103932343Y-77957657D01*
X103882550Y-77916794D01*
X103825743Y-77886430D01*
X103764103Y-77867732D01*
X103700000Y-77861418D01*
X102700000Y-77861418D01*
X102635897Y-77867732D01*
X102574257Y-77886430D01*
X102546537Y-77901247D01*
X102527000Y-77881710D01*
X102527000Y-77688311D01*
X102574257Y-77713570D01*
X102635897Y-77732268D01*
X102700000Y-77738582D01*
X103700000Y-77738582D01*
X103764103Y-77732268D01*
X103825743Y-77713570D01*
X103882550Y-77683206D01*
X103932343Y-77642343D01*
X103973206Y-77592550D01*
X104000000Y-77542422D01*
X104026794Y-77592550D01*
X104067657Y-77642343D01*
X104117450Y-77683206D01*
X104174257Y-77713570D01*
X104235897Y-77732268D01*
X104300000Y-77738582D01*
X105300000Y-77738582D01*
X105364103Y-77732268D01*
X105425743Y-77713570D01*
X105482550Y-77683206D01*
X105532343Y-77642343D01*
X105573206Y-77592550D01*
X105600000Y-77542422D01*
X105626794Y-77592550D01*
X105667657Y-77642343D01*
X105717450Y-77683206D01*
X105774257Y-77713570D01*
X105835897Y-77732268D01*
X105900000Y-77738582D01*
X106900000Y-77738582D01*
X106964103Y-77732268D01*
X107025743Y-77713570D01*
X107082550Y-77683206D01*
X107132343Y-77642343D01*
X107173206Y-77592550D01*
X107203570Y-77535743D01*
X107222268Y-77474103D01*
X107228582Y-77410000D01*
X107228582Y-76590000D01*
X107222268Y-76525897D01*
X107203570Y-76464257D01*
X107173206Y-76407450D01*
X107132343Y-76357657D01*
X107082550Y-76316794D01*
X107025743Y-76286430D01*
X106964103Y-76267732D01*
X106900000Y-76261418D01*
X106852000Y-76261418D01*
X106852000Y-76238582D01*
X106900000Y-76238582D01*
X106964103Y-76232268D01*
X107025743Y-76213570D01*
X107082550Y-76183206D01*
X107132343Y-76142343D01*
X107134265Y-76140000D01*
X107244771Y-76140000D01*
X107249675Y-76189793D01*
X107264199Y-76237672D01*
X107287785Y-76281798D01*
X107319526Y-76320474D01*
X107358202Y-76352215D01*
X107402328Y-76375801D01*
X107450207Y-76390325D01*
X107500000Y-76395229D01*
X108009500Y-76394000D01*
X108073000Y-76330500D01*
X108073000Y-75707000D01*
X108327000Y-75707000D01*
X108327000Y-76330500D01*
X108390500Y-76394000D01*
X108900000Y-76395229D01*
X108949793Y-76390325D01*
X108997672Y-76375801D01*
X109027233Y-76360000D01*
X116336418Y-76360000D01*
X116336418Y-77690000D01*
X116342732Y-77754103D01*
X116361430Y-77815743D01*
X116391794Y-77872550D01*
X116432657Y-77922343D01*
X116482450Y-77963206D01*
X116539257Y-77993570D01*
X116600897Y-78012268D01*
X116665000Y-78018582D01*
X117195000Y-78018582D01*
X117259103Y-78012268D01*
X117299545Y-78000000D01*
X117595089Y-78000000D01*
X117606712Y-78118012D01*
X117641134Y-78231489D01*
X117675203Y-78295227D01*
X117697035Y-78336071D01*
X117772264Y-78427737D01*
X117795229Y-78446584D01*
X118453420Y-79104777D01*
X118472263Y-79127737D01*
X118495223Y-79146580D01*
X118495227Y-79146584D01*
X118550916Y-79192286D01*
X118563929Y-79202966D01*
X118668510Y-79258866D01*
X118781988Y-79293289D01*
X118870434Y-79302000D01*
X118870443Y-79302000D01*
X118899999Y-79304911D01*
X118929556Y-79302000D01*
X125670444Y-79302000D01*
X125700000Y-79304911D01*
X125729556Y-79302000D01*
X125729566Y-79302000D01*
X125818012Y-79293289D01*
X125931490Y-79258866D01*
X126036071Y-79202966D01*
X126127737Y-79127737D01*
X126146589Y-79104766D01*
X128304773Y-76946583D01*
X128327737Y-76927737D01*
X128402966Y-76836071D01*
X128458866Y-76731490D01*
X128493289Y-76618012D01*
X128502000Y-76529566D01*
X128502000Y-76529557D01*
X128504911Y-76500000D01*
X128502000Y-76470444D01*
X128502000Y-74679623D01*
X128682070Y-74583374D01*
X128861291Y-74436291D01*
X129008374Y-74257070D01*
X129117667Y-74052597D01*
X129184969Y-73830732D01*
X129207694Y-73600000D01*
X129184969Y-73369268D01*
X129117667Y-73147403D01*
X129008374Y-72942930D01*
X128861291Y-72763709D01*
X128682070Y-72616626D01*
X128477597Y-72507333D01*
X128255732Y-72440031D01*
X128082812Y-72423000D01*
X127717188Y-72423000D01*
X127544268Y-72440031D01*
X127322403Y-72507333D01*
X127117930Y-72616626D01*
X126938709Y-72763709D01*
X126791626Y-72942930D01*
X126682333Y-73147403D01*
X126615031Y-73369268D01*
X126592306Y-73600000D01*
X126615031Y-73830732D01*
X126682333Y-74052597D01*
X126791626Y-74257070D01*
X126938709Y-74436291D01*
X127117930Y-74583374D01*
X127298001Y-74679624D01*
X127298000Y-76250644D01*
X125450645Y-78098000D01*
X119149356Y-78098000D01*
X118978467Y-77927111D01*
X119022450Y-77963206D01*
X119079257Y-77993570D01*
X119140897Y-78012268D01*
X119205000Y-78018582D01*
X119735000Y-78018582D01*
X119799103Y-78012268D01*
X119860743Y-77993570D01*
X119917550Y-77963206D01*
X119967343Y-77922343D01*
X120008206Y-77872550D01*
X120038570Y-77815743D01*
X120057268Y-77754103D01*
X120063582Y-77690000D01*
X120063582Y-77627000D01*
X120487102Y-77627000D01*
X120516794Y-77682550D01*
X120557657Y-77732343D01*
X120607450Y-77773206D01*
X120664257Y-77803570D01*
X120725897Y-77822268D01*
X120790000Y-77828582D01*
X121610000Y-77828582D01*
X121674103Y-77822268D01*
X121735743Y-77803570D01*
X121792550Y-77773206D01*
X121842343Y-77732343D01*
X121883206Y-77682550D01*
X121913570Y-77625743D01*
X121932268Y-77564103D01*
X121938582Y-77500000D01*
X121938582Y-76500000D01*
X122061418Y-76500000D01*
X122061418Y-77500000D01*
X122067732Y-77564103D01*
X122086430Y-77625743D01*
X122116794Y-77682550D01*
X122157657Y-77732343D01*
X122207450Y-77773206D01*
X122264257Y-77803570D01*
X122325897Y-77822268D01*
X122390000Y-77828582D01*
X123210000Y-77828582D01*
X123274103Y-77822268D01*
X123335743Y-77803570D01*
X123392550Y-77773206D01*
X123442343Y-77732343D01*
X123483206Y-77682550D01*
X123513570Y-77625743D01*
X123520772Y-77602000D01*
X124370444Y-77602000D01*
X124400000Y-77604911D01*
X124429556Y-77602000D01*
X124429566Y-77602000D01*
X124518012Y-77593289D01*
X124631490Y-77558866D01*
X124736071Y-77502966D01*
X124827737Y-77427737D01*
X124846589Y-77404766D01*
X125804773Y-76446583D01*
X125827737Y-76427737D01*
X125854531Y-76395089D01*
X125902966Y-76336072D01*
X125958866Y-76231490D01*
X125993289Y-76118013D01*
X125995797Y-76092550D01*
X126002000Y-76029566D01*
X126002000Y-76029559D01*
X126004911Y-76000000D01*
X126002000Y-75970441D01*
X126002000Y-72449355D01*
X126749356Y-71702000D01*
X126762190Y-71702000D01*
X126791626Y-71757070D01*
X126938709Y-71936291D01*
X127117930Y-72083374D01*
X127322403Y-72192667D01*
X127544268Y-72259969D01*
X127717188Y-72277000D01*
X128082812Y-72277000D01*
X128255732Y-72259969D01*
X128477597Y-72192667D01*
X128682070Y-72083374D01*
X128861291Y-71936291D01*
X129008374Y-71757070D01*
X129117667Y-71552597D01*
X129184969Y-71330732D01*
X129207694Y-71100000D01*
X129184969Y-70869268D01*
X129117667Y-70647403D01*
X129008374Y-70442930D01*
X128861291Y-70263709D01*
X128682070Y-70116626D01*
X128477597Y-70007333D01*
X128255732Y-69940031D01*
X128082812Y-69923000D01*
X127717188Y-69923000D01*
X127544268Y-69940031D01*
X127322403Y-70007333D01*
X127117930Y-70116626D01*
X126938709Y-70263709D01*
X126791626Y-70442930D01*
X126762190Y-70498000D01*
X126529556Y-70498000D01*
X126500000Y-70495089D01*
X126470443Y-70498000D01*
X126470434Y-70498000D01*
X126381988Y-70506711D01*
X126268510Y-70541134D01*
X126163929Y-70597034D01*
X126072263Y-70672263D01*
X126053416Y-70695229D01*
X124995229Y-71753416D01*
X124972264Y-71772263D01*
X124953417Y-71795228D01*
X124953416Y-71795229D01*
X124897035Y-71863929D01*
X124841134Y-71968511D01*
X124806712Y-72081988D01*
X124795089Y-72200000D01*
X124798001Y-72229566D01*
X124798000Y-75750644D01*
X124150645Y-76398000D01*
X123520772Y-76398000D01*
X123513570Y-76374257D01*
X123483206Y-76317450D01*
X123442343Y-76267657D01*
X123392550Y-76226794D01*
X123335743Y-76196430D01*
X123274103Y-76177732D01*
X123210000Y-76171418D01*
X122390000Y-76171418D01*
X122325897Y-76177732D01*
X122264257Y-76196430D01*
X122207450Y-76226794D01*
X122157657Y-76267657D01*
X122116794Y-76317450D01*
X122086430Y-76374257D01*
X122067732Y-76435897D01*
X122061418Y-76500000D01*
X121938582Y-76500000D01*
X121932268Y-76435897D01*
X121913570Y-76374257D01*
X121883206Y-76317450D01*
X121842343Y-76267657D01*
X121792550Y-76226794D01*
X121735743Y-76196430D01*
X121674103Y-76177732D01*
X121610000Y-76171418D01*
X120790000Y-76171418D01*
X120725897Y-76177732D01*
X120664257Y-76196430D01*
X120607450Y-76226794D01*
X120557657Y-76267657D01*
X120516794Y-76317450D01*
X120486430Y-76374257D01*
X120471644Y-76423000D01*
X120063582Y-76423000D01*
X120063582Y-76360000D01*
X120057268Y-76295897D01*
X120038570Y-76234257D01*
X120008206Y-76177450D01*
X119967343Y-76127657D01*
X119917550Y-76086794D01*
X119860743Y-76056430D01*
X119799103Y-76037732D01*
X119735000Y-76031418D01*
X119205000Y-76031418D01*
X119140897Y-76037732D01*
X119079257Y-76056430D01*
X119022450Y-76086794D01*
X118972657Y-76127657D01*
X118931794Y-76177450D01*
X118901430Y-76234257D01*
X118882732Y-76295897D01*
X118876418Y-76360000D01*
X118876418Y-76909963D01*
X118865088Y-77025000D01*
X118876418Y-77140037D01*
X118876418Y-77690000D01*
X118882732Y-77754103D01*
X118901430Y-77815743D01*
X118931794Y-77872550D01*
X118967889Y-77916533D01*
X118802000Y-77750644D01*
X118802000Y-76995434D01*
X118793582Y-76909963D01*
X118793582Y-76360000D01*
X118787268Y-76295897D01*
X118768570Y-76234257D01*
X118738206Y-76177450D01*
X118697343Y-76127657D01*
X118647550Y-76086794D01*
X118590743Y-76056430D01*
X118529103Y-76037732D01*
X118465000Y-76031418D01*
X117935000Y-76031418D01*
X117870897Y-76037732D01*
X117809257Y-76056430D01*
X117752450Y-76086794D01*
X117702657Y-76127657D01*
X117661794Y-76177450D01*
X117631430Y-76234257D01*
X117612732Y-76295897D01*
X117606418Y-76360000D01*
X117606418Y-76909964D01*
X117598000Y-76995435D01*
X117598001Y-77970434D01*
X117595089Y-78000000D01*
X117299545Y-78000000D01*
X117320743Y-77993570D01*
X117377550Y-77963206D01*
X117427343Y-77922343D01*
X117468206Y-77872550D01*
X117498570Y-77815743D01*
X117517268Y-77754103D01*
X117523582Y-77690000D01*
X117523582Y-76360000D01*
X117517268Y-76295897D01*
X117498570Y-76234257D01*
X117468206Y-76177450D01*
X117427343Y-76127657D01*
X117377550Y-76086794D01*
X117320743Y-76056430D01*
X117259103Y-76037732D01*
X117195000Y-76031418D01*
X116665000Y-76031418D01*
X116600897Y-76037732D01*
X116539257Y-76056430D01*
X116482450Y-76086794D01*
X116432657Y-76127657D01*
X116391794Y-76177450D01*
X116361430Y-76234257D01*
X116342732Y-76295897D01*
X116336418Y-76360000D01*
X109027233Y-76360000D01*
X109041798Y-76352215D01*
X109080474Y-76320474D01*
X109112215Y-76281798D01*
X109135801Y-76237672D01*
X109150325Y-76189793D01*
X109155229Y-76140000D01*
X109154000Y-75770500D01*
X109090500Y-75707000D01*
X108327000Y-75707000D01*
X108073000Y-75707000D01*
X107309500Y-75707000D01*
X107246000Y-75770500D01*
X107244771Y-76140000D01*
X107134265Y-76140000D01*
X107173206Y-76092550D01*
X107203570Y-76035743D01*
X107222268Y-75974103D01*
X107228582Y-75910000D01*
X107228582Y-75090000D01*
X107222268Y-75025897D01*
X107220480Y-75020000D01*
X107244771Y-75020000D01*
X107246000Y-75389500D01*
X107309500Y-75453000D01*
X108073000Y-75453000D01*
X108073000Y-74829500D01*
X108327000Y-74829500D01*
X108327000Y-75453000D01*
X109090500Y-75453000D01*
X109154000Y-75389500D01*
X109155229Y-75020000D01*
X109150325Y-74970207D01*
X109135801Y-74922328D01*
X109112215Y-74878202D01*
X109080474Y-74839526D01*
X109041798Y-74807785D01*
X108997672Y-74784199D01*
X108949793Y-74769675D01*
X108900000Y-74764771D01*
X108390500Y-74766000D01*
X108327000Y-74829500D01*
X108073000Y-74829500D01*
X108009500Y-74766000D01*
X107500000Y-74764771D01*
X107450207Y-74769675D01*
X107402328Y-74784199D01*
X107358202Y-74807785D01*
X107319526Y-74839526D01*
X107287785Y-74878202D01*
X107264199Y-74922328D01*
X107249675Y-74970207D01*
X107244771Y-75020000D01*
X107220480Y-75020000D01*
X107203570Y-74964257D01*
X107173206Y-74907450D01*
X107132343Y-74857657D01*
X107082550Y-74816794D01*
X107025743Y-74786430D01*
X106964103Y-74767732D01*
X106900000Y-74761418D01*
X105900000Y-74761418D01*
X105835897Y-74767732D01*
X105774257Y-74786430D01*
X105717450Y-74816794D01*
X105667657Y-74857657D01*
X105626794Y-74907450D01*
X105600000Y-74957578D01*
X105573206Y-74907450D01*
X105532343Y-74857657D01*
X105482550Y-74816794D01*
X105425743Y-74786430D01*
X105364103Y-74767732D01*
X105300000Y-74761418D01*
X104300000Y-74761418D01*
X104235897Y-74767732D01*
X104174257Y-74786430D01*
X104117450Y-74816794D01*
X104067657Y-74857657D01*
X104026794Y-74907450D01*
X104000000Y-74957578D01*
X103973206Y-74907450D01*
X103932343Y-74857657D01*
X103882550Y-74816794D01*
X103825743Y-74786430D01*
X103764103Y-74767732D01*
X103700000Y-74761418D01*
X102700000Y-74761418D01*
X102635897Y-74767732D01*
X102574257Y-74786430D01*
X102527000Y-74811689D01*
X102527000Y-74496608D01*
X102558202Y-74522215D01*
X102602328Y-74545801D01*
X102650207Y-74560325D01*
X102700000Y-74565229D01*
X103009500Y-74564000D01*
X103073000Y-74500500D01*
X103073000Y-74027000D01*
X103327000Y-74027000D01*
X103327000Y-74500500D01*
X103390500Y-74564000D01*
X103700000Y-74565229D01*
X103749793Y-74560325D01*
X103797672Y-74545801D01*
X103841798Y-74522215D01*
X103880474Y-74490474D01*
X103912215Y-74451798D01*
X103935801Y-74407672D01*
X103950325Y-74359793D01*
X103955229Y-74310000D01*
X103954000Y-74090500D01*
X103890500Y-74027000D01*
X103327000Y-74027000D01*
X103073000Y-74027000D01*
X103053000Y-74027000D01*
X103053000Y-73773000D01*
X103073000Y-73773000D01*
X103073000Y-73299500D01*
X103327000Y-73299500D01*
X103327000Y-73773000D01*
X103890500Y-73773000D01*
X103954000Y-73709500D01*
X103955229Y-73490000D01*
X103950325Y-73440207D01*
X103935801Y-73392328D01*
X103912215Y-73348202D01*
X103880474Y-73309526D01*
X103841798Y-73277785D01*
X103797672Y-73254199D01*
X103749793Y-73239675D01*
X103700000Y-73234771D01*
X103390500Y-73236000D01*
X103327000Y-73299500D01*
X103073000Y-73299500D01*
X103009500Y-73236000D01*
X102700000Y-73234771D01*
X102650207Y-73239675D01*
X102602328Y-73254199D01*
X102558202Y-73277785D01*
X102527000Y-73303392D01*
X102527000Y-73018290D01*
X102554338Y-72990952D01*
X102574448Y-72974448D01*
X102640304Y-72894202D01*
X102689239Y-72802650D01*
X102719374Y-72703310D01*
X102727000Y-72625881D01*
X102727000Y-72625880D01*
X102729549Y-72600000D01*
X102727000Y-72574119D01*
X102727000Y-72401134D01*
X102764698Y-72363436D01*
X102844259Y-72244364D01*
X102899062Y-72112058D01*
X102927000Y-71971603D01*
X102927000Y-71828397D01*
X102899062Y-71687942D01*
X102844259Y-71555636D01*
X102764698Y-71436564D01*
X102727000Y-71398866D01*
X102727000Y-71206222D01*
X102735743Y-71203570D01*
X102792550Y-71173206D01*
X102842343Y-71132343D01*
X102883206Y-71082550D01*
X102913570Y-71025743D01*
X102932268Y-70964103D01*
X102938582Y-70900000D01*
X102938582Y-69900000D01*
X102932268Y-69835897D01*
X102913570Y-69774257D01*
X102883206Y-69717450D01*
X102842343Y-69667657D01*
X102817126Y-69646963D01*
X102944364Y-69594259D01*
X103063436Y-69514698D01*
X103101134Y-69477000D01*
X104796418Y-69477000D01*
X104796418Y-69501090D01*
X104761392Y-69504540D01*
X104688031Y-69526794D01*
X104676190Y-69530386D01*
X104597667Y-69572357D01*
X104528841Y-69628841D01*
X104514685Y-69646090D01*
X104465230Y-69695545D01*
X104442343Y-69667657D01*
X104392550Y-69626794D01*
X104335743Y-69596430D01*
X104274103Y-69577732D01*
X104210000Y-69571418D01*
X103390000Y-69571418D01*
X103325897Y-69577732D01*
X103264257Y-69596430D01*
X103207450Y-69626794D01*
X103157657Y-69667657D01*
X103116794Y-69717450D01*
X103086430Y-69774257D01*
X103067732Y-69835897D01*
X103061418Y-69900000D01*
X103061418Y-70900000D01*
X103067732Y-70964103D01*
X103086430Y-71025743D01*
X103116794Y-71082550D01*
X103157657Y-71132343D01*
X103207450Y-71173206D01*
X103264257Y-71203570D01*
X103325897Y-71222268D01*
X103390000Y-71228582D01*
X104210000Y-71228582D01*
X104274103Y-71222268D01*
X104335743Y-71203570D01*
X104392550Y-71173206D01*
X104442343Y-71132343D01*
X104483206Y-71082550D01*
X104513570Y-71025743D01*
X104532268Y-70964103D01*
X104538582Y-70900000D01*
X104538582Y-70830300D01*
X104573810Y-70819614D01*
X104652333Y-70777643D01*
X104721159Y-70721159D01*
X104735323Y-70703900D01*
X104800256Y-70638967D01*
X104802732Y-70664103D01*
X104813621Y-70700000D01*
X104802732Y-70735897D01*
X104796418Y-70800000D01*
X104796418Y-71100000D01*
X104802732Y-71164103D01*
X104813621Y-71200000D01*
X104802732Y-71235897D01*
X104796418Y-71300000D01*
X104796418Y-71600000D01*
X104802732Y-71664103D01*
X104821430Y-71725743D01*
X104851794Y-71782550D01*
X104892657Y-71832343D01*
X104942450Y-71873206D01*
X104999257Y-71903570D01*
X105043719Y-71917057D01*
X104496100Y-72464677D01*
X104478841Y-72478841D01*
X104422357Y-72547668D01*
X104396812Y-72595460D01*
X104380386Y-72626191D01*
X104354540Y-72711393D01*
X104345813Y-72800000D01*
X104348000Y-72822205D01*
X104348000Y-73161418D01*
X104300000Y-73161418D01*
X104235897Y-73167732D01*
X104174257Y-73186430D01*
X104117450Y-73216794D01*
X104067657Y-73257657D01*
X104026794Y-73307450D01*
X103996430Y-73364257D01*
X103977732Y-73425897D01*
X103971418Y-73490000D01*
X103971418Y-74310000D01*
X103977732Y-74374103D01*
X103996430Y-74435743D01*
X104026794Y-74492550D01*
X104067657Y-74542343D01*
X104117450Y-74583206D01*
X104174257Y-74613570D01*
X104235897Y-74632268D01*
X104300000Y-74638582D01*
X105300000Y-74638582D01*
X105364103Y-74632268D01*
X105425743Y-74613570D01*
X105482550Y-74583206D01*
X105532343Y-74542343D01*
X105573206Y-74492550D01*
X105600000Y-74442422D01*
X105626794Y-74492550D01*
X105667657Y-74542343D01*
X105717450Y-74583206D01*
X105774257Y-74613570D01*
X105835897Y-74632268D01*
X105900000Y-74638582D01*
X106900000Y-74638582D01*
X106964103Y-74632268D01*
X107025743Y-74613570D01*
X107082550Y-74583206D01*
X107132343Y-74542343D01*
X107173206Y-74492550D01*
X107185469Y-74469608D01*
X107196430Y-74505743D01*
X107226794Y-74562550D01*
X107267657Y-74612343D01*
X107317450Y-74653206D01*
X107374257Y-74683570D01*
X107435897Y-74702268D01*
X107500000Y-74708582D01*
X108900000Y-74708582D01*
X108964103Y-74702268D01*
X109025743Y-74683570D01*
X109082550Y-74653206D01*
X109132343Y-74612343D01*
X109173206Y-74562550D01*
X109203570Y-74505743D01*
X109222268Y-74444103D01*
X109228582Y-74380000D01*
X109228582Y-73310000D01*
X116336418Y-73310000D01*
X116336418Y-74640000D01*
X116342732Y-74704103D01*
X116361430Y-74765743D01*
X116391794Y-74822550D01*
X116432657Y-74872343D01*
X116482450Y-74913206D01*
X116539257Y-74943570D01*
X116600897Y-74962268D01*
X116665000Y-74968582D01*
X117195000Y-74968582D01*
X117259103Y-74962268D01*
X117320743Y-74943570D01*
X117377550Y-74913206D01*
X117427343Y-74872343D01*
X117468206Y-74822550D01*
X117498570Y-74765743D01*
X117517268Y-74704103D01*
X117523582Y-74640000D01*
X117679771Y-74640000D01*
X117684675Y-74689793D01*
X117699199Y-74737672D01*
X117722785Y-74781798D01*
X117754526Y-74820474D01*
X117793202Y-74852215D01*
X117837328Y-74875801D01*
X117885207Y-74890325D01*
X117935000Y-74895229D01*
X118009500Y-74894000D01*
X118073000Y-74830500D01*
X118073000Y-74102000D01*
X118327000Y-74102000D01*
X118327000Y-74830500D01*
X118390500Y-74894000D01*
X118465000Y-74895229D01*
X118514793Y-74890325D01*
X118562672Y-74875801D01*
X118606798Y-74852215D01*
X118645474Y-74820474D01*
X118677215Y-74781798D01*
X118700801Y-74737672D01*
X118715325Y-74689793D01*
X118720229Y-74640000D01*
X118719000Y-74165500D01*
X118655500Y-74102000D01*
X118327000Y-74102000D01*
X118073000Y-74102000D01*
X117744500Y-74102000D01*
X117681000Y-74165500D01*
X117679771Y-74640000D01*
X117523582Y-74640000D01*
X117523582Y-73310000D01*
X117679771Y-73310000D01*
X117681000Y-73784500D01*
X117744500Y-73848000D01*
X118073000Y-73848000D01*
X118073000Y-73119500D01*
X118327000Y-73119500D01*
X118327000Y-73848000D01*
X118655500Y-73848000D01*
X118719000Y-73784500D01*
X118720229Y-73310000D01*
X118876418Y-73310000D01*
X118876418Y-74640000D01*
X118882732Y-74704103D01*
X118901430Y-74765743D01*
X118931794Y-74822550D01*
X118972657Y-74872343D01*
X119022450Y-74913206D01*
X119079257Y-74943570D01*
X119140897Y-74962268D01*
X119205000Y-74968582D01*
X119735000Y-74968582D01*
X119799103Y-74962268D01*
X119860743Y-74943570D01*
X119917550Y-74913206D01*
X119967343Y-74872343D01*
X120008206Y-74822550D01*
X120038570Y-74765743D01*
X120057268Y-74704103D01*
X120063582Y-74640000D01*
X120063582Y-74452000D01*
X120575555Y-74452000D01*
X120577732Y-74474103D01*
X120596430Y-74535743D01*
X120626794Y-74592550D01*
X120667657Y-74642343D01*
X120717450Y-74683206D01*
X120774257Y-74713570D01*
X120835897Y-74732268D01*
X120900000Y-74738582D01*
X121900000Y-74738582D01*
X121964103Y-74732268D01*
X122025743Y-74713570D01*
X122082550Y-74683206D01*
X122132343Y-74642343D01*
X122173206Y-74592550D01*
X122203570Y-74535743D01*
X122222268Y-74474103D01*
X122228582Y-74410000D01*
X122228582Y-73590000D01*
X122222268Y-73525897D01*
X122203570Y-73464257D01*
X122173206Y-73407450D01*
X122132343Y-73357657D01*
X122082550Y-73316794D01*
X122025743Y-73286430D01*
X121964103Y-73267732D01*
X121900000Y-73261418D01*
X120900000Y-73261418D01*
X120835897Y-73267732D01*
X120774257Y-73286430D01*
X120717450Y-73316794D01*
X120667657Y-73357657D01*
X120626794Y-73407450D01*
X120596430Y-73464257D01*
X120577732Y-73525897D01*
X120575555Y-73548000D01*
X120063582Y-73548000D01*
X120063582Y-73310000D01*
X120057268Y-73245897D01*
X120038570Y-73184257D01*
X120008206Y-73127450D01*
X119967343Y-73077657D01*
X119917550Y-73036794D01*
X119860743Y-73006430D01*
X119799103Y-72987732D01*
X119735000Y-72981418D01*
X119205000Y-72981418D01*
X119140897Y-72987732D01*
X119079257Y-73006430D01*
X119022450Y-73036794D01*
X118972657Y-73077657D01*
X118931794Y-73127450D01*
X118901430Y-73184257D01*
X118882732Y-73245897D01*
X118876418Y-73310000D01*
X118720229Y-73310000D01*
X118715325Y-73260207D01*
X118700801Y-73212328D01*
X118677215Y-73168202D01*
X118645474Y-73129526D01*
X118606798Y-73097785D01*
X118562672Y-73074199D01*
X118514793Y-73059675D01*
X118465000Y-73054771D01*
X118390500Y-73056000D01*
X118327000Y-73119500D01*
X118073000Y-73119500D01*
X118009500Y-73056000D01*
X117935000Y-73054771D01*
X117885207Y-73059675D01*
X117837328Y-73074199D01*
X117793202Y-73097785D01*
X117754526Y-73129526D01*
X117722785Y-73168202D01*
X117699199Y-73212328D01*
X117684675Y-73260207D01*
X117679771Y-73310000D01*
X117523582Y-73310000D01*
X117517268Y-73245897D01*
X117498570Y-73184257D01*
X117468206Y-73127450D01*
X117427343Y-73077657D01*
X117377550Y-73036794D01*
X117320743Y-73006430D01*
X117259103Y-72987732D01*
X117195000Y-72981418D01*
X116665000Y-72981418D01*
X116600897Y-72987732D01*
X116539257Y-73006430D01*
X116482450Y-73036794D01*
X116432657Y-73077657D01*
X116391794Y-73127450D01*
X116361430Y-73184257D01*
X116342732Y-73245897D01*
X116336418Y-73310000D01*
X109228582Y-73310000D01*
X109228582Y-73260000D01*
X109222268Y-73195897D01*
X109203570Y-73134257D01*
X109173206Y-73077450D01*
X109132343Y-73027657D01*
X109082550Y-72986794D01*
X109025743Y-72956430D01*
X108964103Y-72937732D01*
X108900000Y-72931418D01*
X108564308Y-72931418D01*
X108536315Y-72897309D01*
X108600000Y-72903582D01*
X108900000Y-72903582D01*
X108964103Y-72897268D01*
X109025743Y-72878570D01*
X109082550Y-72848206D01*
X109132343Y-72807343D01*
X109173206Y-72757550D01*
X109203570Y-72700743D01*
X109222268Y-72639103D01*
X109226449Y-72596657D01*
X109238607Y-72595460D01*
X109323810Y-72569614D01*
X109402333Y-72527643D01*
X109471159Y-72471159D01*
X109485323Y-72453900D01*
X109753906Y-72185318D01*
X109771159Y-72171159D01*
X109827643Y-72102333D01*
X109869614Y-72023810D01*
X109884059Y-71976191D01*
X109895460Y-71938608D01*
X109896658Y-71926449D01*
X109939103Y-71922268D01*
X110000743Y-71903570D01*
X110057550Y-71873206D01*
X110107343Y-71832343D01*
X110148206Y-71782550D01*
X110178570Y-71725743D01*
X110197268Y-71664103D01*
X110203582Y-71600000D01*
X110203582Y-71442806D01*
X110469685Y-71708910D01*
X110483841Y-71726159D01*
X110552667Y-71782643D01*
X110599078Y-71807450D01*
X110631190Y-71824614D01*
X110716392Y-71850460D01*
X110746940Y-71853469D01*
X110751794Y-71862550D01*
X110792657Y-71912343D01*
X110842450Y-71953206D01*
X110899257Y-71983570D01*
X110960897Y-72002268D01*
X111025000Y-72008582D01*
X112775000Y-72008582D01*
X112839103Y-72002268D01*
X112900743Y-71983570D01*
X112957550Y-71953206D01*
X113007343Y-71912343D01*
X113048206Y-71862550D01*
X113078570Y-71805743D01*
X113097268Y-71744103D01*
X113103582Y-71680000D01*
X118169771Y-71680000D01*
X118174675Y-71729793D01*
X118189199Y-71777672D01*
X118212785Y-71821798D01*
X118244526Y-71860474D01*
X118283202Y-71892215D01*
X118327328Y-71915801D01*
X118375207Y-71930325D01*
X118425000Y-71935229D01*
X119109500Y-71934000D01*
X119173000Y-71870500D01*
X119173000Y-71532000D01*
X119427000Y-71532000D01*
X119427000Y-71870500D01*
X119490500Y-71934000D01*
X120175000Y-71935229D01*
X120224793Y-71930325D01*
X120272672Y-71915801D01*
X120316798Y-71892215D01*
X120355474Y-71860474D01*
X120387215Y-71821798D01*
X120410801Y-71777672D01*
X120425325Y-71729793D01*
X120430229Y-71680000D01*
X120429000Y-71595500D01*
X120365500Y-71532000D01*
X119427000Y-71532000D01*
X119173000Y-71532000D01*
X118234500Y-71532000D01*
X118171000Y-71595500D01*
X118169771Y-71680000D01*
X113103582Y-71680000D01*
X113103582Y-71130000D01*
X118169771Y-71130000D01*
X118171000Y-71214500D01*
X118234500Y-71278000D01*
X119173000Y-71278000D01*
X119173000Y-70939500D01*
X119427000Y-70939500D01*
X119427000Y-71278000D01*
X120365500Y-71278000D01*
X120429000Y-71214500D01*
X120430229Y-71130000D01*
X120425325Y-71080207D01*
X120410801Y-71032328D01*
X120387215Y-70988202D01*
X120355474Y-70949526D01*
X120316798Y-70917785D01*
X120272672Y-70894199D01*
X120224793Y-70879675D01*
X120175000Y-70874771D01*
X119490500Y-70876000D01*
X119427000Y-70939500D01*
X119173000Y-70939500D01*
X119109500Y-70876000D01*
X118425000Y-70874771D01*
X118375207Y-70879675D01*
X118327328Y-70894199D01*
X118283202Y-70917785D01*
X118244526Y-70949526D01*
X118212785Y-70988202D01*
X118189199Y-71032328D01*
X118174675Y-71080207D01*
X118169771Y-71130000D01*
X113103582Y-71130000D01*
X113097268Y-71065897D01*
X113078570Y-71004257D01*
X113048206Y-70947450D01*
X113007343Y-70897657D01*
X112957550Y-70856794D01*
X112900743Y-70826430D01*
X112839103Y-70807732D01*
X112775000Y-70801418D01*
X111025000Y-70801418D01*
X110960897Y-70807732D01*
X110899257Y-70826430D01*
X110877359Y-70838135D01*
X110739223Y-70700000D01*
X110794977Y-70644247D01*
X110842450Y-70683206D01*
X110899257Y-70713570D01*
X110960897Y-70732268D01*
X111025000Y-70738582D01*
X112775000Y-70738582D01*
X112839103Y-70732268D01*
X112900743Y-70713570D01*
X112957550Y-70683206D01*
X113007343Y-70642343D01*
X113048206Y-70592550D01*
X113078570Y-70535743D01*
X113097268Y-70474103D01*
X113103582Y-70410000D01*
X113103582Y-69860000D01*
X118096418Y-69860000D01*
X118096418Y-70410000D01*
X118102732Y-70474103D01*
X118121430Y-70535743D01*
X118151794Y-70592550D01*
X118192657Y-70642343D01*
X118242450Y-70683206D01*
X118299257Y-70713570D01*
X118360897Y-70732268D01*
X118425000Y-70738582D01*
X120175000Y-70738582D01*
X120239103Y-70732268D01*
X120300743Y-70713570D01*
X120357550Y-70683206D01*
X120407343Y-70642343D01*
X120448206Y-70592550D01*
X120451173Y-70587000D01*
X120661418Y-70587000D01*
X120661418Y-70600000D01*
X120667732Y-70664103D01*
X120686430Y-70725743D01*
X120716794Y-70782550D01*
X120757657Y-70832343D01*
X120807450Y-70873206D01*
X120864257Y-70903570D01*
X120925897Y-70922268D01*
X120948000Y-70924445D01*
X120948001Y-71661418D01*
X120900000Y-71661418D01*
X120835897Y-71667732D01*
X120774257Y-71686430D01*
X120717450Y-71716794D01*
X120667657Y-71757657D01*
X120626794Y-71807450D01*
X120596430Y-71864257D01*
X120577732Y-71925897D01*
X120571418Y-71990000D01*
X120571418Y-72810000D01*
X120577732Y-72874103D01*
X120596430Y-72935743D01*
X120626794Y-72992550D01*
X120667657Y-73042343D01*
X120717450Y-73083206D01*
X120774257Y-73113570D01*
X120835897Y-73132268D01*
X120900000Y-73138582D01*
X121900000Y-73138582D01*
X121964103Y-73132268D01*
X122025743Y-73113570D01*
X122082550Y-73083206D01*
X122132343Y-73042343D01*
X122173206Y-72992550D01*
X122203570Y-72935743D01*
X122222268Y-72874103D01*
X122228582Y-72810000D01*
X122228582Y-71990000D01*
X122222268Y-71925897D01*
X122203570Y-71864257D01*
X122173206Y-71807450D01*
X122132343Y-71757657D01*
X122082550Y-71716794D01*
X122025743Y-71686430D01*
X121964103Y-71667732D01*
X121900000Y-71661418D01*
X121852000Y-71661418D01*
X121852000Y-70924445D01*
X121874103Y-70922268D01*
X121935743Y-70903570D01*
X121992550Y-70873206D01*
X122042343Y-70832343D01*
X122083206Y-70782550D01*
X122113570Y-70725743D01*
X122132268Y-70664103D01*
X122138582Y-70600000D01*
X122334771Y-70600000D01*
X122339675Y-70649793D01*
X122354199Y-70697672D01*
X122377785Y-70741798D01*
X122409526Y-70780474D01*
X122448202Y-70812215D01*
X122492328Y-70835801D01*
X122540207Y-70850325D01*
X122590000Y-70855229D01*
X122809500Y-70854000D01*
X122873000Y-70790500D01*
X122873000Y-70227000D01*
X123127000Y-70227000D01*
X123127000Y-70790500D01*
X123190500Y-70854000D01*
X123410000Y-70855229D01*
X123459793Y-70850325D01*
X123507672Y-70835801D01*
X123551798Y-70812215D01*
X123590474Y-70780474D01*
X123622215Y-70741798D01*
X123645801Y-70697672D01*
X123660325Y-70649793D01*
X123665229Y-70600000D01*
X123664000Y-70290500D01*
X123600500Y-70227000D01*
X123127000Y-70227000D01*
X122873000Y-70227000D01*
X122399500Y-70227000D01*
X122336000Y-70290500D01*
X122334771Y-70600000D01*
X122138582Y-70600000D01*
X122138582Y-69600000D01*
X122334771Y-69600000D01*
X122336000Y-69909500D01*
X122399500Y-69973000D01*
X122873000Y-69973000D01*
X122873000Y-69409500D01*
X123127000Y-69409500D01*
X123127000Y-69973000D01*
X123600500Y-69973000D01*
X123664000Y-69909500D01*
X123665229Y-69600000D01*
X123660325Y-69550207D01*
X123645801Y-69502328D01*
X123622215Y-69458202D01*
X123590474Y-69419526D01*
X123551798Y-69387785D01*
X123507672Y-69364199D01*
X123459793Y-69349675D01*
X123410000Y-69344771D01*
X123190500Y-69346000D01*
X123127000Y-69409500D01*
X122873000Y-69409500D01*
X122809500Y-69346000D01*
X122590000Y-69344771D01*
X122540207Y-69349675D01*
X122492328Y-69364199D01*
X122448202Y-69387785D01*
X122409526Y-69419526D01*
X122377785Y-69458202D01*
X122354199Y-69502328D01*
X122339675Y-69550207D01*
X122334771Y-69600000D01*
X122138582Y-69600000D01*
X122132268Y-69535897D01*
X122113570Y-69474257D01*
X122083206Y-69417450D01*
X122042343Y-69367657D01*
X121992550Y-69326794D01*
X121935743Y-69296430D01*
X121874103Y-69277732D01*
X121810000Y-69271418D01*
X120990000Y-69271418D01*
X120925897Y-69277732D01*
X120864257Y-69296430D01*
X120807450Y-69326794D01*
X120757657Y-69367657D01*
X120716794Y-69417450D01*
X120686430Y-69474257D01*
X120667732Y-69535897D01*
X120661418Y-69600000D01*
X120661418Y-69683000D01*
X120451173Y-69683000D01*
X120448206Y-69677450D01*
X120407343Y-69627657D01*
X120357550Y-69586794D01*
X120300743Y-69556430D01*
X120239103Y-69537732D01*
X120175000Y-69531418D01*
X118425000Y-69531418D01*
X118360897Y-69537732D01*
X118299257Y-69556430D01*
X118242450Y-69586794D01*
X118192657Y-69627657D01*
X118151794Y-69677450D01*
X118121430Y-69734257D01*
X118102732Y-69795897D01*
X118096418Y-69860000D01*
X113103582Y-69860000D01*
X113097268Y-69795897D01*
X113078570Y-69734257D01*
X113048206Y-69677450D01*
X113007343Y-69627657D01*
X112957550Y-69586794D01*
X112900743Y-69556430D01*
X112839103Y-69537732D01*
X112775000Y-69531418D01*
X111025000Y-69531418D01*
X110960897Y-69537732D01*
X110899257Y-69556430D01*
X110842450Y-69586794D01*
X110792657Y-69627657D01*
X110751794Y-69677450D01*
X110748827Y-69683000D01*
X110687204Y-69683000D01*
X110664999Y-69680813D01*
X110576392Y-69689540D01*
X110556562Y-69695556D01*
X110491190Y-69715386D01*
X110412667Y-69757357D01*
X110343841Y-69813841D01*
X110329685Y-69831090D01*
X110203582Y-69957194D01*
X110203582Y-69800000D01*
X110197268Y-69735897D01*
X110186379Y-69700000D01*
X110197268Y-69664103D01*
X110203582Y-69600000D01*
X110203582Y-69300000D01*
X110197268Y-69235897D01*
X110186379Y-69200000D01*
X110197268Y-69164103D01*
X110203582Y-69100000D01*
X110203582Y-68800000D01*
X110197268Y-68735897D01*
X110178570Y-68674257D01*
X110148206Y-68617450D01*
X110107343Y-68567657D01*
X110057550Y-68526794D01*
X110000743Y-68496430D01*
X109939103Y-68477732D01*
X109875000Y-68471418D01*
X109228582Y-68471418D01*
X109228582Y-67825000D01*
X109222268Y-67760897D01*
X109203570Y-67699257D01*
X109173206Y-67642450D01*
X109132343Y-67592657D01*
X109082550Y-67551794D01*
X109025743Y-67521430D01*
X108964103Y-67502732D01*
X108900000Y-67496418D01*
X108600000Y-67496418D01*
X108535897Y-67502732D01*
X108474257Y-67521430D01*
X108417450Y-67551794D01*
X108395437Y-67569859D01*
X108336500Y-67571000D01*
X108273000Y-67634500D01*
X108273000Y-67808939D01*
X108271418Y-67825000D01*
X108271418Y-68397000D01*
X108228582Y-68397000D01*
X108228582Y-67825000D01*
X108227000Y-67808939D01*
X108227000Y-67634500D01*
X108176233Y-67583733D01*
X108170822Y-67528792D01*
X108152000Y-67466747D01*
X108152000Y-67320000D01*
X110696418Y-67320000D01*
X110696418Y-67870000D01*
X110702732Y-67934103D01*
X110721430Y-67995743D01*
X110751794Y-68052550D01*
X110792657Y-68102343D01*
X110842450Y-68143206D01*
X110899257Y-68173570D01*
X110960897Y-68192268D01*
X111025000Y-68198582D01*
X111298000Y-68198582D01*
X111298001Y-68261418D01*
X111025000Y-68261418D01*
X110960897Y-68267732D01*
X110899257Y-68286430D01*
X110842450Y-68316794D01*
X110792657Y-68357657D01*
X110751794Y-68407450D01*
X110721430Y-68464257D01*
X110702732Y-68525897D01*
X110696418Y-68590000D01*
X110696418Y-69140000D01*
X110702732Y-69204103D01*
X110721430Y-69265743D01*
X110751794Y-69322550D01*
X110792657Y-69372343D01*
X110842450Y-69413206D01*
X110899257Y-69443570D01*
X110960897Y-69462268D01*
X111025000Y-69468582D01*
X111886496Y-69468582D01*
X111900000Y-69469912D01*
X111913504Y-69468582D01*
X112775000Y-69468582D01*
X112839103Y-69462268D01*
X112900743Y-69443570D01*
X112957550Y-69413206D01*
X113007343Y-69372343D01*
X113048206Y-69322550D01*
X113078570Y-69265743D01*
X113097268Y-69204103D01*
X113103582Y-69140000D01*
X113103582Y-68590000D01*
X118096418Y-68590000D01*
X118096418Y-69140000D01*
X118102732Y-69204103D01*
X118121430Y-69265743D01*
X118151794Y-69322550D01*
X118192657Y-69372343D01*
X118242450Y-69413206D01*
X118299257Y-69443570D01*
X118360897Y-69462268D01*
X118425000Y-69468582D01*
X120175000Y-69468582D01*
X120239103Y-69462268D01*
X120300743Y-69443570D01*
X120357550Y-69413206D01*
X120407343Y-69372343D01*
X120448206Y-69322550D01*
X120478570Y-69265743D01*
X120497268Y-69204103D01*
X120503582Y-69140000D01*
X120503582Y-68590000D01*
X120497268Y-68525897D01*
X120478570Y-68464257D01*
X120448206Y-68407450D01*
X120407343Y-68357657D01*
X120357550Y-68316794D01*
X120300743Y-68286430D01*
X120239103Y-68267732D01*
X120175000Y-68261418D01*
X118425000Y-68261418D01*
X118360897Y-68267732D01*
X118299257Y-68286430D01*
X118242450Y-68316794D01*
X118192657Y-68357657D01*
X118151794Y-68407450D01*
X118121430Y-68464257D01*
X118102732Y-68525897D01*
X118096418Y-68590000D01*
X113103582Y-68590000D01*
X113097268Y-68525897D01*
X113078570Y-68464257D01*
X113048206Y-68407450D01*
X113007343Y-68357657D01*
X112957550Y-68316794D01*
X112900743Y-68286430D01*
X112839103Y-68267732D01*
X112775000Y-68261418D01*
X112502000Y-68261418D01*
X112502000Y-68202000D01*
X119265444Y-68202000D01*
X119295000Y-68204911D01*
X119300000Y-68204419D01*
X119304999Y-68204911D01*
X119334556Y-68202000D01*
X120679228Y-68202000D01*
X120686430Y-68225743D01*
X120716794Y-68282550D01*
X120757657Y-68332343D01*
X120807450Y-68373206D01*
X120864257Y-68403570D01*
X120925897Y-68422268D01*
X120990000Y-68428582D01*
X121810000Y-68428582D01*
X121874103Y-68422268D01*
X121935743Y-68403570D01*
X121992550Y-68373206D01*
X122042343Y-68332343D01*
X122083206Y-68282550D01*
X122113570Y-68225743D01*
X122132268Y-68164103D01*
X122138582Y-68100000D01*
X122334771Y-68100000D01*
X122339675Y-68149793D01*
X122354199Y-68197672D01*
X122377785Y-68241798D01*
X122409526Y-68280474D01*
X122448202Y-68312215D01*
X122492328Y-68335801D01*
X122540207Y-68350325D01*
X122590000Y-68355229D01*
X122809500Y-68354000D01*
X122873000Y-68290500D01*
X122873000Y-67727000D01*
X123127000Y-67727000D01*
X123127000Y-68290500D01*
X123190500Y-68354000D01*
X123410000Y-68355229D01*
X123459793Y-68350325D01*
X123507672Y-68335801D01*
X123551798Y-68312215D01*
X123590474Y-68280474D01*
X123622215Y-68241798D01*
X123645801Y-68197672D01*
X123660325Y-68149793D01*
X123665229Y-68100000D01*
X123664000Y-67790500D01*
X123600500Y-67727000D01*
X123127000Y-67727000D01*
X122873000Y-67727000D01*
X122399500Y-67727000D01*
X122336000Y-67790500D01*
X122334771Y-68100000D01*
X122138582Y-68100000D01*
X122138582Y-67100000D01*
X122334771Y-67100000D01*
X122336000Y-67409500D01*
X122399500Y-67473000D01*
X122873000Y-67473000D01*
X122873000Y-66909500D01*
X123127000Y-66909500D01*
X123127000Y-67473000D01*
X123600500Y-67473000D01*
X123664000Y-67409500D01*
X123665229Y-67100000D01*
X123660325Y-67050207D01*
X123645801Y-67002328D01*
X123622215Y-66958202D01*
X123590474Y-66919526D01*
X123551798Y-66887785D01*
X123507672Y-66864199D01*
X123459793Y-66849675D01*
X123410000Y-66844771D01*
X123190500Y-66846000D01*
X123127000Y-66909500D01*
X122873000Y-66909500D01*
X122809500Y-66846000D01*
X122590000Y-66844771D01*
X122540207Y-66849675D01*
X122492328Y-66864199D01*
X122448202Y-66887785D01*
X122409526Y-66919526D01*
X122377785Y-66958202D01*
X122354199Y-67002328D01*
X122339675Y-67050207D01*
X122334771Y-67100000D01*
X122138582Y-67100000D01*
X122132268Y-67035897D01*
X122113570Y-66974257D01*
X122083206Y-66917450D01*
X122042343Y-66867657D01*
X121992550Y-66826794D01*
X121935743Y-66796430D01*
X121874103Y-66777732D01*
X121810000Y-66771418D01*
X120990000Y-66771418D01*
X120925897Y-66777732D01*
X120864257Y-66796430D01*
X120807450Y-66826794D01*
X120757657Y-66867657D01*
X120716794Y-66917450D01*
X120686430Y-66974257D01*
X120679228Y-66998000D01*
X120239986Y-66998000D01*
X120239103Y-66997732D01*
X120175000Y-66991418D01*
X119902000Y-66991418D01*
X119902000Y-65922475D01*
X119904103Y-65922268D01*
X119965743Y-65903570D01*
X120022550Y-65873206D01*
X120072343Y-65832343D01*
X120113206Y-65782550D01*
X120143570Y-65725743D01*
X120162268Y-65664103D01*
X120168582Y-65600000D01*
X120168582Y-65302000D01*
X124750645Y-65302000D01*
X126874988Y-67426344D01*
X126860897Y-67427732D01*
X126799257Y-67446430D01*
X126742450Y-67476794D01*
X126692657Y-67517657D01*
X126651794Y-67567450D01*
X126621430Y-67624257D01*
X126602732Y-67685897D01*
X126596418Y-67750000D01*
X126596418Y-69450000D01*
X126602732Y-69514103D01*
X126621430Y-69575743D01*
X126651794Y-69632550D01*
X126692657Y-69682343D01*
X126742450Y-69723206D01*
X126799257Y-69753570D01*
X126860897Y-69772268D01*
X126925000Y-69778582D01*
X128875000Y-69778582D01*
X128939103Y-69772268D01*
X129000743Y-69753570D01*
X129057550Y-69723206D01*
X129107343Y-69682343D01*
X129148206Y-69632550D01*
X129178570Y-69575743D01*
X129197268Y-69514103D01*
X129203582Y-69450000D01*
X129203582Y-67750000D01*
X129197268Y-67685897D01*
X129178570Y-67624257D01*
X129148206Y-67567450D01*
X129107343Y-67517657D01*
X129057550Y-67476794D01*
X129000743Y-67446430D01*
X128939103Y-67427732D01*
X128875000Y-67421418D01*
X128474915Y-67421418D01*
X128458866Y-67368510D01*
X128402966Y-67263929D01*
X128370564Y-67224447D01*
X128346584Y-67195227D01*
X128346580Y-67195223D01*
X128327737Y-67172263D01*
X128304778Y-67153421D01*
X125446589Y-64295234D01*
X125427737Y-64272263D01*
X125336071Y-64197034D01*
X125231490Y-64141134D01*
X125118012Y-64106711D01*
X125029566Y-64098000D01*
X125029556Y-64098000D01*
X125000000Y-64095089D01*
X124970444Y-64098000D01*
X120168582Y-64098000D01*
X120168582Y-63800000D01*
X120162268Y-63735897D01*
X120143570Y-63674257D01*
X120113206Y-63617450D01*
X120072343Y-63567657D01*
X120022550Y-63526794D01*
X119965743Y-63496430D01*
X119904103Y-63477732D01*
X119840000Y-63471418D01*
X118620000Y-63471418D01*
X118555897Y-63477732D01*
X118494257Y-63496430D01*
X118437450Y-63526794D01*
X118387657Y-63567657D01*
X118346794Y-63617450D01*
X118316430Y-63674257D01*
X118297732Y-63735897D01*
X118291418Y-63800000D01*
X118291418Y-65600000D01*
X118297732Y-65664103D01*
X118316430Y-65725743D01*
X118346794Y-65782550D01*
X118387657Y-65832343D01*
X118437450Y-65873206D01*
X118494257Y-65903570D01*
X118555897Y-65922268D01*
X118620000Y-65928582D01*
X118698001Y-65928582D01*
X118698000Y-66991418D01*
X118425000Y-66991418D01*
X118360897Y-66997732D01*
X118360014Y-66998000D01*
X112839986Y-66998000D01*
X112839103Y-66997732D01*
X112775000Y-66991418D01*
X111913504Y-66991418D01*
X111900000Y-66990088D01*
X111886496Y-66991418D01*
X111025000Y-66991418D01*
X110960897Y-66997732D01*
X110899257Y-67016430D01*
X110842450Y-67046794D01*
X110792657Y-67087657D01*
X110751794Y-67137450D01*
X110721430Y-67194257D01*
X110702732Y-67255897D01*
X110696418Y-67320000D01*
X108152000Y-67320000D01*
X108152000Y-64628397D01*
X113872992Y-64628397D01*
X113872992Y-64771603D01*
X113900930Y-64912058D01*
X113955733Y-65044364D01*
X114035294Y-65163436D01*
X114136556Y-65264698D01*
X114255628Y-65344259D01*
X114387934Y-65399062D01*
X114528389Y-65427000D01*
X114671595Y-65427000D01*
X114812050Y-65399062D01*
X114944356Y-65344259D01*
X115063428Y-65264698D01*
X115101126Y-65227000D01*
X115431418Y-65227000D01*
X115431418Y-65600000D01*
X115437732Y-65664103D01*
X115456430Y-65725743D01*
X115486794Y-65782550D01*
X115527657Y-65832343D01*
X115577450Y-65873206D01*
X115634257Y-65903570D01*
X115695897Y-65922268D01*
X115760000Y-65928582D01*
X116980000Y-65928582D01*
X117044103Y-65922268D01*
X117105743Y-65903570D01*
X117162550Y-65873206D01*
X117212343Y-65832343D01*
X117253206Y-65782550D01*
X117283570Y-65725743D01*
X117302268Y-65664103D01*
X117308582Y-65600000D01*
X117308582Y-63800000D01*
X117302268Y-63735897D01*
X117283570Y-63674257D01*
X117253206Y-63617450D01*
X117212343Y-63567657D01*
X117162550Y-63526794D01*
X117105743Y-63496430D01*
X117044103Y-63477732D01*
X116980000Y-63471418D01*
X115760000Y-63471418D01*
X115695897Y-63477732D01*
X115634257Y-63496430D01*
X115577450Y-63526794D01*
X115527657Y-63567657D01*
X115486794Y-63617450D01*
X115456430Y-63674257D01*
X115437732Y-63735897D01*
X115431418Y-63800000D01*
X115431418Y-64173000D01*
X115101126Y-64173000D01*
X115063428Y-64135302D01*
X114944356Y-64055741D01*
X114812050Y-64000938D01*
X114671595Y-63973000D01*
X114528389Y-63973000D01*
X114387934Y-64000938D01*
X114255628Y-64055741D01*
X114136556Y-64135302D01*
X114035294Y-64236564D01*
X113955733Y-64355636D01*
X113900930Y-64487942D01*
X113872992Y-64628397D01*
X108152000Y-64628397D01*
X108152000Y-63927767D01*
X108154065Y-63906800D01*
X108152000Y-63885833D01*
X108152000Y-63885822D01*
X108145822Y-63823093D01*
X108127088Y-63761337D01*
X108121405Y-63742603D01*
X108081756Y-63668424D01*
X108041768Y-63619699D01*
X108041764Y-63619695D01*
X108028395Y-63603405D01*
X108012105Y-63590036D01*
X107009968Y-62587900D01*
X106996595Y-62571605D01*
X106931576Y-62518245D01*
X106857396Y-62478595D01*
X106776907Y-62454178D01*
X106714178Y-62448000D01*
X106714167Y-62448000D01*
X106693200Y-62445935D01*
X106672233Y-62448000D01*
X101827765Y-62448000D01*
X101806800Y-62445935D01*
X101785835Y-62448000D01*
X101785823Y-62448000D01*
X101723094Y-62454178D01*
X101642605Y-62478595D01*
X101608074Y-62497052D01*
X101568424Y-62518245D01*
X101519699Y-62558232D01*
X101519690Y-62558241D01*
X101503406Y-62571605D01*
X101490042Y-62587889D01*
X100645242Y-63432691D01*
X100573132Y-63384509D01*
X100440826Y-63329706D01*
X100300371Y-63301768D01*
X100157165Y-63301768D01*
X100016710Y-63329706D01*
X99884404Y-63384509D01*
X99765332Y-63464070D01*
X99664070Y-63565332D01*
X99584509Y-63684404D01*
X99529706Y-63816710D01*
X99501768Y-63957165D01*
X99501768Y-64100371D01*
X99529706Y-64240826D01*
X99532678Y-64248000D01*
X99501869Y-64248000D01*
X99428582Y-64174713D01*
X99428582Y-63450000D01*
X99422268Y-63385897D01*
X99403570Y-63324257D01*
X99373206Y-63267450D01*
X99332343Y-63217657D01*
X99282550Y-63176794D01*
X99225743Y-63146430D01*
X99164103Y-63127732D01*
X99100000Y-63121418D01*
X97700000Y-63121418D01*
X97635897Y-63127732D01*
X97574257Y-63146430D01*
X97517450Y-63176794D01*
X97467657Y-63217657D01*
X97426794Y-63267450D01*
X97396430Y-63324257D01*
X97377732Y-63385897D01*
X97371418Y-63450000D01*
X97371418Y-64450000D01*
X97377732Y-64514103D01*
X97396430Y-64575743D01*
X97426794Y-64632550D01*
X97467657Y-64682343D01*
X97517450Y-64723206D01*
X97574257Y-64753570D01*
X97635897Y-64772268D01*
X97700000Y-64778582D01*
X98824713Y-64778582D01*
X98946131Y-64900000D01*
X98824713Y-65021418D01*
X97700000Y-65021418D01*
X97635897Y-65027732D01*
X97574257Y-65046430D01*
X97517450Y-65076794D01*
X97467657Y-65117657D01*
X97426794Y-65167450D01*
X97396430Y-65224257D01*
X97377732Y-65285897D01*
X97371418Y-65350000D01*
X97371418Y-66350000D01*
X97377732Y-66414103D01*
X97396430Y-66475743D01*
X97426794Y-66532550D01*
X97467657Y-66582343D01*
X97517450Y-66623206D01*
X97574257Y-66653570D01*
X97635897Y-66672268D01*
X97700000Y-66678582D01*
X99100000Y-66678582D01*
X99164103Y-66672268D01*
X99225743Y-66653570D01*
X99282550Y-66623206D01*
X99332343Y-66582343D01*
X99373206Y-66532550D01*
X99403570Y-66475743D01*
X99422268Y-66414103D01*
X99428582Y-66350000D01*
X99428582Y-65625287D01*
X99443869Y-65610000D01*
X101844771Y-65610000D01*
X101849675Y-65659793D01*
X101864199Y-65707672D01*
X101887785Y-65751798D01*
X101919526Y-65790474D01*
X101958202Y-65822215D01*
X102002328Y-65845801D01*
X102050207Y-65860325D01*
X102100000Y-65865229D01*
X102409500Y-65864000D01*
X102473000Y-65800500D01*
X102473000Y-65327000D01*
X102727000Y-65327000D01*
X102727000Y-65800500D01*
X102790500Y-65864000D01*
X103100000Y-65865229D01*
X103149793Y-65860325D01*
X103197672Y-65845801D01*
X103241798Y-65822215D01*
X103280474Y-65790474D01*
X103312215Y-65751798D01*
X103335801Y-65707672D01*
X103350325Y-65659793D01*
X103355229Y-65610000D01*
X103354502Y-65480000D01*
X103444771Y-65480000D01*
X103449675Y-65529793D01*
X103464199Y-65577672D01*
X103487785Y-65621798D01*
X103519526Y-65660474D01*
X103558202Y-65692215D01*
X103602328Y-65715801D01*
X103650207Y-65730325D01*
X103700000Y-65735229D01*
X104209500Y-65734000D01*
X104273000Y-65670500D01*
X104273000Y-65047000D01*
X104527000Y-65047000D01*
X104527000Y-65670500D01*
X104590500Y-65734000D01*
X105100000Y-65735229D01*
X105149793Y-65730325D01*
X105197672Y-65715801D01*
X105241798Y-65692215D01*
X105280474Y-65660474D01*
X105312215Y-65621798D01*
X105318521Y-65610000D01*
X105444771Y-65610000D01*
X105449675Y-65659793D01*
X105464199Y-65707672D01*
X105487785Y-65751798D01*
X105519526Y-65790474D01*
X105558202Y-65822215D01*
X105602328Y-65845801D01*
X105650207Y-65860325D01*
X105700000Y-65865229D01*
X106009500Y-65864000D01*
X106073000Y-65800500D01*
X106073000Y-65327000D01*
X105509500Y-65327000D01*
X105446000Y-65390500D01*
X105444771Y-65610000D01*
X105318521Y-65610000D01*
X105335801Y-65577672D01*
X105350325Y-65529793D01*
X105355229Y-65480000D01*
X105354000Y-65110500D01*
X105290500Y-65047000D01*
X104527000Y-65047000D01*
X104273000Y-65047000D01*
X103509500Y-65047000D01*
X103446000Y-65110500D01*
X103444771Y-65480000D01*
X103354502Y-65480000D01*
X103354000Y-65390500D01*
X103290500Y-65327000D01*
X102727000Y-65327000D01*
X102473000Y-65327000D01*
X101909500Y-65327000D01*
X101846000Y-65390500D01*
X101844771Y-65610000D01*
X99443869Y-65610000D01*
X99501869Y-65552000D01*
X100172232Y-65552000D01*
X100193199Y-65554065D01*
X100214166Y-65552000D01*
X100214177Y-65552000D01*
X100276906Y-65545822D01*
X100357395Y-65521405D01*
X100431575Y-65481755D01*
X100496594Y-65428395D01*
X100509967Y-65412100D01*
X100554758Y-65367309D01*
X100626868Y-65415491D01*
X100759174Y-65470294D01*
X100899629Y-65498232D01*
X101042835Y-65498232D01*
X101183290Y-65470294D01*
X101315596Y-65415491D01*
X101434668Y-65335930D01*
X101535930Y-65234668D01*
X101615491Y-65115596D01*
X101670294Y-64983290D01*
X101698232Y-64842835D01*
X101698232Y-64790000D01*
X101844771Y-64790000D01*
X101846000Y-65009500D01*
X101909500Y-65073000D01*
X102473000Y-65073000D01*
X102473000Y-64599500D01*
X102727000Y-64599500D01*
X102727000Y-65073000D01*
X103290500Y-65073000D01*
X103354000Y-65009500D01*
X103355229Y-64790000D01*
X103350325Y-64740207D01*
X103335801Y-64692328D01*
X103312215Y-64648202D01*
X103280474Y-64609526D01*
X103241798Y-64577785D01*
X103197672Y-64554199D01*
X103149793Y-64539675D01*
X103100000Y-64534771D01*
X102790500Y-64536000D01*
X102727000Y-64599500D01*
X102473000Y-64599500D01*
X102409500Y-64536000D01*
X102100000Y-64534771D01*
X102050207Y-64539675D01*
X102002328Y-64554199D01*
X101958202Y-64577785D01*
X101919526Y-64609526D01*
X101887785Y-64648202D01*
X101864199Y-64692328D01*
X101849675Y-64740207D01*
X101844771Y-64790000D01*
X101698232Y-64790000D01*
X101698232Y-64699629D01*
X101670294Y-64559174D01*
X101615491Y-64426868D01*
X101570812Y-64360000D01*
X103444771Y-64360000D01*
X103446000Y-64729500D01*
X103509500Y-64793000D01*
X104273000Y-64793000D01*
X104273000Y-64169500D01*
X104527000Y-64169500D01*
X104527000Y-64793000D01*
X105290500Y-64793000D01*
X105293500Y-64790000D01*
X105444771Y-64790000D01*
X105446000Y-65009500D01*
X105509500Y-65073000D01*
X106073000Y-65073000D01*
X106073000Y-64599500D01*
X106009500Y-64536000D01*
X105700000Y-64534771D01*
X105650207Y-64539675D01*
X105602328Y-64554199D01*
X105558202Y-64577785D01*
X105519526Y-64609526D01*
X105487785Y-64648202D01*
X105464199Y-64692328D01*
X105449675Y-64740207D01*
X105444771Y-64790000D01*
X105293500Y-64790000D01*
X105354000Y-64729500D01*
X105355229Y-64360000D01*
X105350325Y-64310207D01*
X105335801Y-64262328D01*
X105312215Y-64218202D01*
X105280474Y-64179526D01*
X105241798Y-64147785D01*
X105197672Y-64124199D01*
X105149793Y-64109675D01*
X105100000Y-64104771D01*
X104590500Y-64106000D01*
X104527000Y-64169500D01*
X104273000Y-64169500D01*
X104209500Y-64106000D01*
X103700000Y-64104771D01*
X103650207Y-64109675D01*
X103602328Y-64124199D01*
X103558202Y-64147785D01*
X103519526Y-64179526D01*
X103487785Y-64218202D01*
X103464199Y-64262328D01*
X103449675Y-64310207D01*
X103444771Y-64360000D01*
X101570812Y-64360000D01*
X101567309Y-64354758D01*
X102170068Y-63752000D01*
X106329932Y-63752000D01*
X106848001Y-64270070D01*
X106848001Y-64582876D01*
X106841798Y-64577785D01*
X106797672Y-64554199D01*
X106749793Y-64539675D01*
X106700000Y-64534771D01*
X106390500Y-64536000D01*
X106327000Y-64599500D01*
X106327000Y-65073000D01*
X106347000Y-65073000D01*
X106347000Y-65327000D01*
X106327000Y-65327000D01*
X106327000Y-65800500D01*
X106390500Y-65864000D01*
X106700000Y-65865229D01*
X106749793Y-65860325D01*
X106797672Y-65845801D01*
X106841798Y-65822215D01*
X106848001Y-65817125D01*
X106848000Y-66098327D01*
X106825743Y-66086430D01*
X106764103Y-66067732D01*
X106700000Y-66061418D01*
X105700000Y-66061418D01*
X105635897Y-66067732D01*
X105574257Y-66086430D01*
X105517450Y-66116794D01*
X105467657Y-66157657D01*
X105428582Y-66205271D01*
X105428582Y-66120000D01*
X105422268Y-66055897D01*
X105403570Y-65994257D01*
X105373206Y-65937450D01*
X105332343Y-65887657D01*
X105282550Y-65846794D01*
X105225743Y-65816430D01*
X105164103Y-65797732D01*
X105100000Y-65791418D01*
X103700000Y-65791418D01*
X103635897Y-65797732D01*
X103574257Y-65816430D01*
X103517450Y-65846794D01*
X103467657Y-65887657D01*
X103426794Y-65937450D01*
X103396430Y-65994257D01*
X103377732Y-66055897D01*
X103371418Y-66120000D01*
X103371418Y-66205271D01*
X103332343Y-66157657D01*
X103282550Y-66116794D01*
X103225743Y-66086430D01*
X103164103Y-66067732D01*
X103100000Y-66061418D01*
X102100000Y-66061418D01*
X102035897Y-66067732D01*
X101974257Y-66086430D01*
X101917450Y-66116794D01*
X101867657Y-66157657D01*
X101826794Y-66207450D01*
X101796430Y-66264257D01*
X101777732Y-66325897D01*
X101771418Y-66390000D01*
X101771418Y-67210000D01*
X101777732Y-67274103D01*
X101796430Y-67335743D01*
X101826794Y-67392550D01*
X101867657Y-67442343D01*
X101917450Y-67483206D01*
X101974257Y-67513570D01*
X102035897Y-67532268D01*
X102073001Y-67535923D01*
X102073000Y-68423000D01*
X101175881Y-68423000D01*
X101150000Y-68420451D01*
X101124119Y-68423000D01*
X101046690Y-68430626D01*
X100947350Y-68460761D01*
X100855798Y-68509696D01*
X100775552Y-68575552D01*
X100759053Y-68595656D01*
X100081711Y-69273000D01*
X99079844Y-69273000D01*
X99147476Y-69205368D01*
X99096783Y-69154675D01*
X99226349Y-69070642D01*
X99301568Y-68893071D01*
X99340700Y-68704237D01*
X99342239Y-68511397D01*
X99306128Y-68321962D01*
X99233753Y-68143212D01*
X99226349Y-68129358D01*
X99096782Y-68045324D01*
X98542105Y-68600000D01*
X98556248Y-68614142D01*
X98376642Y-68793748D01*
X98362500Y-68779605D01*
X98348358Y-68793748D01*
X98168752Y-68614142D01*
X98182895Y-68600000D01*
X97628218Y-68045324D01*
X97498651Y-68129358D01*
X97423432Y-68306929D01*
X97384300Y-68495763D01*
X97382761Y-68688603D01*
X97418872Y-68878038D01*
X97491247Y-69056788D01*
X97498651Y-69070642D01*
X97628217Y-69154675D01*
X97577524Y-69205368D01*
X97647513Y-69275357D01*
X97623397Y-69277732D01*
X97561757Y-69296430D01*
X97504950Y-69326794D01*
X97455157Y-69367657D01*
X97414294Y-69417450D01*
X97383930Y-69474257D01*
X97365232Y-69535897D01*
X97358918Y-69600000D01*
X96867179Y-69600000D01*
X96867729Y-69350000D01*
X96862825Y-69300207D01*
X96848301Y-69252328D01*
X96824715Y-69208202D01*
X96792974Y-69169526D01*
X96754298Y-69137785D01*
X96710172Y-69114199D01*
X96662293Y-69099675D01*
X96612500Y-69094771D01*
X95853000Y-69096000D01*
X95789500Y-69159500D01*
X95535500Y-69159500D01*
X95472000Y-69096000D01*
X94712500Y-69094771D01*
X94662707Y-69099675D01*
X94614828Y-69114199D01*
X94570702Y-69137785D01*
X94532026Y-69169526D01*
X94500285Y-69208202D01*
X94476699Y-69252328D01*
X94462175Y-69300207D01*
X94457271Y-69350000D01*
X93702000Y-69350000D01*
X93702000Y-67600000D01*
X94457271Y-67600000D01*
X94458500Y-68009500D01*
X94522000Y-68073000D01*
X94594235Y-68073000D01*
X94618829Y-68114066D01*
X94732447Y-68239517D01*
X94850313Y-68327000D01*
X94522000Y-68327000D01*
X94458500Y-68390500D01*
X94457271Y-68800000D01*
X94462175Y-68849793D01*
X94476699Y-68897672D01*
X94500285Y-68941798D01*
X94532026Y-68980474D01*
X94570702Y-69012215D01*
X94614828Y-69035801D01*
X94662707Y-69050325D01*
X94712500Y-69055229D01*
X95472000Y-69054000D01*
X95535500Y-68990500D01*
X95535500Y-66746000D01*
X95789500Y-66746000D01*
X95789500Y-68990500D01*
X95853000Y-69054000D01*
X96612500Y-69055229D01*
X96662293Y-69050325D01*
X96710172Y-69035801D01*
X96754298Y-69012215D01*
X96792974Y-68980474D01*
X96824715Y-68941798D01*
X96848301Y-68897672D01*
X96862825Y-68849793D01*
X96867729Y-68800000D01*
X96866500Y-68390500D01*
X96803000Y-68327000D01*
X96474687Y-68327000D01*
X96592553Y-68239517D01*
X96706171Y-68114066D01*
X96730765Y-68073000D01*
X96803000Y-68073000D01*
X96866500Y-68009500D01*
X96866931Y-67865718D01*
X97807824Y-67865718D01*
X98362500Y-68420395D01*
X98917176Y-67865718D01*
X98833142Y-67736151D01*
X98655571Y-67660932D01*
X98466737Y-67621800D01*
X98273897Y-67620261D01*
X98084462Y-67656372D01*
X97905712Y-67728747D01*
X97891858Y-67736151D01*
X97807824Y-67865718D01*
X96866931Y-67865718D01*
X96867729Y-67600000D01*
X96866500Y-67587521D01*
X96866500Y-67472998D01*
X96832624Y-67472998D01*
X96824715Y-67458202D01*
X96803364Y-67432186D01*
X96826740Y-67342454D01*
X96793132Y-67231140D01*
X96706171Y-67085934D01*
X96592553Y-66960483D01*
X96456644Y-66859608D01*
X96303667Y-66787186D01*
X96139500Y-66746000D01*
X95789500Y-66746000D01*
X95535500Y-66746000D01*
X95185500Y-66746000D01*
X95021333Y-66787186D01*
X94868356Y-66859608D01*
X94732447Y-66960483D01*
X94618829Y-67085934D01*
X94531868Y-67231140D01*
X94498260Y-67342454D01*
X94521636Y-67432186D01*
X94500285Y-67458202D01*
X94492376Y-67472998D01*
X94458500Y-67472998D01*
X94458500Y-67587521D01*
X94457271Y-67600000D01*
X93702000Y-67600000D01*
X93702000Y-65728397D01*
X93873000Y-65728397D01*
X93873000Y-65871603D01*
X93900938Y-66012058D01*
X93955741Y-66144364D01*
X94035302Y-66263436D01*
X94136564Y-66364698D01*
X94255636Y-66444259D01*
X94387942Y-66499062D01*
X94528397Y-66527000D01*
X94671603Y-66527000D01*
X94812058Y-66499062D01*
X94944364Y-66444259D01*
X95063436Y-66364698D01*
X95101134Y-66327000D01*
X95171418Y-66327000D01*
X95171418Y-66350000D01*
X95177732Y-66414103D01*
X95196430Y-66475743D01*
X95226794Y-66532550D01*
X95267657Y-66582343D01*
X95317450Y-66623206D01*
X95374257Y-66653570D01*
X95435897Y-66672268D01*
X95500000Y-66678582D01*
X96900000Y-66678582D01*
X96964103Y-66672268D01*
X97025743Y-66653570D01*
X97082550Y-66623206D01*
X97132343Y-66582343D01*
X97173206Y-66532550D01*
X97203570Y-66475743D01*
X97222268Y-66414103D01*
X97228582Y-66350000D01*
X97228582Y-65350000D01*
X97222268Y-65285897D01*
X97203570Y-65224257D01*
X97173206Y-65167450D01*
X97132343Y-65117657D01*
X97082550Y-65076794D01*
X97025743Y-65046430D01*
X96964103Y-65027732D01*
X96900000Y-65021418D01*
X95500000Y-65021418D01*
X95435897Y-65027732D01*
X95374257Y-65046430D01*
X95317450Y-65076794D01*
X95267657Y-65117657D01*
X95226794Y-65167450D01*
X95196430Y-65224257D01*
X95181644Y-65273000D01*
X95101134Y-65273000D01*
X95063436Y-65235302D01*
X94944364Y-65155741D01*
X94812058Y-65100938D01*
X94671603Y-65073000D01*
X94528397Y-65073000D01*
X94387942Y-65100938D01*
X94255636Y-65155741D01*
X94136564Y-65235302D01*
X94035302Y-65336564D01*
X93955741Y-65455636D01*
X93900938Y-65587942D01*
X93873000Y-65728397D01*
X93702000Y-65728397D01*
X93702000Y-64730000D01*
X95244771Y-64730000D01*
X95249675Y-64779793D01*
X95264199Y-64827672D01*
X95287785Y-64871798D01*
X95319526Y-64910474D01*
X95358202Y-64942215D01*
X95402328Y-64965801D01*
X95450207Y-64980325D01*
X95500000Y-64985229D01*
X96009500Y-64984000D01*
X96073000Y-64920500D01*
X96073000Y-64257000D01*
X96327000Y-64257000D01*
X96327000Y-64920500D01*
X96390500Y-64984000D01*
X96900000Y-64985229D01*
X96949793Y-64980325D01*
X96997672Y-64965801D01*
X97041798Y-64942215D01*
X97080474Y-64910474D01*
X97112215Y-64871798D01*
X97135801Y-64827672D01*
X97150325Y-64779793D01*
X97155229Y-64730000D01*
X97154000Y-64320500D01*
X97090500Y-64257000D01*
X96327000Y-64257000D01*
X96073000Y-64257000D01*
X95309500Y-64257000D01*
X95246000Y-64320500D01*
X95244771Y-64730000D01*
X93702000Y-64730000D01*
X93702000Y-63530000D01*
X95244771Y-63530000D01*
X95246000Y-63939500D01*
X95309500Y-64003000D01*
X96073000Y-64003000D01*
X96073000Y-63339500D01*
X96327000Y-63339500D01*
X96327000Y-64003000D01*
X97090500Y-64003000D01*
X97154000Y-63939500D01*
X97155229Y-63530000D01*
X97150325Y-63480207D01*
X97135801Y-63432328D01*
X97112215Y-63388202D01*
X97080474Y-63349526D01*
X97041798Y-63317785D01*
X96997672Y-63294199D01*
X96949793Y-63279675D01*
X96900000Y-63274771D01*
X96390500Y-63276000D01*
X96327000Y-63339500D01*
X96073000Y-63339500D01*
X96009500Y-63276000D01*
X95500000Y-63274771D01*
X95450207Y-63279675D01*
X95402328Y-63294199D01*
X95358202Y-63317785D01*
X95319526Y-63349526D01*
X95287785Y-63388202D01*
X95264199Y-63432328D01*
X95249675Y-63480207D01*
X95244771Y-63530000D01*
X93702000Y-63530000D01*
X93702000Y-62402000D01*
X130398000Y-62402000D01*
X130398001Y-79798000D01*
X130398001Y-79798000D01*
G37*
X130398001Y-79798000D02*
X93702000Y-79798000D01*
X93702000Y-73400000D01*
X94457271Y-73400000D01*
X94458500Y-73809500D01*
X94522000Y-73873000D01*
X94850313Y-73873000D01*
X94732447Y-73960483D01*
X94618829Y-74085934D01*
X94594235Y-74127000D01*
X94522000Y-74127000D01*
X94458500Y-74190500D01*
X94457271Y-74600000D01*
X94458500Y-74612479D01*
X94458500Y-74727002D01*
X94492376Y-74727002D01*
X94500285Y-74741798D01*
X94521636Y-74767814D01*
X94498260Y-74857546D01*
X94531868Y-74968860D01*
X94618829Y-75114066D01*
X94732447Y-75239517D01*
X94868356Y-75340392D01*
X95021333Y-75412814D01*
X95185500Y-75454000D01*
X95535500Y-75454000D01*
X95535500Y-73209500D01*
X95789500Y-73209500D01*
X95789500Y-75454000D01*
X96139500Y-75454000D01*
X96303667Y-75412814D01*
X96456644Y-75340392D01*
X96592553Y-75239517D01*
X96706171Y-75114066D01*
X96793132Y-74968860D01*
X96826740Y-74857546D01*
X96803364Y-74767814D01*
X96824715Y-74741798D01*
X96832624Y-74727002D01*
X96866500Y-74727002D01*
X96866500Y-74612479D01*
X96867729Y-74600000D01*
X96866932Y-74334282D01*
X97807824Y-74334282D01*
X97891858Y-74463849D01*
X98069429Y-74539068D01*
X98258263Y-74578200D01*
X98451103Y-74579739D01*
X98640538Y-74543628D01*
X98819288Y-74471253D01*
X98833142Y-74463849D01*
X98917176Y-74334282D01*
X98362500Y-73779605D01*
X97807824Y-74334282D01*
X96866932Y-74334282D01*
X96866500Y-74190500D01*
X96803000Y-74127000D01*
X96730765Y-74127000D01*
X96706171Y-74085934D01*
X96592553Y-73960483D01*
X96474687Y-73873000D01*
X96803000Y-73873000D01*
X96866500Y-73809500D01*
X96866862Y-73688603D01*
X97382761Y-73688603D01*
X97418872Y-73878038D01*
X97491247Y-74056788D01*
X97498651Y-74070642D01*
X97628218Y-74154676D01*
X98182895Y-73600000D01*
X98542105Y-73600000D01*
X99096782Y-74154676D01*
X99226349Y-74070642D01*
X99301568Y-73893071D01*
X99340700Y-73704237D01*
X99342239Y-73511397D01*
X99306128Y-73321962D01*
X99233753Y-73143212D01*
X99226349Y-73129358D01*
X99096782Y-73045324D01*
X98542105Y-73600000D01*
X98182895Y-73600000D01*
X97628218Y-73045324D01*
X97498651Y-73129358D01*
X97423432Y-73306929D01*
X97384300Y-73495763D01*
X97382761Y-73688603D01*
X96866862Y-73688603D01*
X96867729Y-73400000D01*
X96862825Y-73350207D01*
X96848301Y-73302328D01*
X96824715Y-73258202D01*
X96792974Y-73219526D01*
X96754298Y-73187785D01*
X96710172Y-73164199D01*
X96662293Y-73149675D01*
X96612500Y-73144771D01*
X95853000Y-73146000D01*
X95789500Y-73209500D01*
X95535500Y-73209500D01*
X95472000Y-73146000D01*
X94712500Y-73144771D01*
X94662707Y-73149675D01*
X94614828Y-73164199D01*
X94570702Y-73187785D01*
X94532026Y-73219526D01*
X94500285Y-73258202D01*
X94476699Y-73302328D01*
X94462175Y-73350207D01*
X94457271Y-73400000D01*
X93702000Y-73400000D01*
X93702000Y-72850000D01*
X94457271Y-72850000D01*
X94462175Y-72899793D01*
X94476699Y-72947672D01*
X94500285Y-72991798D01*
X94532026Y-73030474D01*
X94570702Y-73062215D01*
X94614828Y-73085801D01*
X94662707Y-73100325D01*
X94712500Y-73105229D01*
X95472000Y-73104000D01*
X95535500Y-73040500D01*
X95535500Y-72227000D01*
X95789500Y-72227000D01*
X95789500Y-73040500D01*
X95853000Y-73104000D01*
X96612500Y-73105229D01*
X96662293Y-73100325D01*
X96710172Y-73085801D01*
X96754298Y-73062215D01*
X96792974Y-73030474D01*
X96824715Y-72991798D01*
X96848301Y-72947672D01*
X96862825Y-72899793D01*
X96867729Y-72850000D01*
X96867180Y-72600000D01*
X97432271Y-72600000D01*
X97437175Y-72649793D01*
X97451699Y-72697672D01*
X97475285Y-72741798D01*
X97507026Y-72780474D01*
X97545702Y-72812215D01*
X97589828Y-72835801D01*
X97637707Y-72850325D01*
X97687500Y-72855229D01*
X97814836Y-72854906D01*
X97807824Y-72865718D01*
X98362500Y-73420395D01*
X98917176Y-72865718D01*
X98910164Y-72854906D01*
X99037500Y-72855229D01*
X99087293Y-72850325D01*
X99135172Y-72835801D01*
X99179298Y-72812215D01*
X99217974Y-72780474D01*
X99249715Y-72741798D01*
X99273301Y-72697672D01*
X99287825Y-72649793D01*
X99292729Y-72600000D01*
X99291500Y-72536500D01*
X99228000Y-72473000D01*
X98489500Y-72473000D01*
X98489500Y-72547000D01*
X98235500Y-72547000D01*
X98235500Y-72473000D01*
X97497000Y-72473000D01*
X97433500Y-72536500D01*
X97432271Y-72600000D01*
X96867180Y-72600000D01*
X96866500Y-72290500D01*
X96803000Y-72227000D01*
X95789500Y-72227000D01*
X95535500Y-72227000D01*
X94522000Y-72227000D01*
X94458500Y-72290500D01*
X94457271Y-72850000D01*
X93702000Y-72850000D01*
X93702000Y-70850000D01*
X94457271Y-70850000D01*
X94462175Y-70899793D01*
X94476699Y-70947672D01*
X94500285Y-70991798D01*
X94532026Y-71030474D01*
X94570702Y-71062215D01*
X94614828Y-71085801D01*
X94661636Y-71100000D01*
X94614828Y-71114199D01*
X94570702Y-71137785D01*
X94532026Y-71169526D01*
X94500285Y-71208202D01*
X94476699Y-71252328D01*
X94462175Y-71300207D01*
X94457271Y-71350000D01*
X94458500Y-71909500D01*
X94522000Y-71973000D01*
X95535500Y-71973000D01*
X95535500Y-71159500D01*
X95476000Y-71100000D01*
X95535500Y-71040500D01*
X95535500Y-70227000D01*
X95789500Y-70227000D01*
X95789500Y-71040500D01*
X95849000Y-71100000D01*
X95789500Y-71159500D01*
X95789500Y-71973000D01*
X96803000Y-71973000D01*
X96866500Y-71909500D01*
X96867729Y-71350000D01*
X96862825Y-71300207D01*
X96848301Y-71252328D01*
X96824715Y-71208202D01*
X96792974Y-71169526D01*
X96754298Y-71137785D01*
X96710172Y-71114199D01*
X96663364Y-71100000D01*
X96710172Y-71085801D01*
X96754298Y-71062215D01*
X96792974Y-71030474D01*
X96824715Y-70991798D01*
X96848301Y-70947672D01*
X96862825Y-70899793D01*
X96867729Y-70850000D01*
X96866500Y-70290500D01*
X96803000Y-70227000D01*
X95789500Y-70227000D01*
X95535500Y-70227000D01*
X94522000Y-70227000D01*
X94458500Y-70290500D01*
X94457271Y-70850000D01*
X93702000Y-70850000D01*
X93702000Y-69350000D01*
X94457271Y-69350000D01*
X94458500Y-69909500D01*
X94522000Y-69973000D01*
X95535500Y-69973000D01*
X95535500Y-69159500D01*
X95789500Y-69159500D01*
X95789500Y-69973000D01*
X96803000Y-69973000D01*
X96866500Y-69909500D01*
X96867179Y-69600000D01*
X97358918Y-69600000D01*
X97358918Y-70000000D01*
X97365232Y-70064103D01*
X97383705Y-70125000D01*
X97365232Y-70185897D01*
X97358918Y-70250000D01*
X97358918Y-70650000D01*
X97365232Y-70714103D01*
X97383705Y-70775000D01*
X97365232Y-70835897D01*
X97358918Y-70900000D01*
X97358918Y-71300000D01*
X97365232Y-71364103D01*
X97383705Y-71425000D01*
X97365232Y-71485897D01*
X97358918Y-71550000D01*
X97358918Y-71950000D01*
X97365232Y-72014103D01*
X97383930Y-72075743D01*
X97414294Y-72132550D01*
X97436276Y-72159336D01*
X97432271Y-72200000D01*
X97433500Y-72263500D01*
X97497000Y-72327000D01*
X98235500Y-72327000D01*
X98235500Y-72278582D01*
X98489500Y-72278582D01*
X98489500Y-72327000D01*
X99228000Y-72327000D01*
X99291500Y-72263500D01*
X99292729Y-72200000D01*
X99288724Y-72159336D01*
X99310706Y-72132550D01*
X99341070Y-72075743D01*
X99359768Y-72014103D01*
X99366082Y-71950000D01*
X99366082Y-71550000D01*
X99363912Y-71527973D01*
X99375001Y-71529065D01*
X99395968Y-71527000D01*
X99395979Y-71527000D01*
X99445034Y-71522169D01*
X99429706Y-71559174D01*
X99401768Y-71699629D01*
X99401768Y-71842835D01*
X99429706Y-71983290D01*
X99484509Y-72115596D01*
X99564070Y-72234668D01*
X99665332Y-72335930D01*
X99784404Y-72415491D01*
X99916710Y-72470294D01*
X100057165Y-72498232D01*
X100200371Y-72498232D01*
X100340826Y-72470294D01*
X100473132Y-72415491D01*
X100592204Y-72335930D01*
X100693466Y-72234668D01*
X100773027Y-72115596D01*
X100827830Y-71983290D01*
X100855768Y-71842835D01*
X100855768Y-71755768D01*
X100942835Y-71755768D01*
X101083290Y-71727830D01*
X101215596Y-71673027D01*
X101334668Y-71593466D01*
X101435930Y-71492204D01*
X101515491Y-71373132D01*
X101570294Y-71240826D01*
X101587071Y-71156482D01*
X101607450Y-71173206D01*
X101664257Y-71203570D01*
X101673001Y-71206222D01*
X101673001Y-71398865D01*
X101635302Y-71436564D01*
X101555741Y-71555636D01*
X101500938Y-71687942D01*
X101473000Y-71828397D01*
X101473000Y-71971603D01*
X101500938Y-72112058D01*
X101555741Y-72244364D01*
X101635302Y-72363436D01*
X101663288Y-72391422D01*
X101645661Y-72409050D01*
X101625553Y-72425552D01*
X101586614Y-72473000D01*
X101559696Y-72505799D01*
X101510761Y-72597351D01*
X101480626Y-72696691D01*
X101470451Y-72800000D01*
X101473001Y-72825891D01*
X101473000Y-78074119D01*
X101470451Y-78100000D01*
X101473000Y-78125880D01*
X101480626Y-78203309D01*
X101510761Y-78302649D01*
X101559696Y-78394202D01*
X101625552Y-78474448D01*
X101645666Y-78490955D01*
X102109053Y-78954344D01*
X102125552Y-78974448D01*
X102205798Y-79040304D01*
X102297350Y-79089239D01*
X102390935Y-79117628D01*
X102396430Y-79135743D01*
X102426794Y-79192550D01*
X102467657Y-79242343D01*
X102517450Y-79283206D01*
X102574257Y-79313570D01*
X102635897Y-79332268D01*
X102700000Y-79338582D01*
X103700000Y-79338582D01*
X103764103Y-79332268D01*
X103825743Y-79313570D01*
X103882550Y-79283206D01*
X103932343Y-79242343D01*
X103973206Y-79192550D01*
X104000000Y-79142422D01*
X104026794Y-79192550D01*
X104067657Y-79242343D01*
X104117450Y-79283206D01*
X104174257Y-79313570D01*
X104235897Y-79332268D01*
X104300000Y-79338582D01*
X105300000Y-79338582D01*
X105364103Y-79332268D01*
X105425743Y-79313570D01*
X105482550Y-79283206D01*
X105532343Y-79242343D01*
X105573206Y-79192550D01*
X105600000Y-79142422D01*
X105626794Y-79192550D01*
X105667657Y-79242343D01*
X105717450Y-79283206D01*
X105774257Y-79313570D01*
X105835897Y-79332268D01*
X105900000Y-79338582D01*
X106900000Y-79338582D01*
X106964103Y-79332268D01*
X107025743Y-79313570D01*
X107082550Y-79283206D01*
X107132343Y-79242343D01*
X107173206Y-79192550D01*
X107203570Y-79135743D01*
X107222268Y-79074103D01*
X107228582Y-79010000D01*
X107228582Y-78190000D01*
X107222268Y-78125897D01*
X107203570Y-78064257D01*
X107173206Y-78007450D01*
X107132343Y-77957657D01*
X107082550Y-77916794D01*
X107025743Y-77886430D01*
X106964103Y-77867732D01*
X106900000Y-77861418D01*
X105900000Y-77861418D01*
X105835897Y-77867732D01*
X105774257Y-77886430D01*
X105717450Y-77916794D01*
X105667657Y-77957657D01*
X105626794Y-78007450D01*
X105600000Y-78057578D01*
X105573206Y-78007450D01*
X105532343Y-77957657D01*
X105482550Y-77916794D01*
X105425743Y-77886430D01*
X105364103Y-77867732D01*
X105300000Y-77861418D01*
X104300000Y-77861418D01*
X104235897Y-77867732D01*
X104174257Y-77886430D01*
X104117450Y-77916794D01*
X104067657Y-77957657D01*
X104026794Y-78007450D01*
X104000000Y-78057578D01*
X103973206Y-78007450D01*
X103932343Y-77957657D01*
X103882550Y-77916794D01*
X103825743Y-77886430D01*
X103764103Y-77867732D01*
X103700000Y-77861418D01*
X102700000Y-77861418D01*
X102635897Y-77867732D01*
X102574257Y-77886430D01*
X102546537Y-77901247D01*
X102527000Y-77881710D01*
X102527000Y-77688311D01*
X102574257Y-77713570D01*
X102635897Y-77732268D01*
X102700000Y-77738582D01*
X103700000Y-77738582D01*
X103764103Y-77732268D01*
X103825743Y-77713570D01*
X103882550Y-77683206D01*
X103932343Y-77642343D01*
X103973206Y-77592550D01*
X104000000Y-77542422D01*
X104026794Y-77592550D01*
X104067657Y-77642343D01*
X104117450Y-77683206D01*
X104174257Y-77713570D01*
X104235897Y-77732268D01*
X104300000Y-77738582D01*
X105300000Y-77738582D01*
X105364103Y-77732268D01*
X105425743Y-77713570D01*
X105482550Y-77683206D01*
X105532343Y-77642343D01*
X105573206Y-77592550D01*
X105600000Y-77542422D01*
X105626794Y-77592550D01*
X105667657Y-77642343D01*
X105717450Y-77683206D01*
X105774257Y-77713570D01*
X105835897Y-77732268D01*
X105900000Y-77738582D01*
X106900000Y-77738582D01*
X106964103Y-77732268D01*
X107025743Y-77713570D01*
X107082550Y-77683206D01*
X107132343Y-77642343D01*
X107173206Y-77592550D01*
X107203570Y-77535743D01*
X107222268Y-77474103D01*
X107228582Y-77410000D01*
X107228582Y-76590000D01*
X107222268Y-76525897D01*
X107203570Y-76464257D01*
X107173206Y-76407450D01*
X107132343Y-76357657D01*
X107082550Y-76316794D01*
X107025743Y-76286430D01*
X106964103Y-76267732D01*
X106900000Y-76261418D01*
X106852000Y-76261418D01*
X106852000Y-76238582D01*
X106900000Y-76238582D01*
X106964103Y-76232268D01*
X107025743Y-76213570D01*
X107082550Y-76183206D01*
X107132343Y-76142343D01*
X107134265Y-76140000D01*
X107244771Y-76140000D01*
X107249675Y-76189793D01*
X107264199Y-76237672D01*
X107287785Y-76281798D01*
X107319526Y-76320474D01*
X107358202Y-76352215D01*
X107402328Y-76375801D01*
X107450207Y-76390325D01*
X107500000Y-76395229D01*
X108009500Y-76394000D01*
X108073000Y-76330500D01*
X108073000Y-75707000D01*
X108327000Y-75707000D01*
X108327000Y-76330500D01*
X108390500Y-76394000D01*
X108900000Y-76395229D01*
X108949793Y-76390325D01*
X108997672Y-76375801D01*
X109027233Y-76360000D01*
X116336418Y-76360000D01*
X116336418Y-77690000D01*
X116342732Y-77754103D01*
X116361430Y-77815743D01*
X116391794Y-77872550D01*
X116432657Y-77922343D01*
X116482450Y-77963206D01*
X116539257Y-77993570D01*
X116600897Y-78012268D01*
X116665000Y-78018582D01*
X117195000Y-78018582D01*
X117259103Y-78012268D01*
X117299545Y-78000000D01*
X117595089Y-78000000D01*
X117606712Y-78118012D01*
X117641134Y-78231489D01*
X117675203Y-78295227D01*
X117697035Y-78336071D01*
X117772264Y-78427737D01*
X117795229Y-78446584D01*
X118453420Y-79104777D01*
X118472263Y-79127737D01*
X118495223Y-79146580D01*
X118495227Y-79146584D01*
X118550916Y-79192286D01*
X118563929Y-79202966D01*
X118668510Y-79258866D01*
X118781988Y-79293289D01*
X118870434Y-79302000D01*
X118870443Y-79302000D01*
X118899999Y-79304911D01*
X118929556Y-79302000D01*
X125670444Y-79302000D01*
X125700000Y-79304911D01*
X125729556Y-79302000D01*
X125729566Y-79302000D01*
X125818012Y-79293289D01*
X125931490Y-79258866D01*
X126036071Y-79202966D01*
X126127737Y-79127737D01*
X126146589Y-79104766D01*
X128304773Y-76946583D01*
X128327737Y-76927737D01*
X128402966Y-76836071D01*
X128458866Y-76731490D01*
X128493289Y-76618012D01*
X128502000Y-76529566D01*
X128502000Y-76529557D01*
X128504911Y-76500000D01*
X128502000Y-76470444D01*
X128502000Y-74679623D01*
X128682070Y-74583374D01*
X128861291Y-74436291D01*
X129008374Y-74257070D01*
X129117667Y-74052597D01*
X129184969Y-73830732D01*
X129207694Y-73600000D01*
X129184969Y-73369268D01*
X129117667Y-73147403D01*
X129008374Y-72942930D01*
X128861291Y-72763709D01*
X128682070Y-72616626D01*
X128477597Y-72507333D01*
X128255732Y-72440031D01*
X128082812Y-72423000D01*
X127717188Y-72423000D01*
X127544268Y-72440031D01*
X127322403Y-72507333D01*
X127117930Y-72616626D01*
X126938709Y-72763709D01*
X126791626Y-72942930D01*
X126682333Y-73147403D01*
X126615031Y-73369268D01*
X126592306Y-73600000D01*
X126615031Y-73830732D01*
X126682333Y-74052597D01*
X126791626Y-74257070D01*
X126938709Y-74436291D01*
X127117930Y-74583374D01*
X127298001Y-74679624D01*
X127298000Y-76250644D01*
X125450645Y-78098000D01*
X119149356Y-78098000D01*
X118978467Y-77927111D01*
X119022450Y-77963206D01*
X119079257Y-77993570D01*
X119140897Y-78012268D01*
X119205000Y-78018582D01*
X119735000Y-78018582D01*
X119799103Y-78012268D01*
X119860743Y-77993570D01*
X119917550Y-77963206D01*
X119967343Y-77922343D01*
X120008206Y-77872550D01*
X120038570Y-77815743D01*
X120057268Y-77754103D01*
X120063582Y-77690000D01*
X120063582Y-77627000D01*
X120487102Y-77627000D01*
X120516794Y-77682550D01*
X120557657Y-77732343D01*
X120607450Y-77773206D01*
X120664257Y-77803570D01*
X120725897Y-77822268D01*
X120790000Y-77828582D01*
X121610000Y-77828582D01*
X121674103Y-77822268D01*
X121735743Y-77803570D01*
X121792550Y-77773206D01*
X121842343Y-77732343D01*
X121883206Y-77682550D01*
X121913570Y-77625743D01*
X121932268Y-77564103D01*
X121938582Y-77500000D01*
X121938582Y-76500000D01*
X122061418Y-76500000D01*
X122061418Y-77500000D01*
X122067732Y-77564103D01*
X122086430Y-77625743D01*
X122116794Y-77682550D01*
X122157657Y-77732343D01*
X122207450Y-77773206D01*
X122264257Y-77803570D01*
X122325897Y-77822268D01*
X122390000Y-77828582D01*
X123210000Y-77828582D01*
X123274103Y-77822268D01*
X123335743Y-77803570D01*
X123392550Y-77773206D01*
X123442343Y-77732343D01*
X123483206Y-77682550D01*
X123513570Y-77625743D01*
X123520772Y-77602000D01*
X124370444Y-77602000D01*
X124400000Y-77604911D01*
X124429556Y-77602000D01*
X124429566Y-77602000D01*
X124518012Y-77593289D01*
X124631490Y-77558866D01*
X124736071Y-77502966D01*
X124827737Y-77427737D01*
X124846589Y-77404766D01*
X125804773Y-76446583D01*
X125827737Y-76427737D01*
X125854531Y-76395089D01*
X125902966Y-76336072D01*
X125958866Y-76231490D01*
X125993289Y-76118013D01*
X125995797Y-76092550D01*
X126002000Y-76029566D01*
X126002000Y-76029559D01*
X126004911Y-76000000D01*
X126002000Y-75970441D01*
X126002000Y-72449355D01*
X126749356Y-71702000D01*
X126762190Y-71702000D01*
X126791626Y-71757070D01*
X126938709Y-71936291D01*
X127117930Y-72083374D01*
X127322403Y-72192667D01*
X127544268Y-72259969D01*
X127717188Y-72277000D01*
X128082812Y-72277000D01*
X128255732Y-72259969D01*
X128477597Y-72192667D01*
X128682070Y-72083374D01*
X128861291Y-71936291D01*
X129008374Y-71757070D01*
X129117667Y-71552597D01*
X129184969Y-71330732D01*
X129207694Y-71100000D01*
X129184969Y-70869268D01*
X129117667Y-70647403D01*
X129008374Y-70442930D01*
X128861291Y-70263709D01*
X128682070Y-70116626D01*
X128477597Y-70007333D01*
X128255732Y-69940031D01*
X128082812Y-69923000D01*
X127717188Y-69923000D01*
X127544268Y-69940031D01*
X127322403Y-70007333D01*
X127117930Y-70116626D01*
X126938709Y-70263709D01*
X126791626Y-70442930D01*
X126762190Y-70498000D01*
X126529556Y-70498000D01*
X126500000Y-70495089D01*
X126470443Y-70498000D01*
X126470434Y-70498000D01*
X126381988Y-70506711D01*
X126268510Y-70541134D01*
X126163929Y-70597034D01*
X126072263Y-70672263D01*
X126053416Y-70695229D01*
X124995229Y-71753416D01*
X124972264Y-71772263D01*
X124953417Y-71795228D01*
X124953416Y-71795229D01*
X124897035Y-71863929D01*
X124841134Y-71968511D01*
X124806712Y-72081988D01*
X124795089Y-72200000D01*
X124798001Y-72229566D01*
X124798000Y-75750644D01*
X124150645Y-76398000D01*
X123520772Y-76398000D01*
X123513570Y-76374257D01*
X123483206Y-76317450D01*
X123442343Y-76267657D01*
X123392550Y-76226794D01*
X123335743Y-76196430D01*
X123274103Y-76177732D01*
X123210000Y-76171418D01*
X122390000Y-76171418D01*
X122325897Y-76177732D01*
X122264257Y-76196430D01*
X122207450Y-76226794D01*
X122157657Y-76267657D01*
X122116794Y-76317450D01*
X122086430Y-76374257D01*
X122067732Y-76435897D01*
X122061418Y-76500000D01*
X121938582Y-76500000D01*
X121932268Y-76435897D01*
X121913570Y-76374257D01*
X121883206Y-76317450D01*
X121842343Y-76267657D01*
X121792550Y-76226794D01*
X121735743Y-76196430D01*
X121674103Y-76177732D01*
X121610000Y-76171418D01*
X120790000Y-76171418D01*
X120725897Y-76177732D01*
X120664257Y-76196430D01*
X120607450Y-76226794D01*
X120557657Y-76267657D01*
X120516794Y-76317450D01*
X120486430Y-76374257D01*
X120471644Y-76423000D01*
X120063582Y-76423000D01*
X120063582Y-76360000D01*
X120057268Y-76295897D01*
X120038570Y-76234257D01*
X120008206Y-76177450D01*
X119967343Y-76127657D01*
X119917550Y-76086794D01*
X119860743Y-76056430D01*
X119799103Y-76037732D01*
X119735000Y-76031418D01*
X119205000Y-76031418D01*
X119140897Y-76037732D01*
X119079257Y-76056430D01*
X119022450Y-76086794D01*
X118972657Y-76127657D01*
X118931794Y-76177450D01*
X118901430Y-76234257D01*
X118882732Y-76295897D01*
X118876418Y-76360000D01*
X118876418Y-76909963D01*
X118865088Y-77025000D01*
X118876418Y-77140037D01*
X118876418Y-77690000D01*
X118882732Y-77754103D01*
X118901430Y-77815743D01*
X118931794Y-77872550D01*
X118967889Y-77916533D01*
X118802000Y-77750644D01*
X118802000Y-76995434D01*
X118793582Y-76909963D01*
X118793582Y-76360000D01*
X118787268Y-76295897D01*
X118768570Y-76234257D01*
X118738206Y-76177450D01*
X118697343Y-76127657D01*
X118647550Y-76086794D01*
X118590743Y-76056430D01*
X118529103Y-76037732D01*
X118465000Y-76031418D01*
X117935000Y-76031418D01*
X117870897Y-76037732D01*
X117809257Y-76056430D01*
X117752450Y-76086794D01*
X117702657Y-76127657D01*
X117661794Y-76177450D01*
X117631430Y-76234257D01*
X117612732Y-76295897D01*
X117606418Y-76360000D01*
X117606418Y-76909964D01*
X117598000Y-76995435D01*
X117598001Y-77970434D01*
X117595089Y-78000000D01*
X117299545Y-78000000D01*
X117320743Y-77993570D01*
X117377550Y-77963206D01*
X117427343Y-77922343D01*
X117468206Y-77872550D01*
X117498570Y-77815743D01*
X117517268Y-77754103D01*
X117523582Y-77690000D01*
X117523582Y-76360000D01*
X117517268Y-76295897D01*
X117498570Y-76234257D01*
X117468206Y-76177450D01*
X117427343Y-76127657D01*
X117377550Y-76086794D01*
X117320743Y-76056430D01*
X117259103Y-76037732D01*
X117195000Y-76031418D01*
X116665000Y-76031418D01*
X116600897Y-76037732D01*
X116539257Y-76056430D01*
X116482450Y-76086794D01*
X116432657Y-76127657D01*
X116391794Y-76177450D01*
X116361430Y-76234257D01*
X116342732Y-76295897D01*
X116336418Y-76360000D01*
X109027233Y-76360000D01*
X109041798Y-76352215D01*
X109080474Y-76320474D01*
X109112215Y-76281798D01*
X109135801Y-76237672D01*
X109150325Y-76189793D01*
X109155229Y-76140000D01*
X109154000Y-75770500D01*
X109090500Y-75707000D01*
X108327000Y-75707000D01*
X108073000Y-75707000D01*
X107309500Y-75707000D01*
X107246000Y-75770500D01*
X107244771Y-76140000D01*
X107134265Y-76140000D01*
X107173206Y-76092550D01*
X107203570Y-76035743D01*
X107222268Y-75974103D01*
X107228582Y-75910000D01*
X107228582Y-75090000D01*
X107222268Y-75025897D01*
X107220480Y-75020000D01*
X107244771Y-75020000D01*
X107246000Y-75389500D01*
X107309500Y-75453000D01*
X108073000Y-75453000D01*
X108073000Y-74829500D01*
X108327000Y-74829500D01*
X108327000Y-75453000D01*
X109090500Y-75453000D01*
X109154000Y-75389500D01*
X109155229Y-75020000D01*
X109150325Y-74970207D01*
X109135801Y-74922328D01*
X109112215Y-74878202D01*
X109080474Y-74839526D01*
X109041798Y-74807785D01*
X108997672Y-74784199D01*
X108949793Y-74769675D01*
X108900000Y-74764771D01*
X108390500Y-74766000D01*
X108327000Y-74829500D01*
X108073000Y-74829500D01*
X108009500Y-74766000D01*
X107500000Y-74764771D01*
X107450207Y-74769675D01*
X107402328Y-74784199D01*
X107358202Y-74807785D01*
X107319526Y-74839526D01*
X107287785Y-74878202D01*
X107264199Y-74922328D01*
X107249675Y-74970207D01*
X107244771Y-75020000D01*
X107220480Y-75020000D01*
X107203570Y-74964257D01*
X107173206Y-74907450D01*
X107132343Y-74857657D01*
X107082550Y-74816794D01*
X107025743Y-74786430D01*
X106964103Y-74767732D01*
X106900000Y-74761418D01*
X105900000Y-74761418D01*
X105835897Y-74767732D01*
X105774257Y-74786430D01*
X105717450Y-74816794D01*
X105667657Y-74857657D01*
X105626794Y-74907450D01*
X105600000Y-74957578D01*
X105573206Y-74907450D01*
X105532343Y-74857657D01*
X105482550Y-74816794D01*
X105425743Y-74786430D01*
X105364103Y-74767732D01*
X105300000Y-74761418D01*
X104300000Y-74761418D01*
X104235897Y-74767732D01*
X104174257Y-74786430D01*
X104117450Y-74816794D01*
X104067657Y-74857657D01*
X104026794Y-74907450D01*
X104000000Y-74957578D01*
X103973206Y-74907450D01*
X103932343Y-74857657D01*
X103882550Y-74816794D01*
X103825743Y-74786430D01*
X103764103Y-74767732D01*
X103700000Y-74761418D01*
X102700000Y-74761418D01*
X102635897Y-74767732D01*
X102574257Y-74786430D01*
X102527000Y-74811689D01*
X102527000Y-74496608D01*
X102558202Y-74522215D01*
X102602328Y-74545801D01*
X102650207Y-74560325D01*
X102700000Y-74565229D01*
X103009500Y-74564000D01*
X103073000Y-74500500D01*
X103073000Y-74027000D01*
X103327000Y-74027000D01*
X103327000Y-74500500D01*
X103390500Y-74564000D01*
X103700000Y-74565229D01*
X103749793Y-74560325D01*
X103797672Y-74545801D01*
X103841798Y-74522215D01*
X103880474Y-74490474D01*
X103912215Y-74451798D01*
X103935801Y-74407672D01*
X103950325Y-74359793D01*
X103955229Y-74310000D01*
X103954000Y-74090500D01*
X103890500Y-74027000D01*
X103327000Y-74027000D01*
X103073000Y-74027000D01*
X103053000Y-74027000D01*
X103053000Y-73773000D01*
X103073000Y-73773000D01*
X103073000Y-73299500D01*
X103327000Y-73299500D01*
X103327000Y-73773000D01*
X103890500Y-73773000D01*
X103954000Y-73709500D01*
X103955229Y-73490000D01*
X103950325Y-73440207D01*
X103935801Y-73392328D01*
X103912215Y-73348202D01*
X103880474Y-73309526D01*
X103841798Y-73277785D01*
X103797672Y-73254199D01*
X103749793Y-73239675D01*
X103700000Y-73234771D01*
X103390500Y-73236000D01*
X103327000Y-73299500D01*
X103073000Y-73299500D01*
X103009500Y-73236000D01*
X102700000Y-73234771D01*
X102650207Y-73239675D01*
X102602328Y-73254199D01*
X102558202Y-73277785D01*
X102527000Y-73303392D01*
X102527000Y-73018290D01*
X102554338Y-72990952D01*
X102574448Y-72974448D01*
X102640304Y-72894202D01*
X102689239Y-72802650D01*
X102719374Y-72703310D01*
X102727000Y-72625881D01*
X102727000Y-72625880D01*
X102729549Y-72600000D01*
X102727000Y-72574119D01*
X102727000Y-72401134D01*
X102764698Y-72363436D01*
X102844259Y-72244364D01*
X102899062Y-72112058D01*
X102927000Y-71971603D01*
X102927000Y-71828397D01*
X102899062Y-71687942D01*
X102844259Y-71555636D01*
X102764698Y-71436564D01*
X102727000Y-71398866D01*
X102727000Y-71206222D01*
X102735743Y-71203570D01*
X102792550Y-71173206D01*
X102842343Y-71132343D01*
X102883206Y-71082550D01*
X102913570Y-71025743D01*
X102932268Y-70964103D01*
X102938582Y-70900000D01*
X102938582Y-69900000D01*
X102932268Y-69835897D01*
X102913570Y-69774257D01*
X102883206Y-69717450D01*
X102842343Y-69667657D01*
X102817126Y-69646963D01*
X102944364Y-69594259D01*
X103063436Y-69514698D01*
X103101134Y-69477000D01*
X104796418Y-69477000D01*
X104796418Y-69501090D01*
X104761392Y-69504540D01*
X104688031Y-69526794D01*
X104676190Y-69530386D01*
X104597667Y-69572357D01*
X104528841Y-69628841D01*
X104514685Y-69646090D01*
X104465230Y-69695545D01*
X104442343Y-69667657D01*
X104392550Y-69626794D01*
X104335743Y-69596430D01*
X104274103Y-69577732D01*
X104210000Y-69571418D01*
X103390000Y-69571418D01*
X103325897Y-69577732D01*
X103264257Y-69596430D01*
X103207450Y-69626794D01*
X103157657Y-69667657D01*
X103116794Y-69717450D01*
X103086430Y-69774257D01*
X103067732Y-69835897D01*
X103061418Y-69900000D01*
X103061418Y-70900000D01*
X103067732Y-70964103D01*
X103086430Y-71025743D01*
X103116794Y-71082550D01*
X103157657Y-71132343D01*
X103207450Y-71173206D01*
X103264257Y-71203570D01*
X103325897Y-71222268D01*
X103390000Y-71228582D01*
X104210000Y-71228582D01*
X104274103Y-71222268D01*
X104335743Y-71203570D01*
X104392550Y-71173206D01*
X104442343Y-71132343D01*
X104483206Y-71082550D01*
X104513570Y-71025743D01*
X104532268Y-70964103D01*
X104538582Y-70900000D01*
X104538582Y-70830300D01*
X104573810Y-70819614D01*
X104652333Y-70777643D01*
X104721159Y-70721159D01*
X104735323Y-70703900D01*
X104800256Y-70638967D01*
X104802732Y-70664103D01*
X104813621Y-70700000D01*
X104802732Y-70735897D01*
X104796418Y-70800000D01*
X104796418Y-71100000D01*
X104802732Y-71164103D01*
X104813621Y-71200000D01*
X104802732Y-71235897D01*
X104796418Y-71300000D01*
X104796418Y-71600000D01*
X104802732Y-71664103D01*
X104821430Y-71725743D01*
X104851794Y-71782550D01*
X104892657Y-71832343D01*
X104942450Y-71873206D01*
X104999257Y-71903570D01*
X105043719Y-71917057D01*
X104496100Y-72464677D01*
X104478841Y-72478841D01*
X104422357Y-72547668D01*
X104396812Y-72595460D01*
X104380386Y-72626191D01*
X104354540Y-72711393D01*
X104345813Y-72800000D01*
X104348000Y-72822205D01*
X104348000Y-73161418D01*
X104300000Y-73161418D01*
X104235897Y-73167732D01*
X104174257Y-73186430D01*
X104117450Y-73216794D01*
X104067657Y-73257657D01*
X104026794Y-73307450D01*
X103996430Y-73364257D01*
X103977732Y-73425897D01*
X103971418Y-73490000D01*
X103971418Y-74310000D01*
X103977732Y-74374103D01*
X103996430Y-74435743D01*
X104026794Y-74492550D01*
X104067657Y-74542343D01*
X104117450Y-74583206D01*
X104174257Y-74613570D01*
X104235897Y-74632268D01*
X104300000Y-74638582D01*
X105300000Y-74638582D01*
X105364103Y-74632268D01*
X105425743Y-74613570D01*
X105482550Y-74583206D01*
X105532343Y-74542343D01*
X105573206Y-74492550D01*
X105600000Y-74442422D01*
X105626794Y-74492550D01*
X105667657Y-74542343D01*
X105717450Y-74583206D01*
X105774257Y-74613570D01*
X105835897Y-74632268D01*
X105900000Y-74638582D01*
X106900000Y-74638582D01*
X106964103Y-74632268D01*
X107025743Y-74613570D01*
X107082550Y-74583206D01*
X107132343Y-74542343D01*
X107173206Y-74492550D01*
X107185469Y-74469608D01*
X107196430Y-74505743D01*
X107226794Y-74562550D01*
X107267657Y-74612343D01*
X107317450Y-74653206D01*
X107374257Y-74683570D01*
X107435897Y-74702268D01*
X107500000Y-74708582D01*
X108900000Y-74708582D01*
X108964103Y-74702268D01*
X109025743Y-74683570D01*
X109082550Y-74653206D01*
X109132343Y-74612343D01*
X109173206Y-74562550D01*
X109203570Y-74505743D01*
X109222268Y-74444103D01*
X109228582Y-74380000D01*
X109228582Y-73310000D01*
X116336418Y-73310000D01*
X116336418Y-74640000D01*
X116342732Y-74704103D01*
X116361430Y-74765743D01*
X116391794Y-74822550D01*
X116432657Y-74872343D01*
X116482450Y-74913206D01*
X116539257Y-74943570D01*
X116600897Y-74962268D01*
X116665000Y-74968582D01*
X117195000Y-74968582D01*
X117259103Y-74962268D01*
X117320743Y-74943570D01*
X117377550Y-74913206D01*
X117427343Y-74872343D01*
X117468206Y-74822550D01*
X117498570Y-74765743D01*
X117517268Y-74704103D01*
X117523582Y-74640000D01*
X117679771Y-74640000D01*
X117684675Y-74689793D01*
X117699199Y-74737672D01*
X117722785Y-74781798D01*
X117754526Y-74820474D01*
X117793202Y-74852215D01*
X117837328Y-74875801D01*
X117885207Y-74890325D01*
X117935000Y-74895229D01*
X118009500Y-74894000D01*
X118073000Y-74830500D01*
X118073000Y-74102000D01*
X118327000Y-74102000D01*
X118327000Y-74830500D01*
X118390500Y-74894000D01*
X118465000Y-74895229D01*
X118514793Y-74890325D01*
X118562672Y-74875801D01*
X118606798Y-74852215D01*
X118645474Y-74820474D01*
X118677215Y-74781798D01*
X118700801Y-74737672D01*
X118715325Y-74689793D01*
X118720229Y-74640000D01*
X118719000Y-74165500D01*
X118655500Y-74102000D01*
X118327000Y-74102000D01*
X118073000Y-74102000D01*
X117744500Y-74102000D01*
X117681000Y-74165500D01*
X117679771Y-74640000D01*
X117523582Y-74640000D01*
X117523582Y-73310000D01*
X117679771Y-73310000D01*
X117681000Y-73784500D01*
X117744500Y-73848000D01*
X118073000Y-73848000D01*
X118073000Y-73119500D01*
X118327000Y-73119500D01*
X118327000Y-73848000D01*
X118655500Y-73848000D01*
X118719000Y-73784500D01*
X118720229Y-73310000D01*
X118876418Y-73310000D01*
X118876418Y-74640000D01*
X118882732Y-74704103D01*
X118901430Y-74765743D01*
X118931794Y-74822550D01*
X118972657Y-74872343D01*
X119022450Y-74913206D01*
X119079257Y-74943570D01*
X119140897Y-74962268D01*
X119205000Y-74968582D01*
X119735000Y-74968582D01*
X119799103Y-74962268D01*
X119860743Y-74943570D01*
X119917550Y-74913206D01*
X119967343Y-74872343D01*
X120008206Y-74822550D01*
X120038570Y-74765743D01*
X120057268Y-74704103D01*
X120063582Y-74640000D01*
X120063582Y-74452000D01*
X120575555Y-74452000D01*
X120577732Y-74474103D01*
X120596430Y-74535743D01*
X120626794Y-74592550D01*
X120667657Y-74642343D01*
X120717450Y-74683206D01*
X120774257Y-74713570D01*
X120835897Y-74732268D01*
X120900000Y-74738582D01*
X121900000Y-74738582D01*
X121964103Y-74732268D01*
X122025743Y-74713570D01*
X122082550Y-74683206D01*
X122132343Y-74642343D01*
X122173206Y-74592550D01*
X122203570Y-74535743D01*
X122222268Y-74474103D01*
X122228582Y-74410000D01*
X122228582Y-73590000D01*
X122222268Y-73525897D01*
X122203570Y-73464257D01*
X122173206Y-73407450D01*
X122132343Y-73357657D01*
X122082550Y-73316794D01*
X122025743Y-73286430D01*
X121964103Y-73267732D01*
X121900000Y-73261418D01*
X120900000Y-73261418D01*
X120835897Y-73267732D01*
X120774257Y-73286430D01*
X120717450Y-73316794D01*
X120667657Y-73357657D01*
X120626794Y-73407450D01*
X120596430Y-73464257D01*
X120577732Y-73525897D01*
X120575555Y-73548000D01*
X120063582Y-73548000D01*
X120063582Y-73310000D01*
X120057268Y-73245897D01*
X120038570Y-73184257D01*
X120008206Y-73127450D01*
X119967343Y-73077657D01*
X119917550Y-73036794D01*
X119860743Y-73006430D01*
X119799103Y-72987732D01*
X119735000Y-72981418D01*
X119205000Y-72981418D01*
X119140897Y-72987732D01*
X119079257Y-73006430D01*
X119022450Y-73036794D01*
X118972657Y-73077657D01*
X118931794Y-73127450D01*
X118901430Y-73184257D01*
X118882732Y-73245897D01*
X118876418Y-73310000D01*
X118720229Y-73310000D01*
X118715325Y-73260207D01*
X118700801Y-73212328D01*
X118677215Y-73168202D01*
X118645474Y-73129526D01*
X118606798Y-73097785D01*
X118562672Y-73074199D01*
X118514793Y-73059675D01*
X118465000Y-73054771D01*
X118390500Y-73056000D01*
X118327000Y-73119500D01*
X118073000Y-73119500D01*
X118009500Y-73056000D01*
X117935000Y-73054771D01*
X117885207Y-73059675D01*
X117837328Y-73074199D01*
X117793202Y-73097785D01*
X117754526Y-73129526D01*
X117722785Y-73168202D01*
X117699199Y-73212328D01*
X117684675Y-73260207D01*
X117679771Y-73310000D01*
X117523582Y-73310000D01*
X117517268Y-73245897D01*
X117498570Y-73184257D01*
X117468206Y-73127450D01*
X117427343Y-73077657D01*
X117377550Y-73036794D01*
X117320743Y-73006430D01*
X117259103Y-72987732D01*
X117195000Y-72981418D01*
X116665000Y-72981418D01*
X116600897Y-72987732D01*
X116539257Y-73006430D01*
X116482450Y-73036794D01*
X116432657Y-73077657D01*
X116391794Y-73127450D01*
X116361430Y-73184257D01*
X116342732Y-73245897D01*
X116336418Y-73310000D01*
X109228582Y-73310000D01*
X109228582Y-73260000D01*
X109222268Y-73195897D01*
X109203570Y-73134257D01*
X109173206Y-73077450D01*
X109132343Y-73027657D01*
X109082550Y-72986794D01*
X109025743Y-72956430D01*
X108964103Y-72937732D01*
X108900000Y-72931418D01*
X108564308Y-72931418D01*
X108536315Y-72897309D01*
X108600000Y-72903582D01*
X108900000Y-72903582D01*
X108964103Y-72897268D01*
X109025743Y-72878570D01*
X109082550Y-72848206D01*
X109132343Y-72807343D01*
X109173206Y-72757550D01*
X109203570Y-72700743D01*
X109222268Y-72639103D01*
X109226449Y-72596657D01*
X109238607Y-72595460D01*
X109323810Y-72569614D01*
X109402333Y-72527643D01*
X109471159Y-72471159D01*
X109485323Y-72453900D01*
X109753906Y-72185318D01*
X109771159Y-72171159D01*
X109827643Y-72102333D01*
X109869614Y-72023810D01*
X109884059Y-71976191D01*
X109895460Y-71938608D01*
X109896658Y-71926449D01*
X109939103Y-71922268D01*
X110000743Y-71903570D01*
X110057550Y-71873206D01*
X110107343Y-71832343D01*
X110148206Y-71782550D01*
X110178570Y-71725743D01*
X110197268Y-71664103D01*
X110203582Y-71600000D01*
X110203582Y-71442806D01*
X110469685Y-71708910D01*
X110483841Y-71726159D01*
X110552667Y-71782643D01*
X110599078Y-71807450D01*
X110631190Y-71824614D01*
X110716392Y-71850460D01*
X110746940Y-71853469D01*
X110751794Y-71862550D01*
X110792657Y-71912343D01*
X110842450Y-71953206D01*
X110899257Y-71983570D01*
X110960897Y-72002268D01*
X111025000Y-72008582D01*
X112775000Y-72008582D01*
X112839103Y-72002268D01*
X112900743Y-71983570D01*
X112957550Y-71953206D01*
X113007343Y-71912343D01*
X113048206Y-71862550D01*
X113078570Y-71805743D01*
X113097268Y-71744103D01*
X113103582Y-71680000D01*
X118169771Y-71680000D01*
X118174675Y-71729793D01*
X118189199Y-71777672D01*
X118212785Y-71821798D01*
X118244526Y-71860474D01*
X118283202Y-71892215D01*
X118327328Y-71915801D01*
X118375207Y-71930325D01*
X118425000Y-71935229D01*
X119109500Y-71934000D01*
X119173000Y-71870500D01*
X119173000Y-71532000D01*
X119427000Y-71532000D01*
X119427000Y-71870500D01*
X119490500Y-71934000D01*
X120175000Y-71935229D01*
X120224793Y-71930325D01*
X120272672Y-71915801D01*
X120316798Y-71892215D01*
X120355474Y-71860474D01*
X120387215Y-71821798D01*
X120410801Y-71777672D01*
X120425325Y-71729793D01*
X120430229Y-71680000D01*
X120429000Y-71595500D01*
X120365500Y-71532000D01*
X119427000Y-71532000D01*
X119173000Y-71532000D01*
X118234500Y-71532000D01*
X118171000Y-71595500D01*
X118169771Y-71680000D01*
X113103582Y-71680000D01*
X113103582Y-71130000D01*
X118169771Y-71130000D01*
X118171000Y-71214500D01*
X118234500Y-71278000D01*
X119173000Y-71278000D01*
X119173000Y-70939500D01*
X119427000Y-70939500D01*
X119427000Y-71278000D01*
X120365500Y-71278000D01*
X120429000Y-71214500D01*
X120430229Y-71130000D01*
X120425325Y-71080207D01*
X120410801Y-71032328D01*
X120387215Y-70988202D01*
X120355474Y-70949526D01*
X120316798Y-70917785D01*
X120272672Y-70894199D01*
X120224793Y-70879675D01*
X120175000Y-70874771D01*
X119490500Y-70876000D01*
X119427000Y-70939500D01*
X119173000Y-70939500D01*
X119109500Y-70876000D01*
X118425000Y-70874771D01*
X118375207Y-70879675D01*
X118327328Y-70894199D01*
X118283202Y-70917785D01*
X118244526Y-70949526D01*
X118212785Y-70988202D01*
X118189199Y-71032328D01*
X118174675Y-71080207D01*
X118169771Y-71130000D01*
X113103582Y-71130000D01*
X113097268Y-71065897D01*
X113078570Y-71004257D01*
X113048206Y-70947450D01*
X113007343Y-70897657D01*
X112957550Y-70856794D01*
X112900743Y-70826430D01*
X112839103Y-70807732D01*
X112775000Y-70801418D01*
X111025000Y-70801418D01*
X110960897Y-70807732D01*
X110899257Y-70826430D01*
X110877359Y-70838135D01*
X110739223Y-70700000D01*
X110794977Y-70644247D01*
X110842450Y-70683206D01*
X110899257Y-70713570D01*
X110960897Y-70732268D01*
X111025000Y-70738582D01*
X112775000Y-70738582D01*
X112839103Y-70732268D01*
X112900743Y-70713570D01*
X112957550Y-70683206D01*
X113007343Y-70642343D01*
X113048206Y-70592550D01*
X113078570Y-70535743D01*
X113097268Y-70474103D01*
X113103582Y-70410000D01*
X113103582Y-69860000D01*
X118096418Y-69860000D01*
X118096418Y-70410000D01*
X118102732Y-70474103D01*
X118121430Y-70535743D01*
X118151794Y-70592550D01*
X118192657Y-70642343D01*
X118242450Y-70683206D01*
X118299257Y-70713570D01*
X118360897Y-70732268D01*
X118425000Y-70738582D01*
X120175000Y-70738582D01*
X120239103Y-70732268D01*
X120300743Y-70713570D01*
X120357550Y-70683206D01*
X120407343Y-70642343D01*
X120448206Y-70592550D01*
X120451173Y-70587000D01*
X120661418Y-70587000D01*
X120661418Y-70600000D01*
X120667732Y-70664103D01*
X120686430Y-70725743D01*
X120716794Y-70782550D01*
X120757657Y-70832343D01*
X120807450Y-70873206D01*
X120864257Y-70903570D01*
X120925897Y-70922268D01*
X120948000Y-70924445D01*
X120948001Y-71661418D01*
X120900000Y-71661418D01*
X120835897Y-71667732D01*
X120774257Y-71686430D01*
X120717450Y-71716794D01*
X120667657Y-71757657D01*
X120626794Y-71807450D01*
X120596430Y-71864257D01*
X120577732Y-71925897D01*
X120571418Y-71990000D01*
X120571418Y-72810000D01*
X120577732Y-72874103D01*
X120596430Y-72935743D01*
X120626794Y-72992550D01*
X120667657Y-73042343D01*
X120717450Y-73083206D01*
X120774257Y-73113570D01*
X120835897Y-73132268D01*
X120900000Y-73138582D01*
X121900000Y-73138582D01*
X121964103Y-73132268D01*
X122025743Y-73113570D01*
X122082550Y-73083206D01*
X122132343Y-73042343D01*
X122173206Y-72992550D01*
X122203570Y-72935743D01*
X122222268Y-72874103D01*
X122228582Y-72810000D01*
X122228582Y-71990000D01*
X122222268Y-71925897D01*
X122203570Y-71864257D01*
X122173206Y-71807450D01*
X122132343Y-71757657D01*
X122082550Y-71716794D01*
X122025743Y-71686430D01*
X121964103Y-71667732D01*
X121900000Y-71661418D01*
X121852000Y-71661418D01*
X121852000Y-70924445D01*
X121874103Y-70922268D01*
X121935743Y-70903570D01*
X121992550Y-70873206D01*
X122042343Y-70832343D01*
X122083206Y-70782550D01*
X122113570Y-70725743D01*
X122132268Y-70664103D01*
X122138582Y-70600000D01*
X122334771Y-70600000D01*
X122339675Y-70649793D01*
X122354199Y-70697672D01*
X122377785Y-70741798D01*
X122409526Y-70780474D01*
X122448202Y-70812215D01*
X122492328Y-70835801D01*
X122540207Y-70850325D01*
X122590000Y-70855229D01*
X122809500Y-70854000D01*
X122873000Y-70790500D01*
X122873000Y-70227000D01*
X123127000Y-70227000D01*
X123127000Y-70790500D01*
X123190500Y-70854000D01*
X123410000Y-70855229D01*
X123459793Y-70850325D01*
X123507672Y-70835801D01*
X123551798Y-70812215D01*
X123590474Y-70780474D01*
X123622215Y-70741798D01*
X123645801Y-70697672D01*
X123660325Y-70649793D01*
X123665229Y-70600000D01*
X123664000Y-70290500D01*
X123600500Y-70227000D01*
X123127000Y-70227000D01*
X122873000Y-70227000D01*
X122399500Y-70227000D01*
X122336000Y-70290500D01*
X122334771Y-70600000D01*
X122138582Y-70600000D01*
X122138582Y-69600000D01*
X122334771Y-69600000D01*
X122336000Y-69909500D01*
X122399500Y-69973000D01*
X122873000Y-69973000D01*
X122873000Y-69409500D01*
X123127000Y-69409500D01*
X123127000Y-69973000D01*
X123600500Y-69973000D01*
X123664000Y-69909500D01*
X123665229Y-69600000D01*
X123660325Y-69550207D01*
X123645801Y-69502328D01*
X123622215Y-69458202D01*
X123590474Y-69419526D01*
X123551798Y-69387785D01*
X123507672Y-69364199D01*
X123459793Y-69349675D01*
X123410000Y-69344771D01*
X123190500Y-69346000D01*
X123127000Y-69409500D01*
X122873000Y-69409500D01*
X122809500Y-69346000D01*
X122590000Y-69344771D01*
X122540207Y-69349675D01*
X122492328Y-69364199D01*
X122448202Y-69387785D01*
X122409526Y-69419526D01*
X122377785Y-69458202D01*
X122354199Y-69502328D01*
X122339675Y-69550207D01*
X122334771Y-69600000D01*
X122138582Y-69600000D01*
X122132268Y-69535897D01*
X122113570Y-69474257D01*
X122083206Y-69417450D01*
X122042343Y-69367657D01*
X121992550Y-69326794D01*
X121935743Y-69296430D01*
X121874103Y-69277732D01*
X121810000Y-69271418D01*
X120990000Y-69271418D01*
X120925897Y-69277732D01*
X120864257Y-69296430D01*
X120807450Y-69326794D01*
X120757657Y-69367657D01*
X120716794Y-69417450D01*
X120686430Y-69474257D01*
X120667732Y-69535897D01*
X120661418Y-69600000D01*
X120661418Y-69683000D01*
X120451173Y-69683000D01*
X120448206Y-69677450D01*
X120407343Y-69627657D01*
X120357550Y-69586794D01*
X120300743Y-69556430D01*
X120239103Y-69537732D01*
X120175000Y-69531418D01*
X118425000Y-69531418D01*
X118360897Y-69537732D01*
X118299257Y-69556430D01*
X118242450Y-69586794D01*
X118192657Y-69627657D01*
X118151794Y-69677450D01*
X118121430Y-69734257D01*
X118102732Y-69795897D01*
X118096418Y-69860000D01*
X113103582Y-69860000D01*
X113097268Y-69795897D01*
X113078570Y-69734257D01*
X113048206Y-69677450D01*
X113007343Y-69627657D01*
X112957550Y-69586794D01*
X112900743Y-69556430D01*
X112839103Y-69537732D01*
X112775000Y-69531418D01*
X111025000Y-69531418D01*
X110960897Y-69537732D01*
X110899257Y-69556430D01*
X110842450Y-69586794D01*
X110792657Y-69627657D01*
X110751794Y-69677450D01*
X110748827Y-69683000D01*
X110687204Y-69683000D01*
X110664999Y-69680813D01*
X110576392Y-69689540D01*
X110556562Y-69695556D01*
X110491190Y-69715386D01*
X110412667Y-69757357D01*
X110343841Y-69813841D01*
X110329685Y-69831090D01*
X110203582Y-69957194D01*
X110203582Y-69800000D01*
X110197268Y-69735897D01*
X110186379Y-69700000D01*
X110197268Y-69664103D01*
X110203582Y-69600000D01*
X110203582Y-69300000D01*
X110197268Y-69235897D01*
X110186379Y-69200000D01*
X110197268Y-69164103D01*
X110203582Y-69100000D01*
X110203582Y-68800000D01*
X110197268Y-68735897D01*
X110178570Y-68674257D01*
X110148206Y-68617450D01*
X110107343Y-68567657D01*
X110057550Y-68526794D01*
X110000743Y-68496430D01*
X109939103Y-68477732D01*
X109875000Y-68471418D01*
X109228582Y-68471418D01*
X109228582Y-67825000D01*
X109222268Y-67760897D01*
X109203570Y-67699257D01*
X109173206Y-67642450D01*
X109132343Y-67592657D01*
X109082550Y-67551794D01*
X109025743Y-67521430D01*
X108964103Y-67502732D01*
X108900000Y-67496418D01*
X108600000Y-67496418D01*
X108535897Y-67502732D01*
X108474257Y-67521430D01*
X108417450Y-67551794D01*
X108395437Y-67569859D01*
X108336500Y-67571000D01*
X108273000Y-67634500D01*
X108273000Y-67808939D01*
X108271418Y-67825000D01*
X108271418Y-68397000D01*
X108228582Y-68397000D01*
X108228582Y-67825000D01*
X108227000Y-67808939D01*
X108227000Y-67634500D01*
X108176233Y-67583733D01*
X108170822Y-67528792D01*
X108152000Y-67466747D01*
X108152000Y-67320000D01*
X110696418Y-67320000D01*
X110696418Y-67870000D01*
X110702732Y-67934103D01*
X110721430Y-67995743D01*
X110751794Y-68052550D01*
X110792657Y-68102343D01*
X110842450Y-68143206D01*
X110899257Y-68173570D01*
X110960897Y-68192268D01*
X111025000Y-68198582D01*
X111298000Y-68198582D01*
X111298001Y-68261418D01*
X111025000Y-68261418D01*
X110960897Y-68267732D01*
X110899257Y-68286430D01*
X110842450Y-68316794D01*
X110792657Y-68357657D01*
X110751794Y-68407450D01*
X110721430Y-68464257D01*
X110702732Y-68525897D01*
X110696418Y-68590000D01*
X110696418Y-69140000D01*
X110702732Y-69204103D01*
X110721430Y-69265743D01*
X110751794Y-69322550D01*
X110792657Y-69372343D01*
X110842450Y-69413206D01*
X110899257Y-69443570D01*
X110960897Y-69462268D01*
X111025000Y-69468582D01*
X111886496Y-69468582D01*
X111900000Y-69469912D01*
X111913504Y-69468582D01*
X112775000Y-69468582D01*
X112839103Y-69462268D01*
X112900743Y-69443570D01*
X112957550Y-69413206D01*
X113007343Y-69372343D01*
X113048206Y-69322550D01*
X113078570Y-69265743D01*
X113097268Y-69204103D01*
X113103582Y-69140000D01*
X113103582Y-68590000D01*
X118096418Y-68590000D01*
X118096418Y-69140000D01*
X118102732Y-69204103D01*
X118121430Y-69265743D01*
X118151794Y-69322550D01*
X118192657Y-69372343D01*
X118242450Y-69413206D01*
X118299257Y-69443570D01*
X118360897Y-69462268D01*
X118425000Y-69468582D01*
X120175000Y-69468582D01*
X120239103Y-69462268D01*
X120300743Y-69443570D01*
X120357550Y-69413206D01*
X120407343Y-69372343D01*
X120448206Y-69322550D01*
X120478570Y-69265743D01*
X120497268Y-69204103D01*
X120503582Y-69140000D01*
X120503582Y-68590000D01*
X120497268Y-68525897D01*
X120478570Y-68464257D01*
X120448206Y-68407450D01*
X120407343Y-68357657D01*
X120357550Y-68316794D01*
X120300743Y-68286430D01*
X120239103Y-68267732D01*
X120175000Y-68261418D01*
X118425000Y-68261418D01*
X118360897Y-68267732D01*
X118299257Y-68286430D01*
X118242450Y-68316794D01*
X118192657Y-68357657D01*
X118151794Y-68407450D01*
X118121430Y-68464257D01*
X118102732Y-68525897D01*
X118096418Y-68590000D01*
X113103582Y-68590000D01*
X113097268Y-68525897D01*
X113078570Y-68464257D01*
X113048206Y-68407450D01*
X113007343Y-68357657D01*
X112957550Y-68316794D01*
X112900743Y-68286430D01*
X112839103Y-68267732D01*
X112775000Y-68261418D01*
X112502000Y-68261418D01*
X112502000Y-68202000D01*
X119265444Y-68202000D01*
X119295000Y-68204911D01*
X119300000Y-68204419D01*
X119304999Y-68204911D01*
X119334556Y-68202000D01*
X120679228Y-68202000D01*
X120686430Y-68225743D01*
X120716794Y-68282550D01*
X120757657Y-68332343D01*
X120807450Y-68373206D01*
X120864257Y-68403570D01*
X120925897Y-68422268D01*
X120990000Y-68428582D01*
X121810000Y-68428582D01*
X121874103Y-68422268D01*
X121935743Y-68403570D01*
X121992550Y-68373206D01*
X122042343Y-68332343D01*
X122083206Y-68282550D01*
X122113570Y-68225743D01*
X122132268Y-68164103D01*
X122138582Y-68100000D01*
X122334771Y-68100000D01*
X122339675Y-68149793D01*
X122354199Y-68197672D01*
X122377785Y-68241798D01*
X122409526Y-68280474D01*
X122448202Y-68312215D01*
X122492328Y-68335801D01*
X122540207Y-68350325D01*
X122590000Y-68355229D01*
X122809500Y-68354000D01*
X122873000Y-68290500D01*
X122873000Y-67727000D01*
X123127000Y-67727000D01*
X123127000Y-68290500D01*
X123190500Y-68354000D01*
X123410000Y-68355229D01*
X123459793Y-68350325D01*
X123507672Y-68335801D01*
X123551798Y-68312215D01*
X123590474Y-68280474D01*
X123622215Y-68241798D01*
X123645801Y-68197672D01*
X123660325Y-68149793D01*
X123665229Y-68100000D01*
X123664000Y-67790500D01*
X123600500Y-67727000D01*
X123127000Y-67727000D01*
X122873000Y-67727000D01*
X122399500Y-67727000D01*
X122336000Y-67790500D01*
X122334771Y-68100000D01*
X122138582Y-68100000D01*
X122138582Y-67100000D01*
X122334771Y-67100000D01*
X122336000Y-67409500D01*
X122399500Y-67473000D01*
X122873000Y-67473000D01*
X122873000Y-66909500D01*
X123127000Y-66909500D01*
X123127000Y-67473000D01*
X123600500Y-67473000D01*
X123664000Y-67409500D01*
X123665229Y-67100000D01*
X123660325Y-67050207D01*
X123645801Y-67002328D01*
X123622215Y-66958202D01*
X123590474Y-66919526D01*
X123551798Y-66887785D01*
X123507672Y-66864199D01*
X123459793Y-66849675D01*
X123410000Y-66844771D01*
X123190500Y-66846000D01*
X123127000Y-66909500D01*
X122873000Y-66909500D01*
X122809500Y-66846000D01*
X122590000Y-66844771D01*
X122540207Y-66849675D01*
X122492328Y-66864199D01*
X122448202Y-66887785D01*
X122409526Y-66919526D01*
X122377785Y-66958202D01*
X122354199Y-67002328D01*
X122339675Y-67050207D01*
X122334771Y-67100000D01*
X122138582Y-67100000D01*
X122132268Y-67035897D01*
X122113570Y-66974257D01*
X122083206Y-66917450D01*
X122042343Y-66867657D01*
X121992550Y-66826794D01*
X121935743Y-66796430D01*
X121874103Y-66777732D01*
X121810000Y-66771418D01*
X120990000Y-66771418D01*
X120925897Y-66777732D01*
X120864257Y-66796430D01*
X120807450Y-66826794D01*
X120757657Y-66867657D01*
X120716794Y-66917450D01*
X120686430Y-66974257D01*
X120679228Y-66998000D01*
X120239986Y-66998000D01*
X120239103Y-66997732D01*
X120175000Y-66991418D01*
X119902000Y-66991418D01*
X119902000Y-65922475D01*
X119904103Y-65922268D01*
X119965743Y-65903570D01*
X120022550Y-65873206D01*
X120072343Y-65832343D01*
X120113206Y-65782550D01*
X120143570Y-65725743D01*
X120162268Y-65664103D01*
X120168582Y-65600000D01*
X120168582Y-65302000D01*
X124750645Y-65302000D01*
X126874988Y-67426344D01*
X126860897Y-67427732D01*
X126799257Y-67446430D01*
X126742450Y-67476794D01*
X126692657Y-67517657D01*
X126651794Y-67567450D01*
X126621430Y-67624257D01*
X126602732Y-67685897D01*
X126596418Y-67750000D01*
X126596418Y-69450000D01*
X126602732Y-69514103D01*
X126621430Y-69575743D01*
X126651794Y-69632550D01*
X126692657Y-69682343D01*
X126742450Y-69723206D01*
X126799257Y-69753570D01*
X126860897Y-69772268D01*
X126925000Y-69778582D01*
X128875000Y-69778582D01*
X128939103Y-69772268D01*
X129000743Y-69753570D01*
X129057550Y-69723206D01*
X129107343Y-69682343D01*
X129148206Y-69632550D01*
X129178570Y-69575743D01*
X129197268Y-69514103D01*
X129203582Y-69450000D01*
X129203582Y-67750000D01*
X129197268Y-67685897D01*
X129178570Y-67624257D01*
X129148206Y-67567450D01*
X129107343Y-67517657D01*
X129057550Y-67476794D01*
X129000743Y-67446430D01*
X128939103Y-67427732D01*
X128875000Y-67421418D01*
X128474915Y-67421418D01*
X128458866Y-67368510D01*
X128402966Y-67263929D01*
X128370564Y-67224447D01*
X128346584Y-67195227D01*
X128346580Y-67195223D01*
X128327737Y-67172263D01*
X128304778Y-67153421D01*
X125446589Y-64295234D01*
X125427737Y-64272263D01*
X125336071Y-64197034D01*
X125231490Y-64141134D01*
X125118012Y-64106711D01*
X125029566Y-64098000D01*
X125029556Y-64098000D01*
X125000000Y-64095089D01*
X124970444Y-64098000D01*
X120168582Y-64098000D01*
X120168582Y-63800000D01*
X120162268Y-63735897D01*
X120143570Y-63674257D01*
X120113206Y-63617450D01*
X120072343Y-63567657D01*
X120022550Y-63526794D01*
X119965743Y-63496430D01*
X119904103Y-63477732D01*
X119840000Y-63471418D01*
X118620000Y-63471418D01*
X118555897Y-63477732D01*
X118494257Y-63496430D01*
X118437450Y-63526794D01*
X118387657Y-63567657D01*
X118346794Y-63617450D01*
X118316430Y-63674257D01*
X118297732Y-63735897D01*
X118291418Y-63800000D01*
X118291418Y-65600000D01*
X118297732Y-65664103D01*
X118316430Y-65725743D01*
X118346794Y-65782550D01*
X118387657Y-65832343D01*
X118437450Y-65873206D01*
X118494257Y-65903570D01*
X118555897Y-65922268D01*
X118620000Y-65928582D01*
X118698001Y-65928582D01*
X118698000Y-66991418D01*
X118425000Y-66991418D01*
X118360897Y-66997732D01*
X118360014Y-66998000D01*
X112839986Y-66998000D01*
X112839103Y-66997732D01*
X112775000Y-66991418D01*
X111913504Y-66991418D01*
X111900000Y-66990088D01*
X111886496Y-66991418D01*
X111025000Y-66991418D01*
X110960897Y-66997732D01*
X110899257Y-67016430D01*
X110842450Y-67046794D01*
X110792657Y-67087657D01*
X110751794Y-67137450D01*
X110721430Y-67194257D01*
X110702732Y-67255897D01*
X110696418Y-67320000D01*
X108152000Y-67320000D01*
X108152000Y-64628397D01*
X113872992Y-64628397D01*
X113872992Y-64771603D01*
X113900930Y-64912058D01*
X113955733Y-65044364D01*
X114035294Y-65163436D01*
X114136556Y-65264698D01*
X114255628Y-65344259D01*
X114387934Y-65399062D01*
X114528389Y-65427000D01*
X114671595Y-65427000D01*
X114812050Y-65399062D01*
X114944356Y-65344259D01*
X115063428Y-65264698D01*
X115101126Y-65227000D01*
X115431418Y-65227000D01*
X115431418Y-65600000D01*
X115437732Y-65664103D01*
X115456430Y-65725743D01*
X115486794Y-65782550D01*
X115527657Y-65832343D01*
X115577450Y-65873206D01*
X115634257Y-65903570D01*
X115695897Y-65922268D01*
X115760000Y-65928582D01*
X116980000Y-65928582D01*
X117044103Y-65922268D01*
X117105743Y-65903570D01*
X117162550Y-65873206D01*
X117212343Y-65832343D01*
X117253206Y-65782550D01*
X117283570Y-65725743D01*
X117302268Y-65664103D01*
X117308582Y-65600000D01*
X117308582Y-63800000D01*
X117302268Y-63735897D01*
X117283570Y-63674257D01*
X117253206Y-63617450D01*
X117212343Y-63567657D01*
X117162550Y-63526794D01*
X117105743Y-63496430D01*
X117044103Y-63477732D01*
X116980000Y-63471418D01*
X115760000Y-63471418D01*
X115695897Y-63477732D01*
X115634257Y-63496430D01*
X115577450Y-63526794D01*
X115527657Y-63567657D01*
X115486794Y-63617450D01*
X115456430Y-63674257D01*
X115437732Y-63735897D01*
X115431418Y-63800000D01*
X115431418Y-64173000D01*
X115101126Y-64173000D01*
X115063428Y-64135302D01*
X114944356Y-64055741D01*
X114812050Y-64000938D01*
X114671595Y-63973000D01*
X114528389Y-63973000D01*
X114387934Y-64000938D01*
X114255628Y-64055741D01*
X114136556Y-64135302D01*
X114035294Y-64236564D01*
X113955733Y-64355636D01*
X113900930Y-64487942D01*
X113872992Y-64628397D01*
X108152000Y-64628397D01*
X108152000Y-63927767D01*
X108154065Y-63906800D01*
X108152000Y-63885833D01*
X108152000Y-63885822D01*
X108145822Y-63823093D01*
X108127088Y-63761337D01*
X108121405Y-63742603D01*
X108081756Y-63668424D01*
X108041768Y-63619699D01*
X108041764Y-63619695D01*
X108028395Y-63603405D01*
X108012105Y-63590036D01*
X107009968Y-62587900D01*
X106996595Y-62571605D01*
X106931576Y-62518245D01*
X106857396Y-62478595D01*
X106776907Y-62454178D01*
X106714178Y-62448000D01*
X106714167Y-62448000D01*
X106693200Y-62445935D01*
X106672233Y-62448000D01*
X101827765Y-62448000D01*
X101806800Y-62445935D01*
X101785835Y-62448000D01*
X101785823Y-62448000D01*
X101723094Y-62454178D01*
X101642605Y-62478595D01*
X101608074Y-62497052D01*
X101568424Y-62518245D01*
X101519699Y-62558232D01*
X101519690Y-62558241D01*
X101503406Y-62571605D01*
X101490042Y-62587889D01*
X100645242Y-63432691D01*
X100573132Y-63384509D01*
X100440826Y-63329706D01*
X100300371Y-63301768D01*
X100157165Y-63301768D01*
X100016710Y-63329706D01*
X99884404Y-63384509D01*
X99765332Y-63464070D01*
X99664070Y-63565332D01*
X99584509Y-63684404D01*
X99529706Y-63816710D01*
X99501768Y-63957165D01*
X99501768Y-64100371D01*
X99529706Y-64240826D01*
X99532678Y-64248000D01*
X99501869Y-64248000D01*
X99428582Y-64174713D01*
X99428582Y-63450000D01*
X99422268Y-63385897D01*
X99403570Y-63324257D01*
X99373206Y-63267450D01*
X99332343Y-63217657D01*
X99282550Y-63176794D01*
X99225743Y-63146430D01*
X99164103Y-63127732D01*
X99100000Y-63121418D01*
X97700000Y-63121418D01*
X97635897Y-63127732D01*
X97574257Y-63146430D01*
X97517450Y-63176794D01*
X97467657Y-63217657D01*
X97426794Y-63267450D01*
X97396430Y-63324257D01*
X97377732Y-63385897D01*
X97371418Y-63450000D01*
X97371418Y-64450000D01*
X97377732Y-64514103D01*
X97396430Y-64575743D01*
X97426794Y-64632550D01*
X97467657Y-64682343D01*
X97517450Y-64723206D01*
X97574257Y-64753570D01*
X97635897Y-64772268D01*
X97700000Y-64778582D01*
X98824713Y-64778582D01*
X98946131Y-64900000D01*
X98824713Y-65021418D01*
X97700000Y-65021418D01*
X97635897Y-65027732D01*
X97574257Y-65046430D01*
X97517450Y-65076794D01*
X97467657Y-65117657D01*
X97426794Y-65167450D01*
X97396430Y-65224257D01*
X97377732Y-65285897D01*
X97371418Y-65350000D01*
X97371418Y-66350000D01*
X97377732Y-66414103D01*
X97396430Y-66475743D01*
X97426794Y-66532550D01*
X97467657Y-66582343D01*
X97517450Y-66623206D01*
X97574257Y-66653570D01*
X97635897Y-66672268D01*
X97700000Y-66678582D01*
X99100000Y-66678582D01*
X99164103Y-66672268D01*
X99225743Y-66653570D01*
X99282550Y-66623206D01*
X99332343Y-66582343D01*
X99373206Y-66532550D01*
X99403570Y-66475743D01*
X99422268Y-66414103D01*
X99428582Y-66350000D01*
X99428582Y-65625287D01*
X99443869Y-65610000D01*
X101844771Y-65610000D01*
X101849675Y-65659793D01*
X101864199Y-65707672D01*
X101887785Y-65751798D01*
X101919526Y-65790474D01*
X101958202Y-65822215D01*
X102002328Y-65845801D01*
X102050207Y-65860325D01*
X102100000Y-65865229D01*
X102409500Y-65864000D01*
X102473000Y-65800500D01*
X102473000Y-65327000D01*
X102727000Y-65327000D01*
X102727000Y-65800500D01*
X102790500Y-65864000D01*
X103100000Y-65865229D01*
X103149793Y-65860325D01*
X103197672Y-65845801D01*
X103241798Y-65822215D01*
X103280474Y-65790474D01*
X103312215Y-65751798D01*
X103335801Y-65707672D01*
X103350325Y-65659793D01*
X103355229Y-65610000D01*
X103354502Y-65480000D01*
X103444771Y-65480000D01*
X103449675Y-65529793D01*
X103464199Y-65577672D01*
X103487785Y-65621798D01*
X103519526Y-65660474D01*
X103558202Y-65692215D01*
X103602328Y-65715801D01*
X103650207Y-65730325D01*
X103700000Y-65735229D01*
X104209500Y-65734000D01*
X104273000Y-65670500D01*
X104273000Y-65047000D01*
X104527000Y-65047000D01*
X104527000Y-65670500D01*
X104590500Y-65734000D01*
X105100000Y-65735229D01*
X105149793Y-65730325D01*
X105197672Y-65715801D01*
X105241798Y-65692215D01*
X105280474Y-65660474D01*
X105312215Y-65621798D01*
X105318521Y-65610000D01*
X105444771Y-65610000D01*
X105449675Y-65659793D01*
X105464199Y-65707672D01*
X105487785Y-65751798D01*
X105519526Y-65790474D01*
X105558202Y-65822215D01*
X105602328Y-65845801D01*
X105650207Y-65860325D01*
X105700000Y-65865229D01*
X106009500Y-65864000D01*
X106073000Y-65800500D01*
X106073000Y-65327000D01*
X105509500Y-65327000D01*
X105446000Y-65390500D01*
X105444771Y-65610000D01*
X105318521Y-65610000D01*
X105335801Y-65577672D01*
X105350325Y-65529793D01*
X105355229Y-65480000D01*
X105354000Y-65110500D01*
X105290500Y-65047000D01*
X104527000Y-65047000D01*
X104273000Y-65047000D01*
X103509500Y-65047000D01*
X103446000Y-65110500D01*
X103444771Y-65480000D01*
X103354502Y-65480000D01*
X103354000Y-65390500D01*
X103290500Y-65327000D01*
X102727000Y-65327000D01*
X102473000Y-65327000D01*
X101909500Y-65327000D01*
X101846000Y-65390500D01*
X101844771Y-65610000D01*
X99443869Y-65610000D01*
X99501869Y-65552000D01*
X100172232Y-65552000D01*
X100193199Y-65554065D01*
X100214166Y-65552000D01*
X100214177Y-65552000D01*
X100276906Y-65545822D01*
X100357395Y-65521405D01*
X100431575Y-65481755D01*
X100496594Y-65428395D01*
X100509967Y-65412100D01*
X100554758Y-65367309D01*
X100626868Y-65415491D01*
X100759174Y-65470294D01*
X100899629Y-65498232D01*
X101042835Y-65498232D01*
X101183290Y-65470294D01*
X101315596Y-65415491D01*
X101434668Y-65335930D01*
X101535930Y-65234668D01*
X101615491Y-65115596D01*
X101670294Y-64983290D01*
X101698232Y-64842835D01*
X101698232Y-64790000D01*
X101844771Y-64790000D01*
X101846000Y-65009500D01*
X101909500Y-65073000D01*
X102473000Y-65073000D01*
X102473000Y-64599500D01*
X102727000Y-64599500D01*
X102727000Y-65073000D01*
X103290500Y-65073000D01*
X103354000Y-65009500D01*
X103355229Y-64790000D01*
X103350325Y-64740207D01*
X103335801Y-64692328D01*
X103312215Y-64648202D01*
X103280474Y-64609526D01*
X103241798Y-64577785D01*
X103197672Y-64554199D01*
X103149793Y-64539675D01*
X103100000Y-64534771D01*
X102790500Y-64536000D01*
X102727000Y-64599500D01*
X102473000Y-64599500D01*
X102409500Y-64536000D01*
X102100000Y-64534771D01*
X102050207Y-64539675D01*
X102002328Y-64554199D01*
X101958202Y-64577785D01*
X101919526Y-64609526D01*
X101887785Y-64648202D01*
X101864199Y-64692328D01*
X101849675Y-64740207D01*
X101844771Y-64790000D01*
X101698232Y-64790000D01*
X101698232Y-64699629D01*
X101670294Y-64559174D01*
X101615491Y-64426868D01*
X101570812Y-64360000D01*
X103444771Y-64360000D01*
X103446000Y-64729500D01*
X103509500Y-64793000D01*
X104273000Y-64793000D01*
X104273000Y-64169500D01*
X104527000Y-64169500D01*
X104527000Y-64793000D01*
X105290500Y-64793000D01*
X105293500Y-64790000D01*
X105444771Y-64790000D01*
X105446000Y-65009500D01*
X105509500Y-65073000D01*
X106073000Y-65073000D01*
X106073000Y-64599500D01*
X106009500Y-64536000D01*
X105700000Y-64534771D01*
X105650207Y-64539675D01*
X105602328Y-64554199D01*
X105558202Y-64577785D01*
X105519526Y-64609526D01*
X105487785Y-64648202D01*
X105464199Y-64692328D01*
X105449675Y-64740207D01*
X105444771Y-64790000D01*
X105293500Y-64790000D01*
X105354000Y-64729500D01*
X105355229Y-64360000D01*
X105350325Y-64310207D01*
X105335801Y-64262328D01*
X105312215Y-64218202D01*
X105280474Y-64179526D01*
X105241798Y-64147785D01*
X105197672Y-64124199D01*
X105149793Y-64109675D01*
X105100000Y-64104771D01*
X104590500Y-64106000D01*
X104527000Y-64169500D01*
X104273000Y-64169500D01*
X104209500Y-64106000D01*
X103700000Y-64104771D01*
X103650207Y-64109675D01*
X103602328Y-64124199D01*
X103558202Y-64147785D01*
X103519526Y-64179526D01*
X103487785Y-64218202D01*
X103464199Y-64262328D01*
X103449675Y-64310207D01*
X103444771Y-64360000D01*
X101570812Y-64360000D01*
X101567309Y-64354758D01*
X102170068Y-63752000D01*
X106329932Y-63752000D01*
X106848001Y-64270070D01*
X106848001Y-64582876D01*
X106841798Y-64577785D01*
X106797672Y-64554199D01*
X106749793Y-64539675D01*
X106700000Y-64534771D01*
X106390500Y-64536000D01*
X106327000Y-64599500D01*
X106327000Y-65073000D01*
X106347000Y-65073000D01*
X106347000Y-65327000D01*
X106327000Y-65327000D01*
X106327000Y-65800500D01*
X106390500Y-65864000D01*
X106700000Y-65865229D01*
X106749793Y-65860325D01*
X106797672Y-65845801D01*
X106841798Y-65822215D01*
X106848001Y-65817125D01*
X106848000Y-66098327D01*
X106825743Y-66086430D01*
X106764103Y-66067732D01*
X106700000Y-66061418D01*
X105700000Y-66061418D01*
X105635897Y-66067732D01*
X105574257Y-66086430D01*
X105517450Y-66116794D01*
X105467657Y-66157657D01*
X105428582Y-66205271D01*
X105428582Y-66120000D01*
X105422268Y-66055897D01*
X105403570Y-65994257D01*
X105373206Y-65937450D01*
X105332343Y-65887657D01*
X105282550Y-65846794D01*
X105225743Y-65816430D01*
X105164103Y-65797732D01*
X105100000Y-65791418D01*
X103700000Y-65791418D01*
X103635897Y-65797732D01*
X103574257Y-65816430D01*
X103517450Y-65846794D01*
X103467657Y-65887657D01*
X103426794Y-65937450D01*
X103396430Y-65994257D01*
X103377732Y-66055897D01*
X103371418Y-66120000D01*
X103371418Y-66205271D01*
X103332343Y-66157657D01*
X103282550Y-66116794D01*
X103225743Y-66086430D01*
X103164103Y-66067732D01*
X103100000Y-66061418D01*
X102100000Y-66061418D01*
X102035897Y-66067732D01*
X101974257Y-66086430D01*
X101917450Y-66116794D01*
X101867657Y-66157657D01*
X101826794Y-66207450D01*
X101796430Y-66264257D01*
X101777732Y-66325897D01*
X101771418Y-66390000D01*
X101771418Y-67210000D01*
X101777732Y-67274103D01*
X101796430Y-67335743D01*
X101826794Y-67392550D01*
X101867657Y-67442343D01*
X101917450Y-67483206D01*
X101974257Y-67513570D01*
X102035897Y-67532268D01*
X102073001Y-67535923D01*
X102073000Y-68423000D01*
X101175881Y-68423000D01*
X101150000Y-68420451D01*
X101124119Y-68423000D01*
X101046690Y-68430626D01*
X100947350Y-68460761D01*
X100855798Y-68509696D01*
X100775552Y-68575552D01*
X100759053Y-68595656D01*
X100081711Y-69273000D01*
X99079844Y-69273000D01*
X99147476Y-69205368D01*
X99096783Y-69154675D01*
X99226349Y-69070642D01*
X99301568Y-68893071D01*
X99340700Y-68704237D01*
X99342239Y-68511397D01*
X99306128Y-68321962D01*
X99233753Y-68143212D01*
X99226349Y-68129358D01*
X99096782Y-68045324D01*
X98542105Y-68600000D01*
X98556248Y-68614142D01*
X98376642Y-68793748D01*
X98362500Y-68779605D01*
X98348358Y-68793748D01*
X98168752Y-68614142D01*
X98182895Y-68600000D01*
X97628218Y-68045324D01*
X97498651Y-68129358D01*
X97423432Y-68306929D01*
X97384300Y-68495763D01*
X97382761Y-68688603D01*
X97418872Y-68878038D01*
X97491247Y-69056788D01*
X97498651Y-69070642D01*
X97628217Y-69154675D01*
X97577524Y-69205368D01*
X97647513Y-69275357D01*
X97623397Y-69277732D01*
X97561757Y-69296430D01*
X97504950Y-69326794D01*
X97455157Y-69367657D01*
X97414294Y-69417450D01*
X97383930Y-69474257D01*
X97365232Y-69535897D01*
X97358918Y-69600000D01*
X96867179Y-69600000D01*
X96867729Y-69350000D01*
X96862825Y-69300207D01*
X96848301Y-69252328D01*
X96824715Y-69208202D01*
X96792974Y-69169526D01*
X96754298Y-69137785D01*
X96710172Y-69114199D01*
X96662293Y-69099675D01*
X96612500Y-69094771D01*
X95853000Y-69096000D01*
X95789500Y-69159500D01*
X95535500Y-69159500D01*
X95472000Y-69096000D01*
X94712500Y-69094771D01*
X94662707Y-69099675D01*
X94614828Y-69114199D01*
X94570702Y-69137785D01*
X94532026Y-69169526D01*
X94500285Y-69208202D01*
X94476699Y-69252328D01*
X94462175Y-69300207D01*
X94457271Y-69350000D01*
X93702000Y-69350000D01*
X93702000Y-67600000D01*
X94457271Y-67600000D01*
X94458500Y-68009500D01*
X94522000Y-68073000D01*
X94594235Y-68073000D01*
X94618829Y-68114066D01*
X94732447Y-68239517D01*
X94850313Y-68327000D01*
X94522000Y-68327000D01*
X94458500Y-68390500D01*
X94457271Y-68800000D01*
X94462175Y-68849793D01*
X94476699Y-68897672D01*
X94500285Y-68941798D01*
X94532026Y-68980474D01*
X94570702Y-69012215D01*
X94614828Y-69035801D01*
X94662707Y-69050325D01*
X94712500Y-69055229D01*
X95472000Y-69054000D01*
X95535500Y-68990500D01*
X95535500Y-66746000D01*
X95789500Y-66746000D01*
X95789500Y-68990500D01*
X95853000Y-69054000D01*
X96612500Y-69055229D01*
X96662293Y-69050325D01*
X96710172Y-69035801D01*
X96754298Y-69012215D01*
X96792974Y-68980474D01*
X96824715Y-68941798D01*
X96848301Y-68897672D01*
X96862825Y-68849793D01*
X96867729Y-68800000D01*
X96866500Y-68390500D01*
X96803000Y-68327000D01*
X96474687Y-68327000D01*
X96592553Y-68239517D01*
X96706171Y-68114066D01*
X96730765Y-68073000D01*
X96803000Y-68073000D01*
X96866500Y-68009500D01*
X96866931Y-67865718D01*
X97807824Y-67865718D01*
X98362500Y-68420395D01*
X98917176Y-67865718D01*
X98833142Y-67736151D01*
X98655571Y-67660932D01*
X98466737Y-67621800D01*
X98273897Y-67620261D01*
X98084462Y-67656372D01*
X97905712Y-67728747D01*
X97891858Y-67736151D01*
X97807824Y-67865718D01*
X96866931Y-67865718D01*
X96867729Y-67600000D01*
X96866500Y-67587521D01*
X96866500Y-67472998D01*
X96832624Y-67472998D01*
X96824715Y-67458202D01*
X96803364Y-67432186D01*
X96826740Y-67342454D01*
X96793132Y-67231140D01*
X96706171Y-67085934D01*
X96592553Y-66960483D01*
X96456644Y-66859608D01*
X96303667Y-66787186D01*
X96139500Y-66746000D01*
X95789500Y-66746000D01*
X95535500Y-66746000D01*
X95185500Y-66746000D01*
X95021333Y-66787186D01*
X94868356Y-66859608D01*
X94732447Y-66960483D01*
X94618829Y-67085934D01*
X94531868Y-67231140D01*
X94498260Y-67342454D01*
X94521636Y-67432186D01*
X94500285Y-67458202D01*
X94492376Y-67472998D01*
X94458500Y-67472998D01*
X94458500Y-67587521D01*
X94457271Y-67600000D01*
X93702000Y-67600000D01*
X93702000Y-65728397D01*
X93873000Y-65728397D01*
X93873000Y-65871603D01*
X93900938Y-66012058D01*
X93955741Y-66144364D01*
X94035302Y-66263436D01*
X94136564Y-66364698D01*
X94255636Y-66444259D01*
X94387942Y-66499062D01*
X94528397Y-66527000D01*
X94671603Y-66527000D01*
X94812058Y-66499062D01*
X94944364Y-66444259D01*
X95063436Y-66364698D01*
X95101134Y-66327000D01*
X95171418Y-66327000D01*
X95171418Y-66350000D01*
X95177732Y-66414103D01*
X95196430Y-66475743D01*
X95226794Y-66532550D01*
X95267657Y-66582343D01*
X95317450Y-66623206D01*
X95374257Y-66653570D01*
X95435897Y-66672268D01*
X95500000Y-66678582D01*
X96900000Y-66678582D01*
X96964103Y-66672268D01*
X97025743Y-66653570D01*
X97082550Y-66623206D01*
X97132343Y-66582343D01*
X97173206Y-66532550D01*
X97203570Y-66475743D01*
X97222268Y-66414103D01*
X97228582Y-66350000D01*
X97228582Y-65350000D01*
X97222268Y-65285897D01*
X97203570Y-65224257D01*
X97173206Y-65167450D01*
X97132343Y-65117657D01*
X97082550Y-65076794D01*
X97025743Y-65046430D01*
X96964103Y-65027732D01*
X96900000Y-65021418D01*
X95500000Y-65021418D01*
X95435897Y-65027732D01*
X95374257Y-65046430D01*
X95317450Y-65076794D01*
X95267657Y-65117657D01*
X95226794Y-65167450D01*
X95196430Y-65224257D01*
X95181644Y-65273000D01*
X95101134Y-65273000D01*
X95063436Y-65235302D01*
X94944364Y-65155741D01*
X94812058Y-65100938D01*
X94671603Y-65073000D01*
X94528397Y-65073000D01*
X94387942Y-65100938D01*
X94255636Y-65155741D01*
X94136564Y-65235302D01*
X94035302Y-65336564D01*
X93955741Y-65455636D01*
X93900938Y-65587942D01*
X93873000Y-65728397D01*
X93702000Y-65728397D01*
X93702000Y-64730000D01*
X95244771Y-64730000D01*
X95249675Y-64779793D01*
X95264199Y-64827672D01*
X95287785Y-64871798D01*
X95319526Y-64910474D01*
X95358202Y-64942215D01*
X95402328Y-64965801D01*
X95450207Y-64980325D01*
X95500000Y-64985229D01*
X96009500Y-64984000D01*
X96073000Y-64920500D01*
X96073000Y-64257000D01*
X96327000Y-64257000D01*
X96327000Y-64920500D01*
X96390500Y-64984000D01*
X96900000Y-64985229D01*
X96949793Y-64980325D01*
X96997672Y-64965801D01*
X97041798Y-64942215D01*
X97080474Y-64910474D01*
X97112215Y-64871798D01*
X97135801Y-64827672D01*
X97150325Y-64779793D01*
X97155229Y-64730000D01*
X97154000Y-64320500D01*
X97090500Y-64257000D01*
X96327000Y-64257000D01*
X96073000Y-64257000D01*
X95309500Y-64257000D01*
X95246000Y-64320500D01*
X95244771Y-64730000D01*
X93702000Y-64730000D01*
X93702000Y-63530000D01*
X95244771Y-63530000D01*
X95246000Y-63939500D01*
X95309500Y-64003000D01*
X96073000Y-64003000D01*
X96073000Y-63339500D01*
X96327000Y-63339500D01*
X96327000Y-64003000D01*
X97090500Y-64003000D01*
X97154000Y-63939500D01*
X97155229Y-63530000D01*
X97150325Y-63480207D01*
X97135801Y-63432328D01*
X97112215Y-63388202D01*
X97080474Y-63349526D01*
X97041798Y-63317785D01*
X96997672Y-63294199D01*
X96949793Y-63279675D01*
X96900000Y-63274771D01*
X96390500Y-63276000D01*
X96327000Y-63339500D01*
X96073000Y-63339500D01*
X96009500Y-63276000D01*
X95500000Y-63274771D01*
X95450207Y-63279675D01*
X95402328Y-63294199D01*
X95358202Y-63317785D01*
X95319526Y-63349526D01*
X95287785Y-63388202D01*
X95264199Y-63432328D01*
X95249675Y-63480207D01*
X95244771Y-63530000D01*
X93702000Y-63530000D01*
X93702000Y-62402000D01*
X130398000Y-62402000D01*
X130398001Y-79798000D01*
G36*
X107627000Y-70073000D02*
G01*
X107647000Y-70073000D01*
X107647000Y-70327000D01*
X107627000Y-70327000D01*
X107627000Y-70347000D01*
X107373000Y-70347000D01*
X107373000Y-70327000D01*
X107353000Y-70327000D01*
X107353000Y-70073000D01*
X107373000Y-70073000D01*
X107373000Y-70053000D01*
X107627000Y-70053000D01*
X107627000Y-70073000D01*
X107627000Y-70073000D01*
G37*
X107627000Y-70073000D02*
X107647000Y-70073000D01*
X107647000Y-70327000D01*
X107627000Y-70327000D01*
X107627000Y-70347000D01*
X107373000Y-70347000D01*
X107373000Y-70327000D01*
X107353000Y-70327000D01*
X107353000Y-70073000D01*
X107373000Y-70073000D01*
X107373000Y-70053000D01*
X107627000Y-70053000D01*
X107627000Y-70073000D01*
M02*
