G04 #@! TF.GenerationSoftware,KiCad,Pcbnew,(5.1.4-7-g8dd734fbd)*
G04 #@! TF.CreationDate,2019-09-01T10:21:26+03:00*
G04 #@! TF.ProjectId,usb1wireadapter,75736231-7769-4726-9561-646170746572,rev?*
G04 #@! TF.SameCoordinates,Original*
G04 #@! TF.FileFunction,Other,Fab,Top*
%FSLAX46Y46*%
G04 Gerber Fmt 4.6, Leading zero omitted, Abs format (unit mm)*
G04 Created by KiCad (PCBNEW (5.1.4-7-g8dd734fbd)) date 2019-09-01 10:21:26*
%MOMM*%
%LPD*%
G04 APERTURE LIST*
%ADD10C,0.100000*%
%ADD11C,0.150000*%
%ADD12C,0.075000*%
%ADD13C,0.080000*%
%ADD14C,0.060000*%
%ADD15C,0.120000*%
G04 APERTURE END LIST*
D10*
X120050000Y-76700000D02*
X120050000Y-75100000D01*
X116350000Y-76700000D02*
X116350000Y-74300000D01*
X120050000Y-76700000D02*
X116350000Y-76700000D01*
X119250000Y-74300000D02*
X116350000Y-74300000D01*
X119250000Y-74300000D02*
X120050000Y-75100000D01*
X107600000Y-73700000D02*
X108800000Y-73700000D01*
X108800000Y-73700000D02*
X108800000Y-75700000D01*
X108800000Y-75700000D02*
X107600000Y-75700000D01*
X107600000Y-75700000D02*
X107600000Y-73700000D01*
X103800000Y-66800000D02*
X103800000Y-64800000D01*
X105000000Y-66800000D02*
X103800000Y-66800000D01*
X105000000Y-64800000D02*
X105000000Y-66800000D01*
X103800000Y-64800000D02*
X105000000Y-64800000D01*
X105800000Y-65200000D02*
X106600000Y-65200000D01*
X106600000Y-65200000D02*
X106600000Y-66800000D01*
X106600000Y-66800000D02*
X105800000Y-66800000D01*
X105800000Y-66800000D02*
X105800000Y-65200000D01*
X123000000Y-67200000D02*
X123000000Y-68000000D01*
X123000000Y-68000000D02*
X121400000Y-68000000D01*
X121400000Y-68000000D02*
X121400000Y-67200000D01*
X121400000Y-67200000D02*
X123000000Y-67200000D01*
X123000000Y-70500000D02*
X121400000Y-70500000D01*
X123000000Y-69700000D02*
X123000000Y-70500000D01*
X121400000Y-69700000D02*
X123000000Y-69700000D01*
X121400000Y-70500000D02*
X121400000Y-69700000D01*
X96100000Y-63900000D02*
X96600000Y-63400000D01*
X96600000Y-63400000D02*
X98500000Y-63400000D01*
X96100000Y-66400000D02*
X96100000Y-63900000D01*
X98500000Y-66400000D02*
X96100000Y-66400000D01*
X98500000Y-63400000D02*
X98500000Y-66400000D01*
X103600000Y-75500000D02*
X103600000Y-74200000D01*
X103600000Y-74200000D02*
X103300000Y-73900000D01*
X103300000Y-73900000D02*
X102800000Y-73900000D01*
X102800000Y-73900000D02*
X102800000Y-75500000D01*
X102800000Y-75500000D02*
X103600000Y-75500000D01*
X106800000Y-75500000D02*
X106800000Y-74200000D01*
X106800000Y-74200000D02*
X106500000Y-73900000D01*
X106500000Y-73900000D02*
X106000000Y-73900000D01*
X106000000Y-73900000D02*
X106000000Y-75500000D01*
X106000000Y-75500000D02*
X106800000Y-75500000D01*
X104400000Y-75500000D02*
X105200000Y-75500000D01*
X104400000Y-73900000D02*
X104400000Y-75500000D01*
X104900000Y-73900000D02*
X104400000Y-73900000D01*
X105200000Y-74200000D02*
X104900000Y-73900000D01*
X105200000Y-75500000D02*
X105200000Y-74200000D01*
X93512500Y-74850000D02*
X98512500Y-74850000D01*
X94210796Y-68100000D02*
X94210796Y-74100000D01*
X93510796Y-67350000D02*
X93510796Y-74850000D01*
X98512500Y-67350000D02*
X98512500Y-74850000D01*
X93512500Y-67350000D02*
X98512500Y-67350000D01*
X98612500Y-69800000D02*
X98812500Y-69600000D01*
X98812500Y-70000000D02*
X98612500Y-69800000D01*
X99022500Y-69600000D02*
X99022500Y-70000000D01*
X99022500Y-69600000D02*
X98812500Y-69600000D01*
X99022500Y-70000000D02*
X98812500Y-70000000D01*
X103800000Y-70800000D02*
X102200000Y-70800000D01*
X103800000Y-70000000D02*
X103800000Y-70800000D01*
X102200000Y-70000000D02*
X103800000Y-70000000D01*
X102200000Y-70800000D02*
X102200000Y-70000000D01*
X103600000Y-77000000D02*
X103600000Y-78600000D01*
X102800000Y-77000000D02*
X103600000Y-77000000D01*
X102800000Y-78600000D02*
X102800000Y-77000000D01*
X103600000Y-78600000D02*
X102800000Y-78600000D01*
X106800000Y-78600000D02*
X106000000Y-78600000D01*
X106000000Y-78600000D02*
X106000000Y-77000000D01*
X106000000Y-77000000D02*
X106800000Y-77000000D01*
X106800000Y-77000000D02*
X106800000Y-78600000D01*
X105200000Y-77000000D02*
X105200000Y-78600000D01*
X104400000Y-77000000D02*
X105200000Y-77000000D01*
X104400000Y-78600000D02*
X104400000Y-77000000D01*
X105200000Y-78600000D02*
X104400000Y-78600000D01*
X121800000Y-74000000D02*
X121000000Y-74000000D01*
X121000000Y-74000000D02*
X121000000Y-72400000D01*
X121000000Y-72400000D02*
X121800000Y-72400000D01*
X121800000Y-72400000D02*
X121800000Y-74000000D01*
X122800000Y-76600000D02*
X122800000Y-77400000D01*
X122800000Y-77400000D02*
X121200000Y-77400000D01*
X121200000Y-77400000D02*
X121200000Y-76600000D01*
X121200000Y-76600000D02*
X122800000Y-76600000D01*
D11*
X109500000Y-69200000D02*
X109500000Y-72200000D01*
X109500000Y-72200000D02*
X105500000Y-72200000D01*
X105500000Y-72200000D02*
X105500000Y-68200000D01*
X105500000Y-68200000D02*
X108500000Y-68200000D01*
X108500000Y-68200000D02*
X109500000Y-69200000D01*
X117250000Y-72600000D02*
X112950000Y-72600000D01*
X112950000Y-72600000D02*
X112950000Y-66400000D01*
X112950000Y-66400000D02*
X118250000Y-66400000D01*
X118250000Y-66400000D02*
X118250000Y-71600000D01*
X118250000Y-71600000D02*
X117250000Y-72600000D01*
D10*
X103000000Y-66800000D02*
X102200000Y-66800000D01*
X102200000Y-66800000D02*
X102200000Y-65200000D01*
X102200000Y-65200000D02*
X103000000Y-65200000D01*
X103000000Y-65200000D02*
X103000000Y-66800000D01*
X119400000Y-63900000D02*
X119400000Y-65500000D01*
X119400000Y-65500000D02*
X116200000Y-65500000D01*
X116200000Y-65500000D02*
X116200000Y-63900000D01*
X116200000Y-63900000D02*
X119400000Y-63900000D01*
X130250000Y-66150000D02*
X124500000Y-66150000D01*
X124500000Y-66150000D02*
X124500000Y-76050000D01*
X124500000Y-76050000D02*
X130250000Y-76050000D01*
X130250000Y-76050000D02*
X130250000Y-66150000D01*
X130250000Y-67975000D02*
X129250000Y-68600000D01*
X129250000Y-68600000D02*
X130250000Y-69225000D01*
D12*
X117819047Y-75226190D02*
X117819047Y-75630952D01*
X117842857Y-75678571D01*
X117866666Y-75702380D01*
X117914285Y-75726190D01*
X118009523Y-75726190D01*
X118057142Y-75702380D01*
X118080952Y-75678571D01*
X118104761Y-75630952D01*
X118104761Y-75226190D01*
X118295238Y-75226190D02*
X118604761Y-75226190D01*
X118438095Y-75416666D01*
X118509523Y-75416666D01*
X118557142Y-75440476D01*
X118580952Y-75464285D01*
X118604761Y-75511904D01*
X118604761Y-75630952D01*
X118580952Y-75678571D01*
X118557142Y-75702380D01*
X118509523Y-75726190D01*
X118366666Y-75726190D01*
X118319047Y-75702380D01*
X118295238Y-75678571D01*
D13*
X108378571Y-74783333D02*
X108402380Y-74807142D01*
X108426190Y-74878571D01*
X108426190Y-74926190D01*
X108402380Y-74997619D01*
X108354761Y-75045238D01*
X108307142Y-75069047D01*
X108211904Y-75092857D01*
X108140476Y-75092857D01*
X108045238Y-75069047D01*
X107997619Y-75045238D01*
X107950000Y-74997619D01*
X107926190Y-74926190D01*
X107926190Y-74878571D01*
X107950000Y-74807142D01*
X107973809Y-74783333D01*
X107926190Y-74354761D02*
X107926190Y-74450000D01*
X107950000Y-74497619D01*
X107973809Y-74521428D01*
X108045238Y-74569047D01*
X108140476Y-74592857D01*
X108330952Y-74592857D01*
X108378571Y-74569047D01*
X108402380Y-74545238D01*
X108426190Y-74497619D01*
X108426190Y-74402380D01*
X108402380Y-74354761D01*
X108378571Y-74330952D01*
X108330952Y-74307142D01*
X108211904Y-74307142D01*
X108164285Y-74330952D01*
X108140476Y-74354761D01*
X108116666Y-74402380D01*
X108116666Y-74497619D01*
X108140476Y-74545238D01*
X108164285Y-74569047D01*
X108211904Y-74592857D01*
X104578571Y-65883333D02*
X104602380Y-65907142D01*
X104626190Y-65978571D01*
X104626190Y-66026190D01*
X104602380Y-66097619D01*
X104554761Y-66145238D01*
X104507142Y-66169047D01*
X104411904Y-66192857D01*
X104340476Y-66192857D01*
X104245238Y-66169047D01*
X104197619Y-66145238D01*
X104150000Y-66097619D01*
X104126190Y-66026190D01*
X104126190Y-65978571D01*
X104150000Y-65907142D01*
X104173809Y-65883333D01*
X104626190Y-65407142D02*
X104626190Y-65692857D01*
X104626190Y-65550000D02*
X104126190Y-65550000D01*
X104197619Y-65597619D01*
X104245238Y-65645238D01*
X104269047Y-65692857D01*
D14*
X106342857Y-66066666D02*
X106361904Y-66085714D01*
X106380952Y-66142857D01*
X106380952Y-66180952D01*
X106361904Y-66238095D01*
X106323809Y-66276190D01*
X106285714Y-66295238D01*
X106209523Y-66314285D01*
X106152380Y-66314285D01*
X106076190Y-66295238D01*
X106038095Y-66276190D01*
X106000000Y-66238095D01*
X105980952Y-66180952D01*
X105980952Y-66142857D01*
X106000000Y-66085714D01*
X106019047Y-66066666D01*
X105980952Y-65933333D02*
X105980952Y-65685714D01*
X106133333Y-65819047D01*
X106133333Y-65761904D01*
X106152380Y-65723809D01*
X106171428Y-65704761D01*
X106209523Y-65685714D01*
X106304761Y-65685714D01*
X106342857Y-65704761D01*
X106361904Y-65723809D01*
X106380952Y-65761904D01*
X106380952Y-65876190D01*
X106361904Y-65914285D01*
X106342857Y-65933333D01*
X122133333Y-67742857D02*
X122114285Y-67761904D01*
X122057142Y-67780952D01*
X122019047Y-67780952D01*
X121961904Y-67761904D01*
X121923809Y-67723809D01*
X121904761Y-67685714D01*
X121885714Y-67609523D01*
X121885714Y-67552380D01*
X121904761Y-67476190D01*
X121923809Y-67438095D01*
X121961904Y-67400000D01*
X122019047Y-67380952D01*
X122057142Y-67380952D01*
X122114285Y-67400000D01*
X122133333Y-67419047D01*
X122476190Y-67514285D02*
X122476190Y-67780952D01*
X122380952Y-67361904D02*
X122285714Y-67647619D01*
X122533333Y-67647619D01*
X122133333Y-70242857D02*
X122114285Y-70261904D01*
X122057142Y-70280952D01*
X122019047Y-70280952D01*
X121961904Y-70261904D01*
X121923809Y-70223809D01*
X121904761Y-70185714D01*
X121885714Y-70109523D01*
X121885714Y-70052380D01*
X121904761Y-69976190D01*
X121923809Y-69938095D01*
X121961904Y-69900000D01*
X122019047Y-69880952D01*
X122057142Y-69880952D01*
X122114285Y-69900000D01*
X122133333Y-69919047D01*
X122495238Y-69880952D02*
X122304761Y-69880952D01*
X122285714Y-70071428D01*
X122304761Y-70052380D01*
X122342857Y-70033333D01*
X122438095Y-70033333D01*
X122476190Y-70052380D01*
X122495238Y-70071428D01*
X122514285Y-70109523D01*
X122514285Y-70204761D01*
X122495238Y-70242857D01*
X122476190Y-70261904D01*
X122438095Y-70280952D01*
X122342857Y-70280952D01*
X122304761Y-70261904D01*
X122285714Y-70242857D01*
D12*
X97526190Y-65269047D02*
X97026190Y-65269047D01*
X97026190Y-65150000D01*
X97050000Y-65078571D01*
X97097619Y-65030952D01*
X97145238Y-65007142D01*
X97240476Y-64983333D01*
X97311904Y-64983333D01*
X97407142Y-65007142D01*
X97454761Y-65030952D01*
X97502380Y-65078571D01*
X97526190Y-65150000D01*
X97526190Y-65269047D01*
X97526190Y-64507142D02*
X97526190Y-64792857D01*
X97526190Y-64650000D02*
X97026190Y-64650000D01*
X97097619Y-64697619D01*
X97145238Y-64745238D01*
X97169047Y-64792857D01*
D14*
X103380952Y-74995238D02*
X102980952Y-74995238D01*
X102980952Y-74900000D01*
X103000000Y-74842857D01*
X103038095Y-74804761D01*
X103076190Y-74785714D01*
X103152380Y-74766666D01*
X103209523Y-74766666D01*
X103285714Y-74785714D01*
X103323809Y-74804761D01*
X103361904Y-74842857D01*
X103380952Y-74900000D01*
X103380952Y-74995238D01*
X103019047Y-74614285D02*
X103000000Y-74595238D01*
X102980952Y-74557142D01*
X102980952Y-74461904D01*
X103000000Y-74423809D01*
X103019047Y-74404761D01*
X103057142Y-74385714D01*
X103095238Y-74385714D01*
X103152380Y-74404761D01*
X103380952Y-74633333D01*
X103380952Y-74385714D01*
X106580952Y-74995238D02*
X106180952Y-74995238D01*
X106180952Y-74900000D01*
X106200000Y-74842857D01*
X106238095Y-74804761D01*
X106276190Y-74785714D01*
X106352380Y-74766666D01*
X106409523Y-74766666D01*
X106485714Y-74785714D01*
X106523809Y-74804761D01*
X106561904Y-74842857D01*
X106580952Y-74900000D01*
X106580952Y-74995238D01*
X106314285Y-74423809D02*
X106580952Y-74423809D01*
X106161904Y-74519047D02*
X106447619Y-74614285D01*
X106447619Y-74366666D01*
X104980952Y-74995238D02*
X104580952Y-74995238D01*
X104580952Y-74900000D01*
X104600000Y-74842857D01*
X104638095Y-74804761D01*
X104676190Y-74785714D01*
X104752380Y-74766666D01*
X104809523Y-74766666D01*
X104885714Y-74785714D01*
X104923809Y-74804761D01*
X104961904Y-74842857D01*
X104980952Y-74900000D01*
X104980952Y-74995238D01*
X104580952Y-74633333D02*
X104580952Y-74385714D01*
X104733333Y-74519047D01*
X104733333Y-74461904D01*
X104752380Y-74423809D01*
X104771428Y-74404761D01*
X104809523Y-74385714D01*
X104904761Y-74385714D01*
X104942857Y-74404761D01*
X104961904Y-74423809D01*
X104980952Y-74461904D01*
X104980952Y-74576190D01*
X104961904Y-74614285D01*
X104942857Y-74633333D01*
D11*
X95679166Y-70552380D02*
X95679166Y-71266666D01*
X95631547Y-71409523D01*
X95536309Y-71504761D01*
X95393452Y-71552380D01*
X95298214Y-71552380D01*
X96107738Y-70647619D02*
X96155357Y-70600000D01*
X96250595Y-70552380D01*
X96488690Y-70552380D01*
X96583928Y-70600000D01*
X96631547Y-70647619D01*
X96679166Y-70742857D01*
X96679166Y-70838095D01*
X96631547Y-70980952D01*
X96060119Y-71552380D01*
X96679166Y-71552380D01*
D14*
X102933333Y-70580952D02*
X102800000Y-70390476D01*
X102704761Y-70580952D02*
X102704761Y-70180952D01*
X102857142Y-70180952D01*
X102895238Y-70200000D01*
X102914285Y-70219047D01*
X102933333Y-70257142D01*
X102933333Y-70314285D01*
X102914285Y-70352380D01*
X102895238Y-70371428D01*
X102857142Y-70390476D01*
X102704761Y-70390476D01*
X103314285Y-70580952D02*
X103085714Y-70580952D01*
X103200000Y-70580952D02*
X103200000Y-70180952D01*
X103161904Y-70238095D01*
X103123809Y-70276190D01*
X103085714Y-70295238D01*
X103380952Y-77866666D02*
X103190476Y-78000000D01*
X103380952Y-78095238D02*
X102980952Y-78095238D01*
X102980952Y-77942857D01*
X103000000Y-77904761D01*
X103019047Y-77885714D01*
X103057142Y-77866666D01*
X103114285Y-77866666D01*
X103152380Y-77885714D01*
X103171428Y-77904761D01*
X103190476Y-77942857D01*
X103190476Y-78095238D01*
X103114285Y-77523809D02*
X103380952Y-77523809D01*
X102961904Y-77619047D02*
X103247619Y-77714285D01*
X103247619Y-77466666D01*
X106580952Y-77866666D02*
X106390476Y-78000000D01*
X106580952Y-78095238D02*
X106180952Y-78095238D01*
X106180952Y-77942857D01*
X106200000Y-77904761D01*
X106219047Y-77885714D01*
X106257142Y-77866666D01*
X106314285Y-77866666D01*
X106352380Y-77885714D01*
X106371428Y-77904761D01*
X106390476Y-77942857D01*
X106390476Y-78095238D01*
X106180952Y-77523809D02*
X106180952Y-77600000D01*
X106200000Y-77638095D01*
X106219047Y-77657142D01*
X106276190Y-77695238D01*
X106352380Y-77714285D01*
X106504761Y-77714285D01*
X106542857Y-77695238D01*
X106561904Y-77676190D01*
X106580952Y-77638095D01*
X106580952Y-77561904D01*
X106561904Y-77523809D01*
X106542857Y-77504761D01*
X106504761Y-77485714D01*
X106409523Y-77485714D01*
X106371428Y-77504761D01*
X106352380Y-77523809D01*
X106333333Y-77561904D01*
X106333333Y-77638095D01*
X106352380Y-77676190D01*
X106371428Y-77695238D01*
X106409523Y-77714285D01*
X104980952Y-77866666D02*
X104790476Y-78000000D01*
X104980952Y-78095238D02*
X104580952Y-78095238D01*
X104580952Y-77942857D01*
X104600000Y-77904761D01*
X104619047Y-77885714D01*
X104657142Y-77866666D01*
X104714285Y-77866666D01*
X104752380Y-77885714D01*
X104771428Y-77904761D01*
X104790476Y-77942857D01*
X104790476Y-78095238D01*
X104580952Y-77504761D02*
X104580952Y-77695238D01*
X104771428Y-77714285D01*
X104752380Y-77695238D01*
X104733333Y-77657142D01*
X104733333Y-77561904D01*
X104752380Y-77523809D01*
X104771428Y-77504761D01*
X104809523Y-77485714D01*
X104904761Y-77485714D01*
X104942857Y-77504761D01*
X104961904Y-77523809D01*
X104980952Y-77561904D01*
X104980952Y-77657142D01*
X104961904Y-77695238D01*
X104942857Y-77714285D01*
X121580952Y-73266666D02*
X121390476Y-73400000D01*
X121580952Y-73495238D02*
X121180952Y-73495238D01*
X121180952Y-73342857D01*
X121200000Y-73304761D01*
X121219047Y-73285714D01*
X121257142Y-73266666D01*
X121314285Y-73266666D01*
X121352380Y-73285714D01*
X121371428Y-73304761D01*
X121390476Y-73342857D01*
X121390476Y-73495238D01*
X121219047Y-73114285D02*
X121200000Y-73095238D01*
X121180952Y-73057142D01*
X121180952Y-72961904D01*
X121200000Y-72923809D01*
X121219047Y-72904761D01*
X121257142Y-72885714D01*
X121295238Y-72885714D01*
X121352380Y-72904761D01*
X121580952Y-73133333D01*
X121580952Y-72885714D01*
X121933333Y-77180952D02*
X121800000Y-76990476D01*
X121704761Y-77180952D02*
X121704761Y-76780952D01*
X121857142Y-76780952D01*
X121895238Y-76800000D01*
X121914285Y-76819047D01*
X121933333Y-76857142D01*
X121933333Y-76914285D01*
X121914285Y-76952380D01*
X121895238Y-76971428D01*
X121857142Y-76990476D01*
X121704761Y-76990476D01*
X122066666Y-76780952D02*
X122314285Y-76780952D01*
X122180952Y-76933333D01*
X122238095Y-76933333D01*
X122276190Y-76952380D01*
X122295238Y-76971428D01*
X122314285Y-77009523D01*
X122314285Y-77104761D01*
X122295238Y-77142857D01*
X122276190Y-77161904D01*
X122238095Y-77180952D01*
X122123809Y-77180952D01*
X122085714Y-77161904D01*
X122066666Y-77142857D01*
D11*
X106738095Y-69652380D02*
X106738095Y-70461904D01*
X106785714Y-70557142D01*
X106833333Y-70604761D01*
X106928571Y-70652380D01*
X107119047Y-70652380D01*
X107214285Y-70604761D01*
X107261904Y-70557142D01*
X107309523Y-70461904D01*
X107309523Y-69652380D01*
X107738095Y-69747619D02*
X107785714Y-69700000D01*
X107880952Y-69652380D01*
X108119047Y-69652380D01*
X108214285Y-69700000D01*
X108261904Y-69747619D01*
X108309523Y-69842857D01*
X108309523Y-69938095D01*
X108261904Y-70080952D01*
X107690476Y-70652380D01*
X108309523Y-70652380D01*
X114838095Y-68952380D02*
X114838095Y-69761904D01*
X114885714Y-69857142D01*
X114933333Y-69904761D01*
X115028571Y-69952380D01*
X115219047Y-69952380D01*
X115314285Y-69904761D01*
X115361904Y-69857142D01*
X115409523Y-69761904D01*
X115409523Y-68952380D01*
X116409523Y-69952380D02*
X115838095Y-69952380D01*
X116123809Y-69952380D02*
X116123809Y-68952380D01*
X116028571Y-69095238D01*
X115933333Y-69190476D01*
X115838095Y-69238095D01*
D14*
X102742857Y-66066666D02*
X102761904Y-66085714D01*
X102780952Y-66142857D01*
X102780952Y-66180952D01*
X102761904Y-66238095D01*
X102723809Y-66276190D01*
X102685714Y-66295238D01*
X102609523Y-66314285D01*
X102552380Y-66314285D01*
X102476190Y-66295238D01*
X102438095Y-66276190D01*
X102400000Y-66238095D01*
X102380952Y-66180952D01*
X102380952Y-66142857D01*
X102400000Y-66085714D01*
X102419047Y-66066666D01*
X102419047Y-65914285D02*
X102400000Y-65895238D01*
X102380952Y-65857142D01*
X102380952Y-65761904D01*
X102400000Y-65723809D01*
X102419047Y-65704761D01*
X102457142Y-65685714D01*
X102495238Y-65685714D01*
X102552380Y-65704761D01*
X102780952Y-65933333D01*
X102780952Y-65685714D01*
D15*
X117533333Y-64642857D02*
X117266666Y-64642857D01*
X117266666Y-65061904D02*
X117266666Y-64261904D01*
X117647619Y-64261904D01*
X118371428Y-65061904D02*
X117914285Y-65061904D01*
X118142857Y-65061904D02*
X118142857Y-64261904D01*
X118066666Y-64376190D01*
X117990476Y-64452380D01*
X117914285Y-64490476D01*
D11*
X127352380Y-71433333D02*
X128066666Y-71433333D01*
X128209523Y-71480952D01*
X128304761Y-71576190D01*
X128352380Y-71719047D01*
X128352380Y-71814285D01*
X128352380Y-70433333D02*
X128352380Y-71004761D01*
X128352380Y-70719047D02*
X127352380Y-70719047D01*
X127495238Y-70814285D01*
X127590476Y-70909523D01*
X127638095Y-71004761D01*
M02*
