G04 #@! TF.GenerationSoftware,KiCad,Pcbnew,(5.1.4-7-g8dd734fbd)*
G04 #@! TF.CreationDate,2019-09-01T10:21:26+03:00*
G04 #@! TF.ProjectId,usb1wireadapter,75736231-7769-4726-9561-646170746572,rev?*
G04 #@! TF.SameCoordinates,Original*
G04 #@! TF.FileFunction,Soldermask,Bot*
G04 #@! TF.FilePolarity,Negative*
%FSLAX46Y46*%
G04 Gerber Fmt 4.6, Leading zero omitted, Abs format (unit mm)*
G04 Created by KiCad (PCBNEW (5.1.4-7-g8dd734fbd)) date 2019-09-01 10:21:26*
%MOMM*%
%LPD*%
G04 APERTURE LIST*
%ADD10C,0.100000*%
G04 APERTURE END LIST*
D10*
G36*
X96149724Y-73910128D02*
G01*
X96281675Y-73950155D01*
X96403281Y-74015155D01*
X96509870Y-74102630D01*
X96597345Y-74209219D01*
X96662345Y-74330825D01*
X96702372Y-74462776D01*
X96715887Y-74600000D01*
X96702372Y-74737224D01*
X96662345Y-74869175D01*
X96597345Y-74990781D01*
X96509870Y-75097370D01*
X96403281Y-75184845D01*
X96281675Y-75249845D01*
X96149724Y-75289872D01*
X96046890Y-75300000D01*
X95278110Y-75300000D01*
X95175276Y-75289872D01*
X95043325Y-75249845D01*
X94921719Y-75184845D01*
X94815130Y-75097370D01*
X94727655Y-74990781D01*
X94662655Y-74869175D01*
X94622628Y-74737224D01*
X94609113Y-74600000D01*
X94622628Y-74462776D01*
X94662655Y-74330825D01*
X94727655Y-74209219D01*
X94815130Y-74102630D01*
X94921719Y-74015155D01*
X95043325Y-73950155D01*
X95175276Y-73910128D01*
X95278110Y-73900000D01*
X96046890Y-73900000D01*
X96149724Y-73910128D01*
X96149724Y-73910128D01*
G37*
G36*
X128211232Y-72663746D02*
G01*
X128300770Y-72690907D01*
X128390309Y-72718068D01*
X128478523Y-72765220D01*
X128555345Y-72806282D01*
X128555347Y-72806283D01*
X128555346Y-72806283D01*
X128700002Y-72924998D01*
X128808073Y-73056684D01*
X128818718Y-73069655D01*
X128859780Y-73146477D01*
X128906932Y-73234691D01*
X128961254Y-73413769D01*
X128979596Y-73600000D01*
X128961254Y-73786231D01*
X128906932Y-73965309D01*
X128893315Y-73990784D01*
X128821091Y-74125906D01*
X128818717Y-74130346D01*
X128700002Y-74275002D01*
X128568316Y-74383073D01*
X128555345Y-74393718D01*
X128496820Y-74425000D01*
X128390309Y-74481932D01*
X128300770Y-74509093D01*
X128211232Y-74536254D01*
X128141448Y-74543127D01*
X128071666Y-74550000D01*
X127728334Y-74550000D01*
X127658552Y-74543127D01*
X127588768Y-74536254D01*
X127499230Y-74509093D01*
X127409691Y-74481932D01*
X127303180Y-74425000D01*
X127244655Y-74393718D01*
X127231685Y-74383073D01*
X127099998Y-74275002D01*
X126981283Y-74130346D01*
X126978910Y-74125906D01*
X126906685Y-73990784D01*
X126893068Y-73965309D01*
X126838746Y-73786231D01*
X126820404Y-73600000D01*
X126838746Y-73413769D01*
X126893068Y-73234691D01*
X126940220Y-73146477D01*
X126981282Y-73069655D01*
X126991927Y-73056684D01*
X127099998Y-72924998D01*
X127244654Y-72806283D01*
X127244653Y-72806283D01*
X127244655Y-72806282D01*
X127321477Y-72765220D01*
X127409691Y-72718068D01*
X127499230Y-72690907D01*
X127588768Y-72663746D01*
X127728334Y-72650000D01*
X128071666Y-72650000D01*
X128211232Y-72663746D01*
X128211232Y-72663746D01*
G37*
G36*
X98603144Y-72806704D02*
G01*
X98753283Y-72868893D01*
X98888406Y-72959180D01*
X99003320Y-73074094D01*
X99093607Y-73209217D01*
X99155796Y-73359356D01*
X99187500Y-73518743D01*
X99187500Y-73681257D01*
X99155796Y-73840644D01*
X99093607Y-73990783D01*
X99003320Y-74125906D01*
X98888406Y-74240820D01*
X98753283Y-74331107D01*
X98603144Y-74393296D01*
X98443757Y-74425000D01*
X98281243Y-74425000D01*
X98121856Y-74393296D01*
X97971717Y-74331107D01*
X97836594Y-74240820D01*
X97721680Y-74125906D01*
X97631393Y-73990783D01*
X97569204Y-73840644D01*
X97537500Y-73681257D01*
X97537500Y-73518743D01*
X97569204Y-73359356D01*
X97631393Y-73209217D01*
X97721680Y-73074094D01*
X97836594Y-72959180D01*
X97971717Y-72868893D01*
X98121856Y-72806704D01*
X98281243Y-72775000D01*
X98443757Y-72775000D01*
X98603144Y-72806704D01*
X98603144Y-72806704D01*
G37*
G36*
X128211232Y-70163746D02*
G01*
X128300770Y-70190907D01*
X128390309Y-70218068D01*
X128478523Y-70265220D01*
X128555345Y-70306282D01*
X128555347Y-70306283D01*
X128555346Y-70306283D01*
X128700002Y-70424998D01*
X128818717Y-70569654D01*
X128906932Y-70734691D01*
X128961254Y-70913769D01*
X128979596Y-71100000D01*
X128961254Y-71286231D01*
X128906932Y-71465309D01*
X128818717Y-71630346D01*
X128700002Y-71775002D01*
X128568316Y-71883073D01*
X128555345Y-71893718D01*
X128478523Y-71934780D01*
X128390309Y-71981932D01*
X128300770Y-72009093D01*
X128211232Y-72036254D01*
X128141448Y-72043127D01*
X128071666Y-72050000D01*
X127728334Y-72050000D01*
X127658552Y-72043127D01*
X127588768Y-72036254D01*
X127499230Y-72009093D01*
X127409691Y-71981932D01*
X127321477Y-71934780D01*
X127244655Y-71893718D01*
X127231684Y-71883073D01*
X127099998Y-71775002D01*
X126981283Y-71630346D01*
X126893068Y-71465309D01*
X126838746Y-71286231D01*
X126820404Y-71100000D01*
X126838746Y-70913769D01*
X126893068Y-70734691D01*
X126981283Y-70569654D01*
X127099998Y-70424998D01*
X127244654Y-70306283D01*
X127244653Y-70306283D01*
X127244655Y-70306282D01*
X127321477Y-70265220D01*
X127409691Y-70218068D01*
X127499230Y-70190907D01*
X127588768Y-70163746D01*
X127728334Y-70150000D01*
X128071666Y-70150000D01*
X128211232Y-70163746D01*
X128211232Y-70163746D01*
G37*
G36*
X128975000Y-69550000D02*
G01*
X126825000Y-69550000D01*
X126825000Y-67650000D01*
X128975000Y-67650000D01*
X128975000Y-69550000D01*
X128975000Y-69550000D01*
G37*
G36*
X98603144Y-67806704D02*
G01*
X98753283Y-67868893D01*
X98888406Y-67959180D01*
X99003320Y-68074094D01*
X99093607Y-68209217D01*
X99155796Y-68359356D01*
X99187500Y-68518743D01*
X99187500Y-68681257D01*
X99155796Y-68840644D01*
X99093607Y-68990783D01*
X99003320Y-69125906D01*
X98888406Y-69240820D01*
X98753283Y-69331107D01*
X98603144Y-69393296D01*
X98443757Y-69425000D01*
X98281243Y-69425000D01*
X98121856Y-69393296D01*
X97971717Y-69331107D01*
X97836594Y-69240820D01*
X97721680Y-69125906D01*
X97631393Y-68990783D01*
X97569204Y-68840644D01*
X97537500Y-68681257D01*
X97537500Y-68518743D01*
X97569204Y-68359356D01*
X97631393Y-68209217D01*
X97721680Y-68074094D01*
X97836594Y-67959180D01*
X97971717Y-67868893D01*
X98121856Y-67806704D01*
X98281243Y-67775000D01*
X98443757Y-67775000D01*
X98603144Y-67806704D01*
X98603144Y-67806704D01*
G37*
G36*
X96149724Y-66910128D02*
G01*
X96281675Y-66950155D01*
X96403281Y-67015155D01*
X96509870Y-67102630D01*
X96597345Y-67209219D01*
X96662345Y-67330825D01*
X96702372Y-67462776D01*
X96715887Y-67600000D01*
X96702372Y-67737224D01*
X96662345Y-67869175D01*
X96597345Y-67990781D01*
X96509870Y-68097370D01*
X96403281Y-68184845D01*
X96281675Y-68249845D01*
X96149724Y-68289872D01*
X96046890Y-68300000D01*
X95278110Y-68300000D01*
X95175276Y-68289872D01*
X95043325Y-68249845D01*
X94921719Y-68184845D01*
X94815130Y-68097370D01*
X94727655Y-67990781D01*
X94662655Y-67869175D01*
X94622628Y-67737224D01*
X94609113Y-67600000D01*
X94622628Y-67462776D01*
X94662655Y-67330825D01*
X94727655Y-67209219D01*
X94815130Y-67102630D01*
X94921719Y-67015155D01*
X95043325Y-66950155D01*
X95175276Y-66910128D01*
X95278110Y-66900000D01*
X96046890Y-66900000D01*
X96149724Y-66910128D01*
X96149724Y-66910128D01*
G37*
M02*
